<?xml version="1.0" encoding="UTF-8" standalone="no"?>
<svg
   xmlns:dc="http://purl.org/dc/elements/1.1/"
   xmlns:cc="http://creativecommons.org/ns#"
   xmlns:rdf="http://www.w3.org/1999/02/22-rdf-syntax-ns#"
   xmlns:svg="http://www.w3.org/2000/svg"
   xmlns="http://www.w3.org/2000/svg"
   xmlns:xlink="http://www.w3.org/1999/xlink"
   xmlns:sodipodi="http://sodipodi.sourceforge.net/DTD/sodipodi-0.dtd"
   xmlns:inkscape="http://www.inkscape.org/namespaces/inkscape"
   inkscape:version="1.0 (1.0+r73+1)"
   sodipodi:docname="bedroom.svg"
   viewBox="0 0 749.73596 444.26267"
   height="444.26266"
   width="749.73596"
   xml:space="preserve"
   id="svg2"
   version="1.1"><metadata
     id="metadata8"><rdf:RDF><cc:Work
         rdf:about=""><dc:format>image/svg+xml</dc:format><dc:type
           rdf:resource="http://purl.org/dc/dcmitype/StillImage" /><dc:title></dc:title></cc:Work></rdf:RDF></metadata><defs
     id="defs6"><linearGradient
       id="linearGradient4161"><stop
         style="stop-color:#e9e9a1;stop-opacity:1"
         offset="0"
         id="stop4163" /><stop
         style="stop-color:#dcdc60;stop-opacity:1"
         offset="1"
         id="stop4165" /></linearGradient><linearGradient
       gradientTransform="matrix(0.14710429,0.03910929,0.03910929,-0.14710429,397.72341,408.37436)"
       xlink:href="#linearGradient4161"
       id="linearGradient4167"
       x1="328.08224"
       y1="427.12909"
       x2="346.86435"
       y2="450.64029"
       gradientUnits="userSpaceOnUse" /><filter
       style="color-interpolation-filters:sRGB"
       id="filter3591"
       x="0"
       y="0"
       width="1"
       height="1"><feGaussianBlur
         stdDeviation="6"
         in="SourceGraphic"
         result="result0"
         id="feGaussianBlur3593" /><feDiffuseLighting
         lighting-color="#ffffff"
         diffuseConstant="1"
         surfaceScale="4"
         result="result5"
         id="feDiffuseLighting3595"><feDistantLight
           elevation="45"
           azimuth="235"
           id="feDistantLight3597" /></feDiffuseLighting><feComposite
         k4="0"
         k3="0"
         k2="0"
         k1="1.4"
         in2="SourceGraphic"
         in="result5"
         result="fbSourceGraphic"
         operator="arithmetic"
         id="feComposite3599" /><feGaussianBlur
         result="result0"
         in="fbSourceGraphic"
         stdDeviation="6"
         id="feGaussianBlur3601" /><feSpecularLighting
         specularExponent="25"
         specularConstant="1"
         surfaceScale="4"
         lighting-color="#f4d8d8"
         result="result1"
         in="result0"
         id="feSpecularLighting3603"><feDistantLight
           azimuth="235"
           elevation="45"
           id="feDistantLight3605" /></feSpecularLighting><feComposite
         k4="0"
         k1="0"
         k3="1"
         k2="1"
         operator="arithmetic"
         in="fbSourceGraphic"
         in2="result1"
         result="result4"
         id="feComposite3607" /><feComposite
         operator="in"
         result="result2"
         in2="SourceGraphic"
         in="result4"
         id="feComposite3609" /></filter><linearGradient
       xlink:href="#linearGradient4289"
       id="linearGradient4287"
       x1="283.95834"
       y1="445.63168"
       x2="350.92413"
       y2="516.63171"
       gradientUnits="userSpaceOnUse"
       gradientTransform="matrix(0.03418886,-0.01017772,-0.01012242,-0.0340031,431.96297,398.13867)" /><linearGradient
       id="linearGradient4289"><stop
         style="stop-color:#e30000;stop-opacity:1"
         offset="0"
         id="stop4295" /><stop
         id="stop4293"
         offset="0.42441505"
         style="stop-color:#eb0000;stop-opacity:1;" /><stop
         style="stop-color:#f30000;stop-opacity:1"
         offset="1"
         id="stop4291" /></linearGradient><radialGradient
       xlink:href="#linearGradient4271"
       id="radialGradient4277"
       cx="49.022663"
       cy="617.35596"
       fx="49.022663"
       fy="617.35596"
       r="90.419113"
       gradientTransform="matrix(0.99549505,0,0,0.79302994,15.097996,-241.33907)"
       gradientUnits="userSpaceOnUse"
       spreadMethod="pad" /><linearGradient
       id="linearGradient4271"><stop
         style="stop-color:#f30000;stop-opacity:1"
         offset="0"
         id="stop4273" /><stop
         id="stop4279"
         offset="0.61115956"
         style="stop-color:#eb0000;stop-opacity:1;" /><stop
         style="stop-color:#e30000;stop-opacity:1"
         offset="1"
         id="stop4275" /></linearGradient><filter
       inkscape:collect="always"
       id="filter6903"><feGaussianBlur
         inkscape:collect="always"
         stdDeviation="0.13758418"
         id="feGaussianBlur6905" /></filter><linearGradient
       id="linearGradient6776"><stop
         offset="0"
         style="stop-color:#1f1f1f;stop-opacity:0"
         id="stop6778" /><stop
         offset="0.3"
         style="stop-color:#1f1f1f"
         id="stop6786" /><stop
         offset="0.7"
         style="stop-color:#1f1f1f"
         id="stop6784" /><stop
         offset="1"
         style="stop-color:#1f1f1f;stop-opacity:0"
         id="stop6780" /></linearGradient><linearGradient
       id="linearGradient6755"><stop
         offset="0"
         style="stop-color:#e4e4e4;stop-opacity:.52101"
         id="stop6757" /><stop
         offset="1"
         style="stop-color:#7e7e7e;stop-opacity:0"
         id="stop6759" /></linearGradient><filter
       inkscape:collect="always"
       id="filter6848"><feGaussianBlur
         inkscape:collect="always"
         stdDeviation="0.27147849"
         id="feGaussianBlur6850" /></filter><linearGradient
       id="linearGradient6739"><stop
         offset="0"
         style="stop-color:#696969"
         id="stop6741" /><stop
         offset=".37143"
         style="stop-color:#696969"
         id="stop6747" /><stop
         offset=".79286"
         style="stop-color:#696969"
         id="stop6749" /><stop
         offset="1"
         style="stop-color:#4b4b4b"
         id="stop6743" /></linearGradient><linearGradient
       id="linearGradient5141"><stop
         offset="0"
         style="stop-color:#c7c7c7"
         id="stop5143" /><stop
         offset=".18668"
         style="stop-color:#cdcdcd"
         id="stop5157" /><stop
         offset=".23967"
         style="stop-color:#fdfdfd"
         id="stop5149" /><stop
         offset=".30674"
         style="stop-color:#b4b4b4"
         id="stop5151" /><stop
         offset=".55839"
         style="stop-color:#c3c3c3"
         id="stop5153" /><stop
         offset="1"
         style="stop-color:#dbdbdb"
         id="stop5145" /></linearGradient><filter
       inkscape:collect="always"
       x="-.22950"
       y="-.91798"
       width="1.459"
       height="2.836"
       id="filter6681"><feGaussianBlur
         inkscape:collect="always"
         stdDeviation="2.1173654"
         id="feGaussianBlur6683" /></filter><filter
       inkscape:collect="always"
       id="filter6982"><feGaussianBlur
         inkscape:collect="always"
         stdDeviation="0.3805197"
         id="feGaussianBlur6984" /></filter><filter
       inkscape:collect="always"
       id="filter6978"><feGaussianBlur
         inkscape:collect="always"
         stdDeviation="3.9018795"
         id="feGaussianBlur6980" /></filter><filter
       inkscape:collect="always"
       id="filter6958"><feGaussianBlur
         inkscape:collect="always"
         stdDeviation="0.79962257"
         id="feGaussianBlur6960" /></filter><linearGradient
       inkscape:collect="always"
       x1="849.36"
       y1="1259.1"
       gradientTransform="translate(96.429,-0.71429)"
       x2="900.12"
       gradientUnits="userSpaceOnUse"
       xlink:href="#linearGradient5141"
       y2="1259.1"
       id="linearGradient2725" /><radialGradient
       inkscape:collect="always"
       r="5.4296"
       cx="867.85"
       cy="1660.3"
       gradientUnits="userSpaceOnUse"
       xlink:href="#linearGradient6739"
       id="radialGradient2731" /><radialGradient
       inkscape:collect="always"
       r="2.0203"
       cx="958.13"
       cy="1685.2"
       gradientUnits="userSpaceOnUse"
       xlink:href="#linearGradient6755"
       id="radialGradient2733" /><linearGradient
       inkscape:collect="always"
       x1="-1793.2"
       y1="572.76"
       gradientTransform="translate(1465.9,-2311.1)"
       x2="-1792"
       gradientUnits="userSpaceOnUse"
       xlink:href="#linearGradient6776"
       y2="572.76"
       id="linearGradient2735" /><linearGradient
       inkscape:collect="always"
       x1="-1793.2"
       y1="572.76"
       gradientTransform="translate(1483.6,-2429.1)"
       x2="-1792"
       gradientUnits="userSpaceOnUse"
       xlink:href="#linearGradient6776"
       y2="572.76"
       id="linearGradient2741" /><radialGradient
       r="5.4296"
       cy="1660.3"
       cx="867.85"
       gradientUnits="userSpaceOnUse"
       id="radialGradient1106"
       xlink:href="#linearGradient6739"
       inkscape:collect="always" /><radialGradient
       r="2.0203"
       cy="1685.2"
       cx="958.13"
       gradientUnits="userSpaceOnUse"
       id="radialGradient1108"
       xlink:href="#linearGradient6755"
       inkscape:collect="always" /><linearGradient
       inkscape:collect="always"
       xlink:href="#linearGradient5141"
       id="linearGradient1203"
       gradientUnits="userSpaceOnUse"
       gradientTransform="translate(96.429,-0.71429)"
       x1="849.36"
       y1="1259.1"
       x2="900.12"
       y2="1259.1" /><linearGradient
       inkscape:collect="always"
       xlink:href="#linearGradient5141"
       id="linearGradient1205"
       gradientUnits="userSpaceOnUse"
       gradientTransform="translate(96.429,-0.71429)"
       x1="849.36"
       y1="1259.1"
       x2="900.12"
       y2="1259.1" /><linearGradient
       id="linearGradient5406"><stop
         offset="0"
         stop-color="#454545"
         id="stop5407" /><stop
         offset=".64801"
         stop-color="#c9c9c9"
         id="stop5408" /><stop
         offset=".69753"
         stop-color="#d3d3d3"
         id="stop5410" /><stop
         offset="1"
         stop-color="#7c7c7c"
         id="stop5409" /></linearGradient><linearGradient
       id="linearGradient1806"><stop
         offset="0"
         stop-opacity=".29379"
         id="stop1807" /><stop
         offset=".64778"
         stop-opacity=".062147"
         id="stop3276" /><stop
         offset="1"
         stop-opacity="0"
         id="stop1808" /></linearGradient><radialGradient
       r="42.861094"
       cx="24.823032"
       cy="176.56876"
       xlink:href="#linearGradient1806"
       fy="162.11592"
       fx="40.973707"
       id="radialGradient4069"
       gradientUnits="userSpaceOnUse"
       gradientTransform="matrix(-1.484625,0,0,-0.40164751,609.01117,413.41003)" /><linearGradient
       id="linearGradient5232"><stop
         offset="0"
         stop-color="#fff"
         id="stop5233" /><stop
         offset="1"
         stop-opacity="0"
         stop-color="#fff"
         id="stop5234" /></linearGradient><linearGradient
       x1="267.34782"
       y1="448.95758"
       x2="349.74507"
       xlink:href="#linearGradient5232"
       y2="438.73915"
       id="linearGradient5231"
       gradientTransform="scale(0.64959779,1.5394141)"
       gradientUnits="userSpaceOnUse" /><linearGradient
       x1="253.09862"
       y1="1027.9865"
       x2="190.94329"
       xlink:href="#linearGradient5232"
       y2="1120.8815"
       id="linearGradient5236"
       gradientTransform="scale(1.5133881,0.66076906)"
       gradientUnits="userSpaceOnUse" /><linearGradient
       y2="1061.7236"
       x1="242.7996"
       x2="192.84578"
       y1="1017.1803"
       id="linearGradient5239"
       gradientTransform="scale(1.4380003,0.69541015)"
       gradientUnits="userSpaceOnUse"><stop
         offset="0"
         stop-opacity=".63842"
         id="stop5241" /><stop
         offset="1"
         stop-opacity="0"
         id="stop5242" /></linearGradient><linearGradient
       x1="228.38639"
       y1="896.1354"
       x2="148.04961"
       xlink:href="#linearGradient5232"
       y2="990.98758"
       id="linearGradient5402"
       gradientTransform="scale(1.4967631,0.66810839)"
       gradientUnits="userSpaceOnUse" /><linearGradient
       x1="207.85834"
       y1="713.95062"
       x2="252.61056"
       xlink:href="#linearGradient5232"
       y2="715.98202"
       id="linearGradient5404"
       gradientTransform="scale(1.0380228,0.96336996)"
       gradientUnits="userSpaceOnUse" /><linearGradient
       x1="148.42881"
       y1="1733.7691"
       x2="149.14801"
       xlink:href="#linearGradient5406"
       y2="1811.4929"
       id="linearGradient5405"
       gradientTransform="scale(2.1926927,0.45606026)"
       gradientUnits="userSpaceOnUse" /><linearGradient
       x1="211.33335"
       y1="855.60974"
       x2="188.81877"
       xlink:href="#linearGradient5232"
       y2="912.67432"
       id="linearGradient5413"
       gradientTransform="scale(1.0949966,0.91324487)"
       gradientUnits="userSpaceOnUse" /><linearGradient
       x1="276.4067"
       y1="836.34748"
       x2="258.68392"
       xlink:href="#linearGradient5232"
       y2="904.77246"
       id="linearGradient5417"
       gradientTransform="scale(1.080915,0.92514211)"
       gradientUnits="userSpaceOnUse" /><linearGradient
       x1="340.76573"
       y1="865.04849"
       x2="322.23685"
       xlink:href="#linearGradient5232"
       y2="911.29851"
       id="linearGradient5418"
       gradientTransform="scale(1.080915,0.92514211)"
       gradientUnits="userSpaceOnUse" /><linearGradient
       x1="407.85895"
       y1="832.87027"
       x2="376.70793"
       xlink:href="#linearGradient5232"
       y2="893.06011"
       id="linearGradient5419"
       gradientTransform="scale(1.0808898,0.92516367)"
       gradientUnits="userSpaceOnUse" /><linearGradient
       x1="226.46599"
       y1="798.0345"
       x2="229.22652"
       xlink:href="#linearGradient5406"
       y2="828.69856"
       id="linearGradient5421"
       gradientTransform="scale(0.99331266,1.0067324)"
       gradientUnits="userSpaceOnUse" /><linearGradient
       x1="214.12057"
       y1="812.59575"
       x2="203.0746"
       xlink:href="#linearGradient5406"
       y2="844.49634"
       id="linearGradient5422"
       gradientTransform="scale(0.99331266,1.0067324)"
       gradientUnits="userSpaceOnUse" /><linearGradient
       x1="212.14226"
       y1="806.94648"
       x2="201.59097"
       xlink:href="#linearGradient5406"
       y2="845.32791"
       id="linearGradient5427"
       gradientTransform="scale(0.99331266,1.0067324)"
       gradientUnits="userSpaceOnUse" /><linearGradient
       x1="196.15038"
       y1="812.59575"
       x2="215.27476"
       xlink:href="#linearGradient5406"
       y2="840.67668"
       id="linearGradient5428"
       gradientTransform="scale(0.99331266,1.0067324)"
       gradientUnits="userSpaceOnUse" /><linearGradient
       x1="214.28561"
       y1="810.9342"
       x2="199.2828"
       xlink:href="#linearGradient5406"
       y2="845.82557"
       id="linearGradient5429"
       gradientTransform="scale(0.99331266,1.0067324)"
       gradientUnits="userSpaceOnUse" /><linearGradient
       x1="167.78442"
       y1="799.51388"
       x2="170.54708"
       xlink:href="#linearGradient5406"
       y2="830.17793"
       id="linearGradient5430"
       gradientTransform="scale(0.99331266,1.0067324)"
       gradientUnits="userSpaceOnUse" /><linearGradient
       x1="112.70133"
       y1="805.43116"
       x2="115.46399"
       xlink:href="#linearGradient5406"
       y2="836.09564"
       id="linearGradient5431"
       gradientTransform="scale(0.99331266,1.0067324)"
       gradientUnits="userSpaceOnUse" /><linearGradient
       x1="289.58399"
       y1="799.51388"
       x2="292.34452"
       xlink:href="#linearGradient5406"
       y2="830.17793"
       id="linearGradient5432"
       gradientTransform="scale(0.99331266,1.0067324)"
       gradientUnits="userSpaceOnUse" /><linearGradient
       x1="101.83371"
       y1="-5.6536192"
       x2="103.25943"
       xlink:href="#linearGradient1806"
       y2="160.6535"
       id="linearGradient5433"
       gradientTransform="matrix(0.74553822,0,0,-0.75448855,508.34617,421.68403)"
       gradientUnits="userSpaceOnUse" /><linearGradient
       x1="86.23736"
       y1="27.942388"
       x2="63.864773"
       xlink:href="#linearGradient5232"
       y2="36.33194"
       id="linearGradient5434"
       gradientTransform="scale(1.1249186,0.88895321)"
       gradientUnits="userSpaceOnUse" /><linearGradient
       x1="71.772073"
       y1="25.214379"
       x2="66.814636"
       xlink:href="#linearGradient1806"
       y2="22.309625"
       id="linearGradient5435"
       gradientTransform="scale(1.1375314,0.8790966)"
       gradientUnits="userSpaceOnUse" /><linearGradient
       x1="108.06254"
       y1="97.478575"
       x2="83.951022"
       xlink:href="#linearGradient5232"
       y2="99.233083"
       id="linearGradient5436"
       gradientTransform="scale(1.3030926,0.76740515)"
       gradientUnits="userSpaceOnUse" /></defs><sodipodi:namedview
     inkscape:current-layer="g10"
     inkscape:window-maximized="1"
     inkscape:window-y="0"
     inkscape:window-x="0"
     inkscape:cy="272.72548"
     inkscape:cx="171.02268"
     inkscape:zoom="2.1971356"
     fit-margin-bottom="0"
     fit-margin-right="0"
     fit-margin-left="0"
     fit-margin-top="0"
     showgrid="false"
     id="namedview4"
     inkscape:window-height="1027"
     inkscape:window-width="1920"
     inkscape:pageshadow="2"
     inkscape:pageopacity="0"
     guidetolerance="10"
     gridtolerance="10"
     objecttolerance="10"
     borderopacity="1"
     bordercolor="#666666"
     pagecolor="#ffffff"
     inkscape:document-rotation="0"
     inkscape:snap-page="true" /><g
     transform="matrix(1.3333333,0,0,-1.3333333,0,622.59598)"
     inkscape:label="ink_ext_XXXXXX"
     inkscape:groupmode="layer"
     id="g10"><path
       d="m 285.288,396.17 c 17.992,0 32.667,14.674 32.667,32.666 0,17.992 -14.675,32.667 -32.667,32.667 -17.993,0 -32.666,-14.675 -32.666,-32.667 0,-17.992 14.673,-32.666 32.666,-32.666"
       style="fill:#e8e8e7;fill-opacity:1;fill-rule:evenodd;stroke:none;stroke-width:0.1"
       id="path64" /><path
       d="m 478.726,143.071 12.159,19.896 c 4.487,7.342 10.654,13.509 17.995,17.995 19.17,11.716 30.862,32.563 30.862,55.028 0,22.467 -11.692,43.314 -30.862,55.031 -26.941,16.464 -36.239,51.164 -21.139,78.894 14.663,26.93 5.177,60.64 -21.378,75.973 -26.554,15.331 -60.491,6.691 -76.482,-19.474 -9.881,-16.166 -27.461,-26.026 -46.407,-26.026 -18.946,0 -36.527,9.86 -46.408,26.026 -11.876,19.433 -35.131,28.727 -57.13,22.832 -21.998,-5.894 -37.49,-25.57 -38.06,-48.338 -0.414,-16.613 -9.444,-31.813 -23.836,-40.122 -14.393,-8.309 -32.072,-8.53 -46.666,-0.583 -24.844,13.528 -55.6283,9.083 -75.6302,-10.919 -20.0028,-20.003 -24.4473,-50.788 -10.92,-75.63 15.1403,-27.805 23.4481,-58.813 24.2391,-90.463 l 33.3091,-43.994 376.354,3.874"
       style="fill:#e8e8e7;fill-opacity:1;fill-rule:evenodd;stroke:none;stroke-width:0.1"
       id="path66" /><path
       d="m 276.809,377.259 c 11.427,0 20.69,-9.263 20.69,-20.689 0,-11.426 -9.263,-20.689 -20.69,-20.689 -11.426,0 -20.688,9.263 -20.688,20.689 0,11.426 9.262,20.689 20.688,20.689 z m -83.874,-48.782 c 18.024,0 32.637,-14.612 32.637,-32.638 0,-18.023 -14.613,-32.635 -32.637,-32.635 -18.025,0 -32.637,14.612 -32.637,32.635 0,18.026 14.612,32.638 32.637,32.638 z m 201.255,15.244 c 17.801,0 32.231,-14.431 32.231,-32.231 0,-17.8 -14.43,-32.231 -32.231,-32.231 -17.8,0 -32.231,14.431 -32.231,32.231 0,17.8 14.431,32.231 32.231,32.231 v 0"
       style="fill:#e1e0df;fill-opacity:1;fill-rule:evenodd;stroke:none;stroke-width:0.1"
       id="path68" /><path
       d="m 281.151,133.75 c 154.852,0 281.151,2.446 281.151,5.447 0,3 -126.299,5.447 -281.151,5.447 C 126.298,144.644 0,142.197 0,139.197 0,136.196 126.298,133.75 281.151,133.75"
       style="fill:#46454b;fill-opacity:1;fill-rule:evenodd;stroke:none;stroke-width:0.1"
       id="path70" /><path
       d="m 111.739,308.055 c 4.611,-5.649 7.604,-14.751 7.604,-25.021 0,-17.139 -8.336,-31.032 -18.62,-31.032 -10.2835,0 -18.6199,13.893 -18.6199,31.032 0,10.27 2.9926,19.372 7.6043,25.021 3.7031,4.534 4.6524,10.252 2.6145,15.741 l -2.8145,7.579 h 11.2156 11.215 l -2.813,-7.579 c -2.039,-5.489 -1.089,-11.207 2.614,-15.741"
       style="fill:#892f1b;fill-opacity:1;fill-rule:evenodd;stroke:none;stroke-width:0.1"
       id="path72" /><path
       d="m 117.263,297.3 c 1.329,-4.271 2.08,-9.123 2.08,-14.266 0,-5.765 -0.944,-11.164 -2.588,-15.789 H 84.691 c -1.643,4.625 -2.5879,10.024 -2.5879,15.789 0,5.143 0.7504,9.995 2.0793,14.266 h 33.0806"
       style="fill:#bc4c1f;fill-opacity:1;fill-rule:evenodd;stroke:none;stroke-width:0.1"
       id="path74" /><path
       d="m 101.541,331.375 c -1.8691,0 -3.7379,0 -5.6074,0 0.3035,36.464 -4.1895,62.559 -17.0621,56.955 12.0914,10.322 21.3345,1.18 22.6695,-56.955"
       style="fill:#87b027;fill-opacity:1;fill-rule:evenodd;stroke:none;stroke-width:0.1"
       id="path76" /><path
       d="m 98.5383,331.375 c 2.1147,0 4.2297,0 6.3457,0 -0.344,41.263 4.741,70.791 19.307,64.45 -13.682,11.68 -24.143,1.336 -25.6527,-64.45"
       style="fill:#adda1a;fill-opacity:1;fill-rule:evenodd;stroke:none;stroke-width:0.1"
       id="path78" /><path
       d="M 49.6547,139.197 H 146.783 V 252.873 H 49.6547 V 139.197"
       style="fill:#fbca07;fill-opacity:1;fill-rule:evenodd;stroke:none;stroke-width:0.1"
       id="path80" /><path
       d="M 148.307,249.17 H 48.1301 c -2.0367,0 -3.7024,1.666 -3.7024,3.702 v 10e-4 c 0,2.036 1.6657,3.701 3.7024,3.701 H 148.307 c 2.037,0 3.702,-1.665 3.702,-3.701 v -10e-4 c 0,-2.036 -1.665,-3.702 -3.702,-3.702"
       style="fill:#faf462;fill-opacity:1;fill-rule:evenodd;stroke:none;stroke-width:0.1"
       id="path82" /><path
       d="m 54.7727,214.326 h 86.8933 v 28.963 H 54.7727 v -28.963"
       style="fill:#f39c0f;fill-opacity:1;fill-rule:evenodd;stroke:none;stroke-width:0.1"
       id="path84" /><path
       d="m 99.1445,227.898 c 3.1195,0 5.6615,2.543 5.6615,5.661 0,3.119 -2.542,5.663 -5.6615,5.663 -3.1187,0 -5.6621,-2.544 -5.6621,-5.663 0,-3.118 2.5434,-5.661 5.6621,-5.661"
       style="fill:#df8c16;fill-opacity:1;fill-rule:evenodd;stroke:none;stroke-width:0.1"
       id="path86" /><path
       d="m 98.2191,229.15 c 3.1189,0 5.6619,2.543 5.6619,5.661 0,3.119 -2.543,5.663 -5.6619,5.663 -3.1191,0 -5.6625,-2.544 -5.6625,-5.663 0,-3.118 2.5434,-5.661 5.6625,-5.661"
       style="fill:#fbca07;fill-opacity:1;fill-rule:evenodd;stroke:none;stroke-width:0.1"
       id="path88" /><path
       d="m 98.2191,234.321 c 1.7688,0 3.2119,1.125 3.2119,2.504 0,1.38 -1.4431,2.505 -3.2119,2.505 -1.7695,0 -3.2117,-1.125 -3.2117,-2.505 0,-1.379 1.4422,-2.504 3.2117,-2.504"
       style="fill:#f9de1c;fill-opacity:1;fill-rule:evenodd;stroke:none;stroke-width:0.1"
       id="path90" /><path
       d="m 54.7727,211.278 c 28.964,0 57.9283,0 86.8933,0 0,-9.656 0,-19.311 0,-28.966 -28.965,0 -57.9293,0 -86.8933,0 0,9.655 0,19.31 0,28.966"
       style="fill:#f39c0f;fill-opacity:1;fill-rule:evenodd;stroke:none;stroke-width:0.1"
       id="path92" /><path
       d="m 99.1445,207.208 c 3.1265,0 5.6615,-2.534 5.6615,-5.662 0,-3.128 -2.535,-5.663 -5.6615,-5.663 -3.1273,0 -5.6621,2.535 -5.6621,5.663 0,3.128 2.5348,5.662 5.6621,5.662"
       style="fill:#df8c16;fill-opacity:1;fill-rule:evenodd;stroke:none;stroke-width:0.1"
       id="path94" /><path
       d="m 98.2184,208.46 c 3.1276,0 5.6616,-2.534 5.6616,-5.661 0,-3.128 -2.534,-5.662 -5.6616,-5.662 -3.127,0 -5.6618,2.534 -5.6618,5.662 0,3.127 2.5348,5.661 5.6618,5.661"
       style="fill:#fbca07;fill-opacity:1;fill-rule:evenodd;stroke:none;stroke-width:0.1"
       id="path96" /><path
       d="m 98.2184,207.317 c 1.7738,0 3.2126,-1.122 3.2126,-2.504 0,-1.384 -1.4388,-2.504 -3.2126,-2.504 -1.7735,0 -3.211,1.12 -3.211,2.504 0,1.382 1.4375,2.504 3.211,2.504"
       style="fill:#f9de1c;fill-opacity:1;fill-rule:evenodd;stroke:none;stroke-width:0.1"
       id="path98" /><path
       d="m 54.7727,150.299 h 86.8933 v 28.965 H 54.7727 v -28.965"
       style="fill:#f39c0f;fill-opacity:1;fill-rule:evenodd;stroke:none;stroke-width:0.1"
       id="path100" /><path
       d="m 99.1445,163.871 c 3.1195,0 5.6615,2.544 5.6615,5.662 0,3.118 -2.542,5.662 -5.6615,5.662 -3.1187,0 -5.6621,-2.544 -5.6621,-5.662 0,-3.118 2.5434,-5.662 5.6621,-5.662"
       style="fill:#df8c16;fill-opacity:1;fill-rule:evenodd;stroke:none;stroke-width:0.1"
       id="path102" /><path
       d="m 98.2191,165.122 c 3.1189,0 5.6619,2.544 5.6619,5.663 0,3.12 -2.543,5.662 -5.6619,5.662 -3.1191,0 -5.6625,-2.542 -5.6625,-5.662 0,-3.119 2.5434,-5.663 5.6625,-5.663"
       style="fill:#fbca07;fill-opacity:1;fill-rule:evenodd;stroke:none;stroke-width:0.1"
       id="path104" /><path
       d="m 98.2191,170.294 c 1.7688,0 3.2119,1.126 3.2119,2.506 0,1.379 -1.4431,2.505 -3.2119,2.505 -1.7695,0 -3.2117,-1.126 -3.2117,-2.505 0,-1.38 1.4422,-2.506 3.2117,-2.506"
       style="fill:#f9de1c;fill-opacity:1;fill-rule:evenodd;stroke:none;stroke-width:0.1"
       id="path106" /><path
       d="m 415.52,139.197 h 97.128 V 252.873 H 415.52 V 139.197"
       style="fill:#fbca07;fill-opacity:1;fill-rule:evenodd;stroke:none;stroke-width:0.1"
       id="path108" /><path
       d="M 514.173,249.17 H 413.995 c -2.037,0 -3.703,1.666 -3.703,3.702 v 10e-4 c 0,2.036 1.666,3.701 3.703,3.701 h 100.178 c 2.036,0 3.701,-1.665 3.701,-3.701 v -10e-4 c 0,-2.036 -1.665,-3.702 -3.701,-3.702"
       style="fill:#faf462;fill-opacity:1;fill-rule:evenodd;stroke:none;stroke-width:0.1"
       id="path110" /><path
       d="m 312.182,410.292 c -5.997,4.219 -11.171,9.667 -15.116,16.122 -8.12,13.287 -21.558,21.832 -36.277,24.025 -5.082,-5.758 -8.167,-13.319 -8.167,-21.603 0,-18.042 14.626,-32.666 32.666,-32.666 11.154,0 21.001,5.591 26.894,14.122"
       style="fill:#cdcccb;fill-opacity:1;fill-rule:evenodd;stroke:none;stroke-width:0.1"
       id="path112" /><path
       d="m 420.637,214.326 h 86.894 v 28.963 h -86.894 v -28.963"
       style="fill:#f39c0f;fill-opacity:1;fill-rule:evenodd;stroke:none;stroke-width:0.1"
       id="path114" /><path
       d="m 465.009,227.898 c 3.119,0 5.662,2.543 5.662,5.661 0,3.119 -2.543,5.663 -5.662,5.663 -3.119,0 -5.662,-2.544 -5.662,-5.663 0,-3.118 2.543,-5.661 5.662,-5.661"
       style="fill:#df8c16;fill-opacity:1;fill-rule:evenodd;stroke:none;stroke-width:0.1"
       id="path116" /><path
       d="m 464.083,229.15 c 3.12,0 5.663,2.543 5.663,5.661 0,3.119 -2.543,5.663 -5.663,5.663 -3.118,0 -5.662,-2.544 -5.662,-5.663 0,-3.118 2.544,-5.661 5.662,-5.661"
       style="fill:#fbca07;fill-opacity:1;fill-rule:evenodd;stroke:none;stroke-width:0.1"
       id="path118" /><path
       d="m 464.083,234.321 c 1.769,0 3.212,1.125 3.212,2.504 0,1.38 -1.443,2.505 -3.212,2.505 -1.769,0 -3.211,-1.125 -3.211,-2.505 0,-1.379 1.442,-2.504 3.211,-2.504"
       style="fill:#f9de1c;fill-opacity:1;fill-rule:evenodd;stroke:none;stroke-width:0.1"
       id="path120" /><path
       d="m 420.637,211.278 c 28.964,0 57.929,0 86.894,0 0,-9.656 0,-19.311 0,-28.966 -28.965,0 -57.93,0 -86.894,0 0,9.655 0,19.31 0,28.966"
       style="fill:#f39c0f;fill-opacity:1;fill-rule:evenodd;stroke:none;stroke-width:0.1"
       id="path122" /><path
       d="m 465.009,207.208 c 3.127,0 5.662,-2.534 5.662,-5.662 0,-3.128 -2.535,-5.663 -5.662,-5.663 -3.127,0 -5.662,2.535 -5.662,5.663 0,3.128 2.535,5.662 5.662,5.662"
       style="fill:#df8c16;fill-opacity:1;fill-rule:evenodd;stroke:none;stroke-width:0.1"
       id="path124" /><path
       d="m 464.083,208.46 c 3.127,0 5.663,-2.534 5.663,-5.661 0,-3.128 -2.536,-5.662 -5.663,-5.662 -3.126,0 -5.662,2.534 -5.662,5.662 0,3.127 2.536,5.661 5.662,5.661"
       style="fill:#fbca07;fill-opacity:1;fill-rule:evenodd;stroke:none;stroke-width:0.1"
       id="path126" /><path
       d="m 464.083,207.317 c 1.774,0 3.212,-1.122 3.212,-2.504 0,-1.384 -1.438,-2.504 -3.212,-2.504 -1.774,0 -3.211,1.12 -3.211,2.504 0,1.382 1.437,2.504 3.211,2.504"
       style="fill:#f9de1c;fill-opacity:1;fill-rule:evenodd;stroke:none;stroke-width:0.1"
       id="path128" /><path
       d="m 420.637,150.299 h 86.894 v 28.965 h -86.894 v -28.965"
       style="fill:#f39c0f;fill-opacity:1;fill-rule:evenodd;stroke:none;stroke-width:0.1"
       id="path130" /><path
       d="m 465.009,163.871 c 3.119,0 5.662,2.544 5.662,5.662 0,3.118 -2.543,5.662 -5.662,5.662 -3.119,0 -5.662,-2.544 -5.662,-5.662 0,-3.118 2.543,-5.662 5.662,-5.662"
       style="fill:#df8c16;fill-opacity:1;fill-rule:evenodd;stroke:none;stroke-width:0.1"
       id="path132" /><path
       d="m 464.083,165.122 c 3.12,0 5.663,2.544 5.663,5.663 0,3.12 -2.543,5.662 -5.663,5.662 -3.118,0 -5.662,-2.542 -5.662,-5.662 0,-3.119 2.544,-5.663 5.662,-5.663"
       style="fill:#fbca07;fill-opacity:1;fill-rule:evenodd;stroke:none;stroke-width:0.1"
       id="path134" /><path
       d="m 464.083,170.294 c 1.769,0 3.212,1.126 3.212,2.506 0,1.379 -1.443,2.505 -3.212,2.505 -1.769,0 -3.211,-1.126 -3.211,-2.505 0,-1.38 1.442,-2.506 3.211,-2.506"
       style="fill:#f9de1c;fill-opacity:1;fill-rule:evenodd;stroke:none;stroke-width:0.1"
       id="path136" /><path
       d="m 203.188,304.706 h 155.926 c 24.914,0 45.298,-20.384 45.298,-45.298 v -70.56 H 157.891 v 70.56 c 0,24.914 20.384,45.298 45.297,45.298"
       style="fill:#f36530;fill-opacity:1;fill-rule:evenodd;stroke:none;stroke-width:0.1"
       id="path138" /><path
       d="m 340.683,273.265 c 30.025,0 54.365,-15.466 54.365,-34.545 0,-19.08 -24.34,-34.545 -54.365,-34.545 -30.024,0 -54.364,15.465 -54.364,34.545 0,19.079 24.34,34.545 54.364,34.545 z m -119.064,0 c 30.024,0 54.364,-15.466 54.364,-34.545 0,-19.08 -24.34,-34.545 -54.364,-34.545 -30.025,0 -54.365,15.465 -54.365,34.545 0,19.079 24.34,34.545 54.365,34.545 v 0"
       style="fill:#f68959;fill-opacity:1;fill-rule:evenodd;stroke:none;stroke-width:0.1"
       id="path140" /><path
       d="M 180.103,247.649 H 382.2 c 27.069,0 49.217,-22.148 49.217,-49.216 v -38.767 c 0,-5.748 -4.705,-10.452 -10.454,-10.452 H 141.338 c -5.749,0 -10.453,4.704 -10.453,10.452 v 38.767 c 0,27.068 22.148,49.216 49.218,49.216"
       style="fill:#d74520;fill-opacity:1;fill-rule:evenodd;stroke:none;stroke-width:0.1"
       id="path142" /><path
       d="m 372.34,149.214 h 33.371 V 139.197 H 372.34 Z m -215.751,0 h 33.372 v -10.017 h -33.372 v 10.017 0"
       style="fill:#46454b;fill-opacity:1;fill-rule:evenodd;stroke:none;stroke-width:0.1"
       id="path144" /><path
       d="m 174.658,240.462 h 212.986 c 4.072,0 7.404,-3.332 7.404,-7.404 v 0 c 0,-4.071 -3.332,-7.403 -7.404,-7.403 H 174.658 c -4.073,0 -7.405,3.332 -7.405,7.403 v 0 c 0,4.072 3.332,7.404 7.405,7.404"
       style="fill:#e9541e;fill-opacity:1;fill-rule:evenodd;stroke:none;stroke-width:0.1"
       id="path146" /><g
       data-machinetype="gears"
       id="clock"
       data-question="What type of simple machine is used to turn the clock hands?"><path
         id="path148"
         style="fill:#f36530;fill-opacity:1;fill-rule:evenodd;stroke:none;stroke-width:0.1"
         d="m 281.151,401.614 c 17.992,0 32.666,14.674 32.666,32.666 0,17.993 -14.674,32.667 -32.666,32.667 -17.992,0 -32.666,-14.674 -32.666,-32.667 0,-17.992 14.674,-32.666 32.666,-32.666" /><path
         id="path150"
         style="fill:#f68959;fill-opacity:1;fill-rule:evenodd;stroke:none;stroke-width:0.1"
         d="m 281.151,407.821 c 14.573,0 26.459,11.886 26.459,26.459 0,14.573 -11.886,26.459 -26.459,26.459 -14.574,0 -26.459,-11.886 -26.459,-26.459 0,-14.573 11.885,-26.459 26.459,-26.459" /><g
         id="gear-group"
         class="hover-visible"><path
           d="m 264.6383,447.44821 c -0.44851,0 -0.88557,-0.047 -1.30953,-0.133 v -1.01283 c -0.56801,-0.13733 -1.1,-0.35762 -1.58453,-0.65477 l -0.71697,0.71615 c -0.36666,-0.24327 -0.70223,-0.52869 -1.01325,-0.83891 -0.30937,-0.31017 -0.59583,-0.64573 -0.83809,-1.01289 l 0.71533,-0.71615 c -0.29628,-0.48567 -0.51727,-1.01685 -0.65477,-1.58568 h -1.01161 c -0.0868,-0.42314 -0.13422,-0.86118 -0.13422,-1.30953 0,-0.44835 0.0475,-0.88638 0.13422,-1.30953 h 1.01161 c 0.1375,-0.56882 0.35849,-1.1 0.65477,-1.58584 l -0.71533,-0.71614 c 0.24226,-0.367 0.52872,-0.70257 0.83809,-1.01276 0.31102,-0.3102 0.64659,-0.59567 1.01325,-0.83892 l 0.71697,0.71615 c 0.48453,-0.29727 1.01652,-0.51743 1.58453,-0.65477 v -1.01292 c 0.42396,-0.0859 0.86102,-0.13291 1.30953,-0.13291 0.44851,0 0.88721,0.047 1.30953,0.13291 v 1.01292 c 0.56964,0.13734 1.1,0.3575 1.58617,0.65477 l 0.71696,-0.71615 c 0.36667,0.24325 0.70224,0.52872 1.01162,0.83892 0.31101,0.31019 0.59583,0.64576 0.83973,1.01276 l -0.71696,0.71614 c 0.29791,0.48584 0.51726,1.01702 0.65476,1.58584 h 1.01325 c 0.0868,0.42315 0.13259,0.86118 0.13259,1.30953 0,0.44835 -0.0458,0.88639 -0.13259,1.30953 h -1.01325 c -0.1375,0.56883 -0.35685,1.10001 -0.65476,1.58568 l 0.71696,0.71615 c -0.2439,0.36716 -0.52872,0.70272 -0.83973,1.01289 -0.30938,0.31022 -0.64495,0.59564 -1.01162,0.83891 l -0.71696,-0.71615 c -0.48617,0.29715 -1.01653,0.51744 -1.58617,0.65477 v 1.01283 c -0.42232,0.086 -0.86102,0.133 -1.30953,0.133 z m 0,-3.27382 c 1.80715,0 3.27383,-1.46667 3.27383,-3.27382 0,-1.80715 -1.46668,-3.27383 -3.27383,-3.27383 -1.80715,0 -3.27382,1.46668 -3.27382,3.27383 0,1.80715 1.46667,3.27382 3.27382,3.27382 z"
           style="fill:#949096;stroke:#2c2c2c;stroke-width:0.327382;stroke-linecap:round;stroke-linejoin:round;stroke-dashoffset:162"
           id="path58241" /><path
           id="path58241-6"
           style="fill:#949096;stroke:#2c2c2c;stroke-width:0.327382;stroke-linecap:round;stroke-linejoin:round;stroke-dashoffset:162"
           d="m 267.78663,434.70243 c -0.44851,0 -0.88557,-0.047 -1.30953,-0.133 v -1.01283 c -0.56801,-0.13733 -1.1,-0.35762 -1.58453,-0.65477 l -0.71697,0.71615 c -0.36666,-0.24327 -0.70223,-0.52869 -1.01325,-0.83891 -0.30937,-0.31017 -0.59583,-0.64573 -0.83809,-1.01289 l 0.71533,-0.71615 c -0.29628,-0.48567 -0.51727,-1.01685 -0.65477,-1.58568 h -1.01161 c -0.0868,-0.42314 -0.13422,-0.86118 -0.13422,-1.30953 0,-0.44835 0.0475,-0.88638 0.13422,-1.30953 h 1.01161 c 0.1375,-0.56882 0.35849,-1.1 0.65477,-1.58584 l -0.71533,-0.71614 c 0.24226,-0.367 0.52872,-0.70257 0.83809,-1.01276 0.31102,-0.3102 0.64659,-0.59567 1.01325,-0.83892 l 0.71697,0.71615 c 0.48453,-0.29727 1.01652,-0.51743 1.58453,-0.65477 v -1.01292 c 0.42396,-0.0859 0.86102,-0.13291 1.30953,-0.13291 0.44851,0 0.88721,0.047 1.30953,0.13291 v 1.01292 c 0.56964,0.13734 1.1,0.3575 1.58616,0.65477 l 0.71697,-0.71615 c 0.36667,0.24325 0.70224,0.52872 1.01162,0.83892 0.31101,0.31019 0.59583,0.64576 0.83973,1.01276 l -0.71696,0.71614 c 0.29791,0.48584 0.51726,1.01702 0.65476,1.58584 h 1.01325 c 0.0868,0.42315 0.13259,0.86118 0.13259,1.30953 0,0.44835 -0.0458,0.88639 -0.13259,1.30953 h -1.01325 c -0.1375,0.56883 -0.35685,1.10001 -0.65476,1.58568 l 0.71696,0.71615 c -0.2439,0.36716 -0.52872,0.70272 -0.83973,1.01289 -0.30938,0.31022 -0.64495,0.59564 -1.01162,0.83891 l -0.71697,-0.71615 c -0.48616,0.29715 -1.01652,0.51744 -1.58616,0.65477 v 1.01283 c -0.42232,0.086 -0.86102,0.133 -1.30953,0.133 z m 0,-3.27382 c 1.80714,0 3.27383,-1.46667 3.27383,-3.27382 0,-1.80715 -1.46669,-3.27383 -3.27383,-3.27383 -1.80715,0 -3.27382,1.46668 -3.27382,3.27383 0,1.80715 1.46667,3.27382 3.27382,3.27382 z" /><path
           id="path58241-7"
           style="fill:#949096;stroke:#2c2c2c;stroke-width:0.327382;stroke-linecap:round;stroke-linejoin:round;stroke-dashoffset:162"
           d="m 277.80619,444.19514 c -0.44851,0 -0.88557,-0.047 -1.30953,-0.133 v -1.01283 c -0.56801,-0.13733 -1.1,-0.35762 -1.58453,-0.65477 l -0.71697,0.71615 c -0.36666,-0.24327 -0.70223,-0.52869 -1.01325,-0.83891 -0.30937,-0.31017 -0.59583,-0.64573 -0.83809,-1.01289 l 0.71533,-0.71615 c -0.29628,-0.48567 -0.51727,-1.01685 -0.65477,-1.58568 h -1.01161 c -0.0868,-0.42314 -0.13422,-0.86118 -0.13422,-1.30953 0,-0.44835 0.0475,-0.88638 0.13422,-1.30953 h 1.01161 c 0.1375,-0.56882 0.35849,-1.1 0.65477,-1.58584 l -0.71533,-0.71614 c 0.24226,-0.367 0.52872,-0.70257 0.83809,-1.01276 0.31102,-0.3102 0.64659,-0.59567 1.01325,-0.83892 l 0.71697,0.71615 c 0.48453,-0.29727 1.01652,-0.51743 1.58453,-0.65477 v -1.01292 c 0.42396,-0.0859 0.86102,-0.13291 1.30953,-0.13291 0.44851,0 0.88721,0.047 1.30953,0.13291 v 1.01292 c 0.56964,0.13734 1.1,0.3575 1.58617,0.65477 l 0.71696,-0.71615 c 0.36667,0.24325 0.70224,0.52872 1.01162,0.83892 0.31101,0.31019 0.59583,0.64576 0.83973,1.01276 l -0.71696,0.71614 c 0.29791,0.48584 0.51726,1.01702 0.65476,1.58584 h 1.01325 c 0.0868,0.42315 0.13259,0.86118 0.13259,1.30953 0,0.44835 -0.0458,0.88639 -0.13259,1.30953 H 283.208 c -0.1375,0.56883 -0.35685,1.10001 -0.65476,1.58568 l 0.71696,0.71615 c -0.2439,0.36716 -0.52872,0.70272 -0.83973,1.01289 -0.30938,0.31022 -0.64495,0.59564 -1.01162,0.83891 l -0.71696,-0.71615 c -0.48617,0.29715 -1.01653,0.51744 -1.58617,0.65477 v 1.01283 c -0.42232,0.086 -0.86102,0.133 -1.30953,0.133 z m 0,-3.27382 c 1.80715,0 3.27383,-1.46667 3.27383,-3.27382 0,-1.80715 -1.46668,-3.27383 -3.27383,-3.27383 -1.80715,0 -3.27382,1.46668 -3.27382,3.27383 0,1.80715 1.46667,3.27382 3.27382,3.27382 z" /><path
           d="m 280.63562,431.03355 c -0.44851,0 -0.88557,-0.047 -1.30953,-0.133 v -1.01283 c -0.56801,-0.13733 -1.1,-0.35762 -1.58453,-0.65477 l -0.71697,0.71615 c -0.36666,-0.24327 -0.70223,-0.52869 -1.01325,-0.83891 -0.30937,-0.31017 -0.59583,-0.64573 -0.83809,-1.01289 l 0.71533,-0.71615 c -0.29628,-0.48567 -0.51727,-1.01685 -0.65477,-1.58568 h -1.01161 c -0.0868,-0.42314 -0.13422,-0.86118 -0.13422,-1.30953 0,-0.44835 0.0475,-0.88638 0.13422,-1.30953 h 1.01161 c 0.1375,-0.56882 0.35849,-1.1 0.65477,-1.58584 l -0.71533,-0.71614 c 0.24226,-0.367 0.52872,-0.70257 0.83809,-1.01276 0.31102,-0.3102 0.64659,-0.59567 1.01325,-0.83892 l 0.71697,0.71615 c 0.48453,-0.29727 1.01652,-0.51743 1.58453,-0.65477 v -1.01292 c 0.42396,-0.0859 0.86102,-0.13291 1.30953,-0.13291 0.44851,0 0.88721,0.047 1.30953,0.13291 v 1.01292 c 0.56964,0.13734 1.1,0.3575 1.58617,0.65477 l 0.71696,-0.71615 c 0.36667,0.24325 0.70224,0.52872 1.01162,0.83892 0.31101,0.31019 0.59583,0.64576 0.83973,1.01276 l -0.71696,0.71614 c 0.29791,0.48584 0.51726,1.01702 0.65476,1.58584 h 1.01325 c 0.0868,0.42315 0.13259,0.86118 0.13259,1.30953 0,0.44835 -0.0458,0.88639 -0.13259,1.30953 h -1.01325 c -0.1375,0.56883 -0.35685,1.10001 -0.65476,1.58568 l 0.71696,0.71615 c -0.2439,0.36716 -0.52872,0.70272 -0.83973,1.01289 -0.30938,0.31022 -0.64495,0.59564 -1.01162,0.83891 l -0.71696,-0.71615 c -0.48617,0.29715 -1.01653,0.51744 -1.58617,0.65477 v 1.01283 c -0.42232,0.086 -0.86102,0.133 -1.30953,0.133 z m 0,-3.27382 c 1.80715,0 3.27383,-1.46667 3.27383,-3.27382 0,-1.80715 -1.46668,-3.27383 -3.27383,-3.27383 -1.80715,0 -3.27382,1.46668 -3.27382,3.27383 0,1.80715 1.46667,3.27382 3.27382,3.27382 z"
           style="fill:#949096;stroke:#2c2c2c;stroke-width:0.327382;stroke-linecap:round;stroke-linejoin:round;stroke-dashoffset:162"
           id="path58241-7-5" /></g><path
         id="path152"
         style="fill:#ffffff;fill-opacity:1;fill-rule:evenodd;stroke:none;stroke-width:0.1"
         d="m 279.093,456.601 c 0,1.137 0.922,2.058 2.058,2.058 1.136,0 2.057,-0.921 2.057,-2.058 v -20.263 h 13.858 c 1.137,0 2.059,-0.921 2.059,-2.058 0,-1.136 -0.922,-2.058 -2.059,-2.058 h -15.915 c -1.136,0 -2.058,0.922 -2.058,2.058 v 22.321" /></g><g
       id="g1639"
       data-machinetype="wheel_and_axle"
       data-question="What simple machine do roller skates ride on?"><g
         id="g1575"
         transform="matrix(0.53946843,-0.01964098,-0.01964098,-0.53946843,495.46884,193.23724)"
         style="fill-rule:evenodd"><path
           id="path5223"
           d="m 112.05,249.27 a 27.343,27.343 0 1 0 -54.686,0 27.343,27.343 0 1 0 54.686,0 z"
           fill-opacity="0.75"
           transform="matrix(0.32735,0,0,0.32735,23.769,8.2681)"
           stroke="#e2ddcd"
           stroke-width="3.7"
           fill="#979679" /><path
           style="fill:url(#linearGradient5413)"
           id="path5412"
           stroke-width="1pt"
           fill="url(#linearGradient5413)"
           transform="matrix(0.32735,0,0,0.32735,-16.231,-181.6)"
           d="m 186.67,822.23 c 0,0 -6.07,22.75 14.4,25.78 20.47,3.03 28.81,-7.2 29.19,-17.82 0.38,-10.61 -36.77,-31.46 -43.59,-7.96 z" /><path
           id="path5224"
           d="m 112.05,249.27 a 27.343,27.343 0 1 0 -54.686,0 27.343,27.343 0 1 0 54.686,0 z"
           fill-opacity="0.75"
           transform="matrix(0.32735,0,0,0.32735,45.705,8.4436)"
           stroke="#e2ddcd"
           stroke-width="3.7"
           fill="#979679" /><path
           style="fill:url(#linearGradient5417)"
           id="path5414"
           stroke-width="1pt"
           fill="url(#linearGradient5417)"
           transform="matrix(0.32735,0,0,0.32735,-16.231,-181.6)"
           d="m 255.76,819.94 c -0.38,4.55 -2.27,24.61 16.3,26.54 18.2,1.89 26.92,-7.96 27.29,-18.58 0.38,-10.61 -36.77,-31.46 -43.59,-7.96 z" /><path
           id="path5225"
           d="m 112.05,249.27 a 27.343,27.343 0 1 0 -54.686,0 27.343,27.343 0 1 0 54.686,0 z"
           fill-opacity="0.75"
           transform="matrix(0.3148,0,0,0.3148,68.003,11.397)"
           stroke="#e1dccb"
           stroke-width="3.8475"
           fill="#979679" /><path
           style="fill:url(#linearGradient5418)"
           id="path5415"
           stroke-width="1pt"
           fill="url(#linearGradient5418)"
           transform="matrix(0.32735,0,0,0.32735,-16.231,-181.6)"
           d="m 318.36,823.34 c -0.38,4.55 -2.27,24.6 16.3,26.54 18.2,1.89 26.91,-7.96 27.29,-18.58 0.38,-10.61 -36.77,-31.46 -43.59,-7.96 z" /><path
           id="path5226"
           d="m 112.05,249.27 a 27.343,27.343 0 1 0 -54.686,0 27.343,27.343 0 1 0 54.686,0 z"
           fill-opacity="0.75"
           transform="matrix(0.2897,0,0,0.2897,89.878,16.374)"
           stroke="#e2ddcd"
           stroke-width="4.1809"
           fill="#979679" /><path
           style="fill:url(#linearGradient5419)"
           id="path5416"
           stroke-width="1pt"
           fill="url(#linearGradient5419)"
           transform="matrix(0.32735,0,0,0.32735,-16.231,-181.6)"
           d="m 378.1,815.57 c -0.38,4.55 -2.27,24.61 16.3,26.54 18.19,1.9 26.91,-7.96 27.29,-18.57 0.38,-10.62 -36.77,-31.47 -43.59,-7.97 z" /><path
           style="fill:url(#linearGradient5428);stroke:url(#linearGradient5431)"
           id="path5425"
           d="m 214.44,828.27 a 10.186,10.186 0 1 0 -20.37,0 10.186,10.186 0 1 0 20.37,0 z"
           transform="matrix(0.29331,0,0,0.29331,54.824,-154.41)"
           stroke="url(#linearGradient5431)"
           stroke-width="0.75334"
           fill="url(#linearGradient5428)" /><path
           style="fill:url(#linearGradient5422);stroke:url(#linearGradient5421)"
           id="path5423"
           d="m 214.44,828.27 a 10.186,10.186 0 1 0 -20.37,0 10.186,10.186 0 1 0 20.37,0 z"
           transform="matrix(0.29331,0,0,0.29331,13.335,-152.92)"
           stroke="url(#linearGradient5421)"
           stroke-width="0.75334"
           fill="url(#linearGradient5422)" /><path
           style="fill:url(#linearGradient5429);stroke:url(#linearGradient5432)"
           id="path5420"
           d="m 214.44,828.27 a 10.186,10.186 0 1 0 -20.37,0 10.186,10.186 0 1 0 20.37,0 z"
           transform="matrix(0.29331,0,0,0.29331,-8.2812,-153.26)"
           stroke="url(#linearGradient5432)"
           stroke-width="0.75334"
           fill="url(#linearGradient5429)" /><path
           style="fill:url(#linearGradient5427);stroke:url(#linearGradient5430)"
           id="path5424"
           d="m 214.44,828.27 a 10.186,10.186 0 1 0 -20.37,0 10.186,10.186 0 1 0 20.37,0 z"
           transform="matrix(0.29331,0,0,0.29331,35.149,-153.64)"
           stroke="url(#linearGradient5430)"
           stroke-width="0.75334"
           fill="url(#linearGradient5427)" /><path
           style="fill:url(#linearGradient5405)"
           id="path5227"
           stroke-width="1pt"
           fill="url(#linearGradient5405)"
           transform="matrix(0.32735,0,0,0.32735,-16.231,-181.6)"
           d="m 184.92,786.95 -3.75,14.47 c -1.85,7.13 22.66,26.75 30.02,26.81 l 66.48,0.53 c 7.04,0.06 13.98,-3.95 19.3,-8.57 l 12.33,-10.73 13.93,10.19 c 5.94,4.34 12.49,9.73 19.84,9.65 l 49.86,-0.54 c 14.86,-0.16 24.52,-14.4 2.14,-20.37 l -16.08,-4.29 c -5.51,-1.46 -5.68,-11.21 8.04,-12.33 L 220.3,791.24 c -13.57,-0.05 -31.97,-17.43 -35.38,-4.29 z" /><path
           id="path5212"
           stroke-width="1pt"
           fill="#767676"
           transform="matrix(0.32735,0,0,0.32735,-16.231,-181.6)"
           d="m 262.12,636.3 c 4.82,-4.82 20.37,-31.63 38.6,-25.2 11.26,-2.68 -3.22,30.03 -9.12,33.24 -5.89,3.22 -34.84,-1.07 -29.48,-8.04 z" /><path
           id="path5213"
           stroke-width="1pt"
           fill="#9b9a85"
           transform="matrix(0.32735,0,0,0.32735,-16.231,-181.6)"
           d="m 214.4,640.05 c 0,0 3.22,-21.98 0,-24.12 -3.21,-2.14 18.77,-6.43 32.17,4.82 13.4,11.26 13.94,18.23 27.34,17.7 13.41,-0.54 23.59,3.21 21.45,11.79 -2.15,8.58 -0.54,18.76 -5.9,21.98 -5.36,3.22 -45.03,9.65 -49.32,-3.75 -4.29,-13.4 -18.23,-26.81 -21.98,-25.74 -3.76,1.08 -3.76,-2.68 -3.76,-2.68 z" /><path
           id="path5214"
           stroke-width="1pt"
           fill="#525252"
           transform="matrix(0.32735,0,0,0.32735,-16.231,-181.6)"
           d="m 245.5,736.02 -8.58,32.7 12.33,16.62 86.32,2.14 9.11,-25.19 z" /><path
           id="path5215"
           stroke-width="1pt"
           fill="#313131"
           transform="matrix(0.32735,0,0,0.32735,-16.231,-181.6)"
           d="m 187.06,792.85 c -6.33,-5.29 -0.44,-16.89 2.68,-21.99 3.13,-5.09 -1.43,-20.46 13.41,-25.19 13.86,-4.43 15.96,-9.17 26.8,-6.44 11.35,2.86 8.4,40.33 20.91,41.28 l 70.23,5.37 -9.11,10.18 -77.2,2.15 c -42,-2.33 -41.08,0.18 -47.72,-5.36 z" /><path
           id="path5222"
           stroke-width="1pt"
           transform="matrix(0.32735,0,0,0.32735,-16.231,-181.6)"
           d="m 198.32,725.83 c 0,0 -8.58,25.2 -4.29,31.63 4.29,6.44 14.48,0.54 15.55,-3.75 1.07,-4.29 -8.04,-35.92 -11.26,-27.88 z" /><path
           id="path5216"
           stroke-width="1pt"
           fill="#767676"
           transform="matrix(0.32735,0,0,0.32735,-16.231,-181.6)"
           d="m 289.46,703.32 c 0,0 15.55,25.73 50.93,31.09 35.38,5.36 55.22,21.44 55.22,21.44 0,0 12.87,9.12 -4.83,11.26 -17.69,2.15 -53.61,-3.75 -61.65,-0.53 -8.04,3.21 -36.45,4.28 -47.18,-1.61 -10.72,-5.9 -41.81,-30.56 -40.2,-35.92 1.6,-5.36 -1.61,-42.35 47.71,-25.73 z" /><path
           id="path5217"
           stroke-width="1pt"
           fill="#5b5b5b"
           transform="matrix(0.32735,0,0,0.32735,-16.231,-181.6)"
           d="m 305.01,800.35 33.77,-34.85 c 3.78,-3.89 10.13,-5.03 15.55,-4.82 l 28.41,1.07 13.94,-7.5 c 4.3,-2.32 6.18,8.53 5.9,13.4 l -1.07,18.76 c -0.36,6.31 -7.62,12.79 -13.94,12.87 z" /><path
           id="path5218"
           stroke-width="1pt"
           fill="#999999"
           transform="matrix(0.32735,0,0,0.32735,-16.231,-181.6)"
           d="m 224.59,768.18 -24.12,-26.26 c -6.9,-7.51 -1.98,-20.48 -0.54,-30.56 l 5.36,-37.53 -0.54,-30.56 c 0,0 27.35,-13.67 37,6.43 9.65,20.11 30.02,24.13 39.67,22.52 4.82,-1.61 10.72,-3.75 10.72,13.94 0,17.69 -2.14,19.84 -15.01,21.98 -12.87,2.14 -23.05,0 -27.88,19.3 -4.82,19.3 -2.68,46.11 -24.66,40.74 z" /><path
           style="fill:url(#linearGradient5231)"
           id="path5219"
           stroke-width="1pt"
           fill="url(#linearGradient5231)"
           transform="matrix(0.32735,0,0,0.32735,-16.231,-181.6)"
           d="m 211.19,649.7 c -4.56,2.68 2.68,13.41 -2.15,26.27 -4.82,12.87 -8.57,52.01 -2.14,58.44 6.43,6.43 10.19,-6.97 17.15,-2.14 6.97,4.82 20.38,9.11 17.7,-4.83 -2.68,-13.94 -13.94,3.22 -16.09,-9.11 -2.14,-12.33 21.45,-92.21 -14.47,-68.63 z" /><path
           id="path5220"
           stroke-width="1pt"
           fill="#d3d3d3"
           transform="matrix(0.32735,0,0,0.32735,-16.231,-181.6)"
           d="m 281.95,684.55 -3.21,15.55 c 0,0 19.3,5.36 20.37,1.07 1.07,-4.29 4.29,-16.08 0,-14.47 -4.29,1.6 -17.16,-2.15 -17.16,-2.15 z" /><path
           id="path5221"
           stroke-width="1pt"
           fill="#585858"
           transform="matrix(0.32735,0,0,0.32735,-16.231,-181.6)"
           d="m 248.18,682.68 -1.61,14.47 c -0.8,7.24 28.95,6.17 32.7,5.09 3.76,-1.07 8.58,-19.83 4.29,-19.83 -4.29,0 -35.92,-9.65 -35.38,0.27 z" /><path
           style="fill:url(#linearGradient5236)"
           id="path5237"
           stroke-width="1pt"
           fill="url(#linearGradient5236)"
           transform="matrix(0.32735,0,0,0.32735,-16.231,-181.6)"
           d="m 266.45,717.29 c 0,0 9.65,-11.25 20.9,-8.04 11.26,3.22 18.23,20.38 41.28,24.66 23.06,4.29 41.82,5.9 49.86,13.94 8.04,8.04 8.58,13.41 -3.75,12.33 -12.33,-1.07 -38.06,-4.82 -49.86,0.54 -11.79,5.36 -76.66,-16.62 -58.43,-43.43 z" /><path
           style="fill:url(#linearGradient5239)"
           id="path5238"
           stroke-width="1pt"
           fill="url(#linearGradient5239)"
           transform="matrix(0.32735,0,0,0.32735,-16.231,-181.6)"
           d="m 258.4,726.94 c 0,0 19.84,16.62 41.28,18.23 21.45,1.61 40.75,9.65 40.21,15.01 -0.53,5.36 -23.05,17.16 -41.28,10.19 -18.23,-6.97 -57.36,-30.02 -52.54,-33.78 4.83,-3.75 12.33,-9.65 12.33,-9.65 z" /><path
           style="fill:url(#linearGradient5402)"
           id="path5401"
           stroke-width="1pt"
           fill="url(#linearGradient5402)"
           transform="matrix(0.32735,0,0,0.32735,-16.231,-181.6)"
           d="m 205.6,642.51 12.86,-3.22 c 25.83,-6.46 24.26,30.94 48.79,32.17 l 21.44,1.07 v 3.22 l -21.71,-2.42 C 240.95,670.44 238.21,639.12 219,642.51 l -13.67,2.41 z" /><path
           style="fill:url(#linearGradient5404)"
           id="path5403"
           stroke-width="1pt"
           fill="url(#linearGradient5404)"
           transform="matrix(0.32735,0,0,0.32735,-16.231,-181.6)"
           d="m 263.5,681.38 c 0,0 -11.8,-2.15 -12.33,2.41 -0.54,4.55 -6.7,16.08 4.02,16.35 10.72,0.27 21.71,-18.5 8.31,-18.76 z" /><path
           style="fill:url(#linearGradient5434)"
           id="path1767"
           stroke-width="1pt"
           fill="url(#linearGradient5434)"
           d="m 74.921,28.922 c 0,0 4.557,-0.805 4.959,1.072 0.402,1.876 0.268,6.567 -1.742,7.639 -2.011,1.073 -9.516,0.402 -10.856,-1.474 -1.341,-1.876 -1.341,-9.248 0.536,-8.846 1.876,0.402 3.752,2.681 7.103,1.609 z" /><path
           style="fill:url(#linearGradient5435)"
           id="path1768"
           stroke-width="1pt"
           fill="url(#linearGradient5435)"
           d="m 76.902,27.369 c 0.284,-3.033 4.321,-8.426 5.278,-8.733 -2.453,-0.351 -3.774,-2.849 -12.084,8.275 4.691,0.938 6.806,0.458 6.806,0.458 z" /><path
           style="fill:url(#linearGradient5436)"
           id="path1572"
           stroke-width="1pt"
           fill="url(#linearGradient5436)"
           d="m 113.92,66.934 c 0,0 3.03,6.066 -0.95,10.615 -3.98,4.549 -18.009,2.464 -20.094,-0.569 -2.085,-3.032 5.307,-8.15 9.094,-8.15 3.79,0 10.43,0.189 11.95,-1.896 z" /></g></g><g
       id="g1234"
       data-machinetype="lever"
       data-question="What type of simple machine is on a light switch?"
       data-skipraster="true"><g
         transform="matrix(0.05379687,0,0,-0.05379687,330.18156,391.37558)"
         id="g7158"><rect
           x="803.78998"
           y="1500.9"
           width="122.95"
           height="196.89999"
           transform="matrix(4.4474,0,0,4.4778,-3465.3,-6654.8)"
           rx="11.246"
           style="fill:#343434;filter:url(#filter6958)"
           ry="10.881"
           id="rect2630" /><rect
           x="806.12"
           y="1502.1"
           width="119.19"
           height="192.96001"
           transform="matrix(4.5135,0,0,4.5234,-3524.4,-6728.8)"
           rx="10.902"
           style="fill:#bebebe;filter:url(#filter6978)"
           ry="10.663"
           id="rect2632" /><rect
           x="808.22998"
           y="1503.4"
           width="115.62"
           height="188.78999"
           transform="matrix(4.5472,0,0,4.5472,-3555.6,-6764.5)"
           rx="10.576"
           style="fill:#ececec;filter:url(#filter6982)"
           ry="10.433"
           id="rect2634" /><g
           transform="matrix(4.5472,0,0,4.5472,-4028.6,-5035.2)"
           id="g2636"><path
             d="m 945.49,1247.6 h 51.36 c 0.87,0 1.57,0.7 1.57,1.7 0,1 -0.7,0.3 -1.57,0.3 h -51.36 c -0.87,0 -1.58,0.7 -1.58,-0.3 0,-1 0.71,-1.7 1.58,-1.7 z"
             style="fill:#4b4b4b"
             sodipodi:nodetypes="ccccccccc"
             id="path2638" /><rect
             x="943.90997"
             y="1248.1"
             width="54.509998"
             height="21.49"
             ry="1.7327"
             rx="1.5743001"
             style="fill:#000000"
             id="rect2640" /><path
             d="m 948.21,1267.8 9.29,5.6 12.86,-5.4 z"
             transform="matrix(1.3226,0,0,1.3226,-310.55,-411.87)"
             style="fill:#000000;fill-rule:evenodd;filter:url(#filter6681)"
             id="path2642" /><rect
             x="945.78998"
             y="1249.3"
             width="50.759998"
             height="18.183001"
             ry="1.466"
             rx="1.466"
             style="fill:url(#linearGradient1203)"
             id="rect2644" /></g><g
           transform="matrix(4.5472,0,0,4.5472,-4028.6,-5214.7)"
           id="g2646"><path
             d="m 945.49,1247.6 h 51.36 c 0.87,0 1.57,0.7 1.57,1.7 0,1 -0.7,0.3 -1.57,0.3 h -51.36 c -0.87,0 -1.58,0.7 -1.58,-0.3 0,-1 0.71,-1.7 1.58,-1.7 z"
             style="fill:#4b4b4b"
             sodipodi:nodetypes="ccccccccc"
             id="path2648" /><rect
             x="943.90997"
             y="1248.1"
             width="54.509998"
             height="21.49"
             ry="1.7327"
             rx="1.5743001"
             style="fill:#000000"
             id="rect2650" /><path
             d="m 948.21,1267.8 9.29,5.6 12.86,-5.4 z"
             transform="matrix(1.3226,0,0,1.3226,-310.55,-411.87)"
             style="fill:#000000;fill-rule:evenodd;filter:url(#filter6681)"
             id="path2652" /><rect
             x="945.78998"
             y="1249.3"
             width="50.759998"
             height="18.183001"
             ry="1.466"
             rx="1.466"
             style="fill:url(#linearGradient1205)"
             id="rect2654" /></g><g
           transform="matrix(-4.5472,0,0,4.5472,4801.9,-5394.1)"
           id="g2656"><path
             d="m 945.49,1247.6 h 51.36 c 0.87,0 1.57,0.7 1.57,1.7 0,1 -0.7,0.3 -1.57,0.3 h -51.36 c -0.87,0 -1.58,0.7 -1.58,-0.3 0,-1 0.71,-1.7 1.58,-1.7 z"
             style="fill:#4b4b4b"
             sodipodi:nodetypes="ccccccccc"
             id="path2658" /><rect
             x="943.90997"
             y="1248.1"
             width="54.509998"
             height="21.49"
             ry="1.7327"
             rx="1.5743001"
             style="fill:#000000"
             id="rect2660" /><path
             d="m 948.21,1267.8 9.29,5.6 12.86,-5.4 z"
             transform="matrix(1.3226,0,0,1.3226,-307.91,-411.87)"
             style="fill:#000000;fill-rule:evenodd;filter:url(#filter6681)"
             id="path2662" /><rect
             x="945.78998"
             y="1249.3"
             width="50.759998"
             height="18.183001"
             ry="1.466"
             rx="1.466"
             style="fill:url(#linearGradient2725)"
             id="rect2664" /></g><g
           transform="matrix(4.5472,0,0,4.5472,-3555.6,-6764.5)"
           id="g2666"><circle
             r="5.4295697"
             cy="1660.3478"
             cx="867.84729"
             transform="matrix(0.81395,0,0,0.81395,162.34,189.33)"
             style="fill:url(#radialGradient1106);filter:url(#filter6848)"
             id="path2668" /><circle
             r="2.0203052"
             cy="1685.2228"
             cx="958.1297"
             transform="matrix(0.84532,0,0,0.84532,58.334,113.87)"
             style="fill:url(#radialGradient1108)"
             id="path2670" /><rect
             x="-327.31"
             y="-1742.8"
             width="1.1161"
             height="8.7778997"
             ry="0.11139"
             transform="matrix(0.73522,-0.61826,-0.61826,-0.73522,34.211,60.676)"
             style="fill:url(#linearGradient2735);filter:url(#filter6903)"
             id="rect2672" /></g><g
           transform="matrix(4.5472,0,0,4.5472,-3622.8,-6784.2)"
           id="g2674"><circle
             r="5.4295697"
             cy="1660.3478"
             cx="867.84729"
             transform="matrix(0.81395,0,0,0.81395,176.61,310.42)"
             style="fill:url(#radialGradient2731);filter:url(#filter6848)"
             id="path2676" /><circle
             r="2.0203052"
             cy="1685.2228"
             cx="958.1297"
             transform="matrix(0.84532,0,0,0.84532,72.603,234.96)"
             style="fill:url(#radialGradient2733)"
             id="path2678" /><rect
             x="-309.60001"
             y="-1860.7"
             width="1.1161"
             height="8.7778997"
             ry="0.11139"
             transform="matrix(0.79404,-0.60786,-0.60786,-0.79404,0,0)"
             style="fill:url(#linearGradient2741)"
             id="rect2680" /></g></g></g><g
       data-question="What type of machine is the pin fastening this sticky note to the wall?"
       data-machinetype="wedge"
       style="image-rendering:auto"
       id="stickynote"><flowRoot
         xml:space="preserve"
         id="flowRoot4211"
         style="font-style:normal;font-variant:normal;font-weight:bold;font-stretch:semi-condensed;font-size:45px;line-height:125%;font-family:Andy;-inkscape-font-specification:'Andy Bold Semi-Condensed';text-align:center;writing-mode:lr-tb;text-anchor:middle;opacity:1;fill:#e9e9a1;fill-opacity:1;fill-rule:nonzero;stroke:#a20000;stroke-width:1"><flowRegion
           id="flowRegion4213"><rect
             id="rect4215"
             width="287"
             height="165"
             x="382"
             y="35"
             style="font-style:normal;font-variant:normal;font-weight:bold;font-stretch:semi-condensed;font-family:Andy;-inkscape-font-specification:'Andy Bold Semi-Condensed'" /></flowRegion><flowPara
           id="flowPara4217" /></flowRoot><path
         id="path4147"
         d="m 417.4544,375.53334 8.79959,-33.09847 35.85657,9.53286 6.62477,8.40599 -7.14964,26.8924 z"
         style="fill:#ffff99;fill-opacity:1;fill-rule:evenodd;stroke:none;stroke-width:0.152214" /><path
         id="path4149"
         d="m 462.11056,351.96773 c 0.0897,2.18914 0.1561,4.3787 0.54824,6.56225 1.11297,-0.83892 3.31012,-0.24745 6.07653,1.84374 z"
         style="fill:url(#linearGradient4167);fill-opacity:1;fill-rule:evenodd;stroke:none;stroke-width:0.152214" /><path
         id="path4224"
         d="m 431.80972,364.06204 q -0.29076,0.80911 -0.33406,0.97197 -0.074,0.27822 0.0913,0.56193 0.16347,0.29049 0.42682,0.3605 0.31473,0.0837 0.59107,-0.0245 0.27453,-0.10138 0.34128,-0.35246 0.0433,-0.16287 0.21685,-0.945 0.23749,-1.0485 0.31507,-1.34029 0.0505,-0.19001 0.59948,-1.91859 0.55358,-1.72008 1.0695,-3.24674 0,0 0,0 0.21829,-0.8211 -0.44971,-0.99869 -0.62947,-0.16735 -0.87844,0.76911 -0.0108,0.0407 -0.0216,0.0814 0,0 -0.011,-0.0102 -0.36245,-0.52503 -0.94804,-0.93501 -0.58098,-0.40149 -1.26183,-0.5825 -1.23967,-0.32958 -2.12417,0.30714 -0.8863,0.6435 -1.23811,1.96676 -0.0505,0.19001 -0.18553,0.98239 -0.1843,1.05537 -0.29435,1.46931 -0.0992,0.37323 -0.39655,1.36223 -0.19607,0.6599 -0.24118,0.82955 -0.0902,0.33929 0.1126,0.61118 0.20742,0.28038 0.57996,0.37942 0.30189,0.0803 0.54691,-0.0653 0.25143,-0.14386 0.3254,-0.42208 0.0559,-0.21036 0.29161,-1.89872 0.18501,-1.31674 0.59274,-2.85036 0.23634,-0.88896 0.80944,-1.25972 0.57129,-0.36398 1.41272,-0.14027 0.49458,0.13149 1.02252,0.99114 0.11627,0.18349 0.51502,0.62372 -0.44021,1.65577 -0.69885,2.47341 -0.25864,0.81764 -0.7768,2.24925 z"
         style="font-style:normal;font-variant:normal;font-weight:bold;font-stretch:semi-condensed;font-size:90px;line-height:125%;font-family:Andy;-inkscape-font-specification:'Andy Bold Semi-Condensed';text-align:center;writing-mode:lr-tb;text-anchor:middle;fill:#000000;fill-opacity:1;fill-rule:nonzero;stroke:none;stroke-width:0.155452" /><path
         id="path4226"
         d="m 435.73117,361.80603 q -0.167,-0.0444 -0.32874,0.0724 -0.16353,0.12363 -0.21404,0.31364 -0.0253,0.095 0.0778,0.40576 0.0538,0.15963 0.0633,0.22753 l -0.24962,0.78371 q -0.0974,0.36644 0.065,0.63487 0.16708,0.27692 0.55247,0.37938 0.23766,0.0632 0.48108,-0.0247 0.24163,-0.0811 0.28673,-0.25072 0.0958,0.3379 0.44912,0.43182 0.4432,0.11783 1.31414,-0.26093 0.87555,-0.37027 1.52002,-0.98362 0.64266,-0.60655 0.81766,-1.26479 0.18763,-0.70574 -0.38174,-1.82344 -0.56475,-1.1092 -1.71862,-2.38229 -0.0313,-0.0374 -0.0377,-0.0391 0.79599,-2.47665 0.83027,-2.60558 0.074,-0.27823 -0.0746,-0.52117 -0.14037,-0.24802 -0.41657,-0.32145 -0.72581,-0.19297 -0.98019,0.76385 -0.0541,0.20358 -0.1864,0.77872 -0.16995,0.76857 -0.26557,1.12822 -0.16417,0.61752 -0.85841,2.45279 -0.61724,1.62323 -0.74533,2.10504 z m 1.14715,0.98795 q 0.0794,-0.29859 0.23476,-0.83126 0.168,-0.58018 0.26001,-0.92626 0.10825,-0.40716 0.44974,-1.35535 0.17846,-0.4902 0.20733,-0.59878 0.17985,0.0478 0.50578,0.60673 0.33054,0.56741 0.46862,1.13451 0.14449,0.5688 0.038,0.96917 -0.11907,0.44787 -0.4553,0.91067 -0.32981,0.4645 -0.73634,0.77782 -0.40653,0.31333 -0.60564,0.26039 -0.23766,-0.0632 -0.34253,-0.36715 -0.0984,-0.30227 -0.0245,-0.58049 z"
         style="font-style:normal;font-variant:normal;font-weight:bold;font-stretch:semi-condensed;font-size:90px;line-height:125%;font-family:Andy;-inkscape-font-specification:'Andy Bold Semi-Condensed';text-align:center;writing-mode:lr-tb;text-anchor:middle;fill:#000000;fill-opacity:1;fill-rule:nonzero;stroke:none;stroke-width:0.155452" /><path
         id="path4228"
         d="m 444.45924,369.69192 q 0.33376,-1.2554 0.8408,-2.92973 0.38233,-1.25702 0.66991,-1.95071 0.28578,-0.68691 0.99959,-2.23362 0.59848,-1.294 0.64538,-1.47044 0.0938,-0.35287 -0.0343,-0.51771 -0.12168,-0.16313 -0.48138,-0.25876 -0.29546,-0.0785 -0.46845,-0.0228 -0.17119,0.0489 -0.25021,0.21684 -0.0327,0.0712 -0.13798,0.31206 -0.1071,0.24762 -0.3241,0.72758 0.0406,-0.35974 -0.39984,-0.69481 -0.43584,-0.32658 -1.14238,-0.51442 -1.0534,-0.28006 -1.85368,0.11749 -0.80209,0.40433 -1.00956,1.18471 -0.41134,1.5472 0.56197,3.03385 0.40221,0.60826 0.98824,1.12008 0.58422,0.5186 0.86042,0.59203 -0.0543,0.15266 -0.38443,0.98037 -0.62106,1.58589 -0.66075,1.73518 -0.0776,0.29179 0.10956,0.54498 0.19176,0.26169 0.61569,0.37439 0.71297,0.18955 0.85549,-0.34654 z m 0.1021,-5.06603 q -0.18828,0.55299 -0.32266,0.85148 -0.0725,-0.24452 -0.37283,-0.38248 -0.0432,-0.0187 -0.0606,-0.0307 -0.6613,-0.5391 -0.81525,-1.17581 -0.15395,-0.6367 0.0878,-1.54602 0.13351,-0.50216 0.52077,-0.82061 0.38725,-0.31845 0.83045,-0.20062 0.34685,0.0922 0.54842,0.29112 0.19977,0.20569 0.29324,0.63014 0.002,0.14597 0.12652,0.22255 -0.59501,1.46203 -0.83583,2.1609 z"
         style="font-style:normal;font-variant:normal;font-weight:bold;font-stretch:semi-condensed;font-size:90px;line-height:125%;font-family:Andy;-inkscape-font-specification:'Andy Bold Semi-Condensed';text-align:center;writing-mode:lr-tb;text-anchor:middle;fill:#000000;fill-opacity:1;fill-rule:nonzero;stroke:none;stroke-width:0.155452" /><path
         id="path4230"
         d="m 448.10807,361.76165 q -0.31572,1.18754 0.77061,2.74057 0.13373,0.1954 0.37811,0.54373 0.25079,0.35003 0.49877,0.68479 0.24618,0.34154 0.39954,0.41137 -0.17789,0.41044 -0.41806,0.61541 -0.24018,0.20498 -0.49711,0.13667 -0.2505,-0.0666 -0.54582,-0.32675 -0.29071,-0.25166 -0.42004,-0.48948 -0.18014,-0.33126 -0.27649,-0.35687 -0.19912,-0.0529 -0.44514,0.0706 -0.2396,0.1252 -0.30094,0.35593 -0.0848,0.31894 0.2788,0.68443 0.3636,0.36549 0.90322,0.74146 0.53782,0.38274 0.81401,0.45617 0.62305,0.16565 1.16662,-0.24929 0.5482,-0.40644 1.08296,-1.38317 0.47601,-0.78164 0.87472,-2.28134 0.17681,-0.66502 0.21613,-1.33027 0.0257,-0.40729 -0.0443,-0.50584 -0.0655,-0.0901 -0.21984,-0.18196 -0.14795,-0.0902 -0.26999,-0.12264 -0.29546,-0.0785 -0.51781,0.008 -0.21774,0.0947 -0.28449,0.34578 l -0.0705,0.44625 q -0.24243,-0.53672 -0.7612,-0.96526 -0.52056,-0.42176 -1.07295,-0.56862 -1.02771,-0.27322 -1.23879,0.52073 z m 2.42346,3.45609 q -1.41752,-1.62654 -1.17757,-2.52907 0.0848,-0.31894 0.41237,-0.23185 0.46247,0.12295 0.82636,0.77188 0.0803,0.1376 0.22669,0.2855 0.14636,0.1479 0.16563,0.15302 0,0 0,0 0.002,-0.007 0.002,-0.007 -0.27603,1.03825 -0.45529,1.55731 z"
         style="font-style:normal;font-variant:normal;font-weight:bold;font-stretch:semi-condensed;font-size:90px;line-height:125%;font-family:Andy;-inkscape-font-specification:'Andy Bold Semi-Condensed';text-align:center;writing-mode:lr-tb;text-anchor:middle;fill:#000000;fill-opacity:1;fill-rule:nonzero;stroke:none;stroke-width:0.155452" /><path
         id="path4232"
         d="m 453.22711,367.36571 q -0.0624,-0.0238 -0.20013,-0.075 -0.24971,-0.0955 -0.37817,-0.1296 -0.16058,-0.0427 -0.32332,0.0521 -0.15813,0.10328 -0.19601,0.24578 -0.065,0.2443 0.009,0.43111 0.0741,0.18682 0.26682,0.23805 0.0899,0.0239 0.25433,0.10394 0.14513,0.0749 0.21579,0.0937 -0.11186,0.42073 -0.41229,1.11101 -0.22963,0.52746 -0.29639,0.77854 -0.0776,0.29179 0.06,0.52454 0.13756,0.23274 0.43302,0.31129 0.32116,0.0854 0.5718,-0.0296 0.25065,-0.115 0.31199,-0.34572 0.0271,-0.10179 0.19369,-0.57335 0.3088,-0.87696 0.40622,-1.2434 0.067,0.0324 0.16542,0.1021 0.14895,0.11226 0.27099,0.1447 0.21197,0.0564 0.39838,-0.0757 0.19103,-0.12359 0.25418,-0.3611 0.0307,-0.11536 0.0128,-0.2291 -0.0197,-0.10696 -0.0788,-0.19531 -0.059,-0.0883 -0.63676,-0.37273 0.0595,-0.22393 0.32179,-1.05514 0.26225,-0.83121 0.36371,-1.10939 0.11511,-0.30362 0.40363,-1.20777 0.28852,-0.90415 0.34805,-1.12808 0.0559,-0.21037 -0.0798,-0.4499 -0.13395,-0.24631 -0.36518,-0.30779 -0.34043,-0.0905 -0.61135,-0.003 -0.12904,0.0456 -0.22033,0.13033 -0.0849,0.0864 -0.29199,0.73612 -0.33824,1.0653 -0.4952,1.65568 -0.083,0.31215 -0.42563,1.41988 -0.21794,0.69042 -0.25041,0.81256 z"
         style="font-style:normal;font-variant:normal;font-weight:bold;font-stretch:semi-condensed;font-size:90px;line-height:125%;font-family:Andy;-inkscape-font-specification:'Andy Bold Semi-Condensed';text-align:center;writing-mode:lr-tb;text-anchor:middle;fill:#000000;fill-opacity:1;fill-rule:nonzero;stroke:none;stroke-width:0.155452" /><path
         id="path4234"
         d="m 461.34845,367.31612 q 0.11907,-0.44787 -0.96784,-1.92113 -0.0359,-0.0459 -0.1512,-0.20731 -0.91023,-1.31003 -1.18642,-1.38346 -0.55881,-0.14857 -1.11899,0.45812 -0.56017,0.6067 -0.79109,1.4753 l -0.0632,0.23751 q -0.0855,-0.0663 -0.25252,-0.11073 -0.0835,-0.0222 -0.20128,0.0845 -0.11959,0.11352 -0.15206,0.23567 -0.0722,0.27144 -0.0211,0.41578 0.0557,0.15284 0.3325,0.37902 -0.19665,0.73967 -0.21389,1.42532 -0.0126,0.69414 0.14631,1.20866 0.15893,0.51452 0.37089,0.57087 0.59093,0.1571 1.19644,0.0783 0.6055,-0.0788 1.07907,-0.35975 0.48,-0.27927 0.56118,-0.58463 0.0956,-0.35966 0.0701,-0.54809 -0.0191,-0.18673 -0.14002,-0.37871 -0.11626,-0.18349 -0.81214,-0.87709 -0.68303,-0.69018 -0.77158,-0.82271 l 0.0884,-0.33251 q 0.12629,-0.47501 0.35499,-0.79202 0.2287,-0.31701 0.38928,-0.27432 0.27619,0.0734 0.79374,1.07563 0.41954,0.80177 0.57254,1.00229 0.15301,0.20052 0.31358,0.24322 0.46247,0.12295 0.57433,-0.29778 z m -3.38712,1.8241 q -0.11561,-0.0307 -0.11497,-0.52463 -10e-4,-0.48711 0.0836,-0.80605 0.0819,0.0799 0.35053,0.31116 0.45353,0.38941 0.54569,0.50836 -0.0613,0.23072 -0.32822,0.4068 -0.26688,0.17608 -0.53666,0.10436 z"
         style="font-style:normal;font-variant:normal;font-weight:bold;font-stretch:semi-condensed;font-size:90px;line-height:125%;font-family:Andy;-inkscape-font-specification:'Andy Bold Semi-Condensed';text-align:center;writing-mode:lr-tb;text-anchor:middle;fill:#000000;fill-opacity:1;fill-rule:nonzero;stroke:none;stroke-width:0.155452" /><g
         id="g3380"><ellipse
           style="fill:url(#radialGradient4277);fill-opacity:1;stroke:#c30000;stroke-width:4.27066;stroke-linecap:round;stroke-linejoin:round;stroke-miterlimit:4;stroke-dasharray:none;stroke-opacity:1;filter:url(#filter3591)"
           id="ellipse3726"
           cx="63.899811"
           cy="248.24268"
           rx="89.51403"
           ry="71.204697"
           transform="matrix(0.03485361,0.00811132,0.00834555,-0.03450539,434.521,385.26409)" /><path
           id="rect3717"
           d="m 435.38966,381.0867 c 0.69041,-0.2381 1.2491,-1.55711 1.7533,-3.32415 0.34432,-1.20676 1.44344,-0.85699 1.83801,-0.6502 0.36931,0.19355 1.2,0.82996 0.39611,1.80016 -1.17713,1.42066 -1.95133,2.62875 -1.75329,3.32416 l -1.11706,-0.57499 z"
           style="fill:url(#linearGradient4287);fill-opacity:1;stroke:#c30000;stroke-width:0.152213;stroke-linecap:round;stroke-linejoin:round;stroke-miterlimit:4;stroke-dasharray:none;stroke-opacity:1" /><ellipse
           transform="matrix(0.03485361,0.00811132,0.00834555,-0.03450539,434.521,385.26409)"
           ry="56.963757"
           rx="71.611221"
           cy="101.36741"
           cx="32.698029"
           id="path3715"
           style="fill:#f30000;fill-opacity:1;stroke:#c30000;stroke-width:4.27066;stroke-linecap:round;stroke-linejoin:round;stroke-miterlimit:4;stroke-dasharray:none;stroke-opacity:1;filter:url(#filter3591)" /></g></g><g
       id="g1899"
       data-question="What type of simple machine are the fan blades?"
       data-machinetype="inclined_plane"><g
         transform="matrix(0.10009968,0,0,-0.10009968,434.98466,336.03632)"
         id="g1852"
         style="enable-background:new"><g
           id="layer6"
           inkscape:label="Image"
           transform="translate(-49.37222,-95.193237)"
           style="display:none" /><g
           id="layer7"
           inkscape:label="Drawing"
           transform="translate(-107.94066,20.777939)"><path
             style="fill:#313e41;fill-opacity:1;stroke:#000000;stroke-width:1px;stroke-linecap:butt;stroke-linejoin:miter;stroke-opacity:0"
             d="m 405.11104,266.13438 70.71068,-10.6066 c 150.63194,-37.14303 251.75796,124.71241 45.07614,257.29738 -44.03235,28.24645 -110.76029,28.3546 -50.89389,-49.25373 9.41895,-12.21034 11.62381,-40.03333 -32.5,-95.35714 -43.42892,-54.45253 -45.35714,-52.85715 -45.35714,-52.85715 z"
             id="path4682"
             inkscape:connector-curvature="0"
             sodipodi:nodetypes="ccsssc" /><path
             id="path3946-6-0-6"
             d="m 403.5754,-6.89593 c -159.89316,0 -289.52093,129.62776 -289.52093,289.52092 0,159.89316 129.62777,289.52093 289.52093,289.52093 159.89316,0 289.52093,-129.62777 289.52093,-289.52093 l -0.11081,-8.27836 C 688.51278,117.73595 560.24994,-6.89593 403.5754,-6.89593 Z m 0,2.9196008 c 155.1098,0 282.06244,123.3872492 286.49046,278.4338292 l 0.14782,8.16749 c 0,158.29627 -128.34201,286.63828 -286.63828,286.63828 -158.29627,0 -286.63828,-128.34201 -286.63828,-286.63828 0,-158.29627 128.34201,-286.6013192 286.63828,-286.6013192 z"
             style="display:inline;fill:#dae1e7;fill-opacity:1;stroke:#dae1e7;stroke-width:5;stroke-miterlimit:4;stroke-dasharray:none;stroke-opacity:1"
             inkscape:connector-curvature="0" /><path
             id="path3946-6-0-6-9"
             d="M 654.30788,427.38546 C 734.25446,288.91392 686.80741,111.8391 548.33587,31.892517 409.86433,-48.054063 232.7895,-0.60700595 152.84292,137.86453 72.896343,276.33607 120.3434,453.4109 258.81494,533.35748 l 7.22467,4.04321 c 137.8652,74.43184 309.931,25.6689 388.26827,-110.01523 z m -2.52845,-1.4598 c -77.5549,134.32902 -247.88771,182.57961 -384.376,108.8911 l -7.14717,-3.95573 C 123.16767,451.71289 76.191236,276.39445 155.33937,139.30586 234.48751,2.2172664 409.80595,-44.75917 546.89454,34.388965 683.98314,113.5371 730.92756,288.83707 651.77943,425.92566 Z"
             style="display:inline;fill:#dae1e7;fill-opacity:1;stroke:#dae1e7;stroke-width:5;stroke-miterlimit:4;stroke-dasharray:none;stroke-opacity:1"
             inkscape:connector-curvature="0" /><g
             id="g4856"
             transform="translate(3.5753987,-5.423794)"><path
               sodipodi:nodetypes="ccsssc"
               inkscape:connector-curvature="0"
               id="path4682-7"
               d="m 401.53564,266.13438 70.71068,-10.6066 c 150.63194,-37.14303 251.75796,124.71241 45.07614,257.29738 -44.03235,28.24645 -110.76029,28.3546 -50.89389,-49.25373 9.41895,-12.21034 11.62381,-40.03333 -32.5,-95.35714 -43.42892,-54.45253 -45.35714,-52.85715 -45.35714,-52.85715 z"
               style="fill:#313e41;fill-opacity:1;stroke:#000000;stroke-width:1px;stroke-linecap:butt;stroke-linejoin:miter;stroke-opacity:0" /><path
               sodipodi:nodetypes="ccsssc"
               inkscape:connector-curvature="0"
               id="path4682-7-3"
               d="m 413.51347,292.20021 -26.16975,66.54054 c -43.14917,149.0226 -233.8831,155.67258 -245.36414,-89.61161 -2.44597,-52.25636 30.82434,-110.09852 68.10193,-19.44853 5.86499,14.26222 28.85797,30.08318 98.8317,19.53274 68.87174,-10.38428 68.45421,-12.85186 68.45421,-12.85186 z"
               style="fill:#313e41;fill-opacity:1;stroke:#000000;stroke-width:1px;stroke-linecap:butt;stroke-linejoin:miter;stroke-opacity:0" /><path
               sodipodi:nodetypes="ccsssc"
               inkscape:connector-curvature="0"
               id="path4682-7-3-4"
               d="m 387.25807,293.20569 -57.5,-42.5 C 196.98112,170.45691 239.92331,-15.499062 479.82115,36.895325 c 51.10883,11.162316 98.36908,58.26962 1.15976,70.815065 -15.29422,1.97381 -36.52711,20.08856 -44.4467,90.40864 -7.79488,69.21265 -5.30331,69.448 -5.30331,69.448 z"
               style="fill:#313e41;fill-opacity:1;stroke:#000000;stroke-width:1px;stroke-linecap:butt;stroke-linejoin:miter;stroke-opacity:0" /></g></g><g
           id="layer9"
           inkscape:label="Base"
           style="display:inline"
           transform="translate(-107.94066,20.777939)"><g
             transform="translate(4.3652564,-5.423794)"
             id="g4405"><g
               id="g4507"><path
                 sodipodi:arc-type="arc"
                 transform="matrix(1.0268138,0,0,0.76490902,-11.783701,186.12778)"
                 sodipodi:open="true"
                 sodipodi:end="6.2546338"
                 sodipodi:start="0"
                 d="m 411.63715,794.94922 a 10.606602,10.606602 0 0 1 -10.53089,10.60633 10.606602,10.606602 0 0 1 -10.68123,-10.45492 10.606602,10.606602 0 0 1 10.37841,-10.75558 10.606602,10.606602 0 0 1 10.82939,10.30138"
                 sodipodi:ry="10.606602"
                 sodipodi:rx="10.606602"
                 sodipodi:cy="794.94922"
                 sodipodi:cx="401.03055"
                 id="path4411"
                 style="fill:#19191b;fill-opacity:1;stroke:#000000;stroke-width:5;stroke-linecap:square;stroke-linejoin:round;stroke-miterlimit:4;stroke-dasharray:none;stroke-opacity:0"
                 sodipodi:type="arc" /><g
                 id="g4503"><path
                   sodipodi:arc-type="arc"
                   sodipodi:type="arc"
                   style="fill:#19191b;fill-opacity:1;stroke:#000000;stroke-width:5;stroke-linecap:square;stroke-linejoin:round;stroke-miterlimit:4;stroke-dasharray:none;stroke-opacity:0"
                   id="path4411-8"
                   sodipodi:cx="401.03055"
                   sodipodi:cy="794.94922"
                   sodipodi:rx="10.606602"
                   sodipodi:ry="10.606602"
                   d="m 411.63715,794.94922 a 10.606602,10.606602 0 0 1 -10.53089,10.60633 10.606602,10.606602 0 0 1 -10.68123,-10.45492 10.606602,10.606602 0 0 1 10.37841,-10.75558 10.606602,10.606602 0 0 1 10.82939,10.30138"
                   sodipodi:start="0"
                   sodipodi:end="6.2546338"
                   sodipodi:open="true"
                   transform="matrix(1.0268138,0,0,0.76490902,-143.7837,162.12778)" /><path
                   sodipodi:arc-type="arc"
                   sodipodi:type="arc"
                   style="fill:#19191b;fill-opacity:1;stroke:#000000;stroke-width:5;stroke-linecap:square;stroke-linejoin:round;stroke-miterlimit:4;stroke-dasharray:none;stroke-opacity:0"
                   id="path4411-8-9"
                   sodipodi:cx="401.03055"
                   sodipodi:cy="794.94922"
                   sodipodi:rx="10.606602"
                   sodipodi:ry="10.606602"
                   d="m 411.63715,794.94922 a 10.606602,10.606602 0 0 1 -10.53089,10.60633 10.606602,10.606602 0 0 1 -10.68123,-10.45492 10.606602,10.606602 0 0 1 10.37841,-10.75558 10.606602,10.606602 0 0 1 10.82939,10.30138"
                   sodipodi:start="0"
                   sodipodi:end="6.2546338"
                   sodipodi:open="true"
                   transform="matrix(1.0268138,0,0,0.76490902,130.2163,162.12778)" /></g></g><path
               sodipodi:arc-type="arc"
               transform="matrix(2.6429723,0,0,1.5279503,-722.98915,-386.83236)"
               sodipodi:open="true"
               sodipodi:end="6.2546338"
               sodipodi:start="0"
               d="m 490.68336,735.09772 a 65.787064,40.658642 0 0 1 -65.31748,40.6576 65.787064,40.658642 0 0 1 -66.24994,-40.07719 65.787064,40.658642 0 0 1 64.37173,-41.22973 65.787064,40.658642 0 0 1 67.16888,39.48861"
               sodipodi:ry="40.658642"
               sodipodi:rx="65.787064"
               sodipodi:cy="735.09772"
               sodipodi:cx="424.8963"
               id="path4346-5-1"
               style="fill:#19191b;fill-opacity:1;stroke:none"
               sodipodi:type="arc" /><path
               sodipodi:arc-type="arc"
               transform="matrix(2.6416151,0,0,1.3160166,-722.41249,-238.58592)"
               sodipodi:open="true"
               sodipodi:end="6.2546338"
               sodipodi:start="0"
               d="m 490.68336,735.09772 a 65.787064,40.658642 0 0 1 -65.31748,40.6576 65.787064,40.658642 0 0 1 -66.24994,-40.07719 65.787064,40.658642 0 0 1 64.37173,-41.22973 65.787064,40.658642 0 0 1 67.16888,39.48861"
               sodipodi:ry="40.658642"
               sodipodi:rx="65.787064"
               sodipodi:cy="735.09772"
               sodipodi:cx="424.8963"
               id="path4346-5"
               style="fill:#e7ebf0;fill-opacity:1;stroke:none"
               sodipodi:type="arc" /><path
               sodipodi:arc-type="arc"
               transform="matrix(2.6429723,0,0,1.0807453,-722.98915,-76.275769)"
               sodipodi:open="true"
               sodipodi:end="6.2546338"
               sodipodi:start="0"
               d="m 490.68336,735.09772 a 65.787064,40.658642 0 0 1 -65.31748,40.6576 65.787064,40.658642 0 0 1 -66.24994,-40.07719 65.787064,40.658642 0 0 1 64.37173,-41.22973 65.787064,40.658642 0 0 1 67.16888,39.48861"
               sodipodi:ry="40.658642"
               sodipodi:rx="65.787064"
               sodipodi:cy="735.09772"
               sodipodi:cx="424.8963"
               id="path4346"
               style="fill:#c3cdd1;fill-opacity:1;stroke:none"
               sodipodi:type="arc" /><path
               inkscape:connector-curvature="0"
               id="path4384"
               d="m 391.07812,331.78125 -24.75,343.96875 -14.65625,19.6875 h 32 32.65625 32 l -14.65625,-19.6875 -24.75,-343.96875 h -2.1875 -13.46875 z"
               style="fill:#c3cdd1;fill-opacity:1;stroke:#000000;stroke-width:1px;stroke-linecap:butt;stroke-linejoin:miter;stroke-opacity:0" /><g
               id="g4646"
               transform="translate(-5.2716579)"><path
                 sodipodi:arc-type="arc"
                 transform="translate(5.8083773,4.5456861)"
                 sodipodi:open="true"
                 sodipodi:end="6.2546338"
                 sodipodi:start="0"
                 d="m 379.05974,712.1167 a 9.5964489,9.5964489 0 0 1 -9.52795,9.5962 9.5964489,9.5964489 0 0 1 -9.66397,-9.45921 9.5964489,9.5964489 0 0 1 9.38999,-9.73124 9.5964489,9.5964489 0 0 1 9.79802,9.32029"
                 sodipodi:ry="9.5964489"
                 sodipodi:rx="9.5964489"
                 sodipodi:cy="712.1167"
                 sodipodi:cx="369.46329"
                 id="path4590"
                 style="fill:#19191b;fill-opacity:1;stroke:#000000;stroke-width:5;stroke-linecap:square;stroke-linejoin:round;stroke-miterlimit:4;stroke-dasharray:none;stroke-opacity:0"
                 sodipodi:type="arc" /><path
                 sodipodi:arc-type="arc"
                 transform="translate(25.808381,4.5456857)"
                 sodipodi:open="true"
                 sodipodi:end="6.2546338"
                 sodipodi:start="0"
                 d="m 379.05974,712.1167 a 9.5964489,9.5964489 0 0 1 -9.52795,9.5962 9.5964489,9.5964489 0 0 1 -9.66397,-9.45921 9.5964489,9.5964489 0 0 1 9.38999,-9.73124 9.5964489,9.5964489 0 0 1 9.79802,9.32029"
                 sodipodi:ry="9.5964489"
                 sodipodi:rx="9.5964489"
                 sodipodi:cy="712.1167"
                 sodipodi:cx="369.46329"
                 id="path4590-9"
                 style="fill:#4d4d4d;fill-opacity:1;stroke:#000000;stroke-width:5;stroke-linecap:square;stroke-linejoin:round;stroke-miterlimit:4;stroke-dasharray:none;stroke-opacity:0"
                 sodipodi:type="arc" /><path
                 sodipodi:arc-type="arc"
                 transform="translate(45.808382,4.545686)"
                 sodipodi:open="true"
                 sodipodi:end="6.2546338"
                 sodipodi:start="0"
                 d="m 379.05974,712.1167 a 9.5964489,9.5964489 0 0 1 -9.52795,9.5962 9.5964489,9.5964489 0 0 1 -9.66397,-9.45921 9.5964489,9.5964489 0 0 1 9.38999,-9.73124 9.5964489,9.5964489 0 0 1 9.79802,9.32029"
                 sodipodi:ry="9.5964489"
                 sodipodi:rx="9.5964489"
                 sodipodi:cy="712.1167"
                 sodipodi:cx="369.46329"
                 id="path4590-9-9"
                 style="fill:#999999;fill-opacity:1;stroke:#000000;stroke-width:5;stroke-linecap:square;stroke-linejoin:round;stroke-miterlimit:4;stroke-dasharray:none;stroke-opacity:0"
                 sodipodi:type="arc" /><path
                 sodipodi:arc-type="arc"
                 transform="translate(65.808382,4.545686)"
                 sodipodi:open="true"
                 sodipodi:end="6.2546338"
                 sodipodi:start="0"
                 d="m 379.05974,712.1167 a 9.5964489,9.5964489 0 0 1 -9.52795,9.5962 9.5964489,9.5964489 0 0 1 -9.66397,-9.45921 9.5964489,9.5964489 0 0 1 9.38999,-9.73124 9.5964489,9.5964489 0 0 1 9.79802,9.32029"
                 sodipodi:ry="9.5964489"
                 sodipodi:rx="9.5964489"
                 sodipodi:cy="712.1167"
                 sodipodi:cx="369.46329"
                 id="path4590-9-9-7"
                 style="fill:#e6e6e6;fill-opacity:1;stroke:#000000;stroke-width:5;stroke-linecap:square;stroke-linejoin:round;stroke-miterlimit:4;stroke-dasharray:none;stroke-opacity:0"
                 sodipodi:type="arc" /></g></g></g><g
           id="layer8"
           inkscape:label="Case"
           style="display:inline"
           transform="translate(-107.94066,20.777939)"><g
             transform="translate(7.940655,-5.4237968)"
             id="g4262"
             style="fill:#dae1e7;fill-opacity:1;stroke:#dae1e7;stroke-opacity:1"><path
               sodipodi:arc-type="arc"
               transform="matrix(1.2200379,0,0,1.2200379,-49.834914,-36.519542)"
               sodipodi:open="true"
               sodipodi:end="6.2546338"
               sodipodi:start="0"
               d="m 435.37576,261.58868 a 66.670067,66.670067 0 0 1 -66.19419,66.66837 66.670067,66.670067 0 0 1 -67.13915,-65.71663 66.670067,66.670067 0 0 1 65.23573,-67.60652 66.670067,66.670067 0 0 1 68.07043,64.75151"
               sodipodi:ry="66.670067"
               sodipodi:rx="66.670067"
               sodipodi:cy="261.58868"
               sodipodi:cx="368.70569"
               id="path3946"
               style="fill:#dae1e7;fill-opacity:1;stroke:#dae1e7;stroke-width:4.09823;stroke-miterlimit:4;stroke-dasharray:none;stroke-opacity:1"
               sodipodi:type="arc" /><path
               id="path3946-6"
               d="m 400,37.8125 c -135.20212,0 -244.8125,109.61038 -244.8125,244.8125 0,135.20212 109.61038,244.8125 244.8125,244.8125 135.20212,0 244.8125,-109.61038 244.8125,-244.8125 l -0.0937,-7 C 640.93675,143.19847 532.48053,37.8125 400,37.8125 Z m 0,2.46875 c 131.15742,0 238.50577,104.33354 242.25,235.4375 l 0.125,6.90625 C 642.375,416.47683 533.85183,525 400,525 266.14817,525 157.625,416.47683 157.625,282.625 157.625,148.77317 266.14817,40.28125 400,40.28125 Z"
               style="fill:#dae1e7;fill-opacity:1;stroke:#dae1e7;stroke-width:5;stroke-miterlimit:4;stroke-dasharray:none;stroke-opacity:1"
               inkscape:connector-curvature="0" /><path
               id="path3946-7"
               d="m 400,114.34375 c -92.93707,0 -168.28125,75.34418 -168.28125,168.28125 0,92.93707 75.34418,168.28125 168.28125,168.28125 92.93707,0 168.28125,-75.34418 168.28125,-168.28125 l -0.0625,-4.8125 C 565.61902,186.78335 491.06626,114.34375 400,114.34375 Z m 0,2.4375 c 89.74312,0 163.18805,71.41846 165.75,161.125 l 0.0937,4.71875 c 0,91.58674 -74.25701,165.84375 -165.84375,165.84375 -91.58674,0 -165.84375,-74.25701 -165.84375,-165.84375 0,-91.58674 74.25701,-165.84375 165.84375,-165.84375 z"
               style="fill:#dae1e7;fill-opacity:1;stroke:#dae1e7;stroke-width:5;stroke-linecap:square;stroke-linejoin:round;stroke-miterlimit:4;stroke-dasharray:none;stroke-opacity:1"
               inkscape:connector-curvature="0" /><path
               id="path3946-6-0"
               d="m 400,-6.8959246 c -159.89316,0 -289.52093,129.6277646 -289.52093,289.5209246 0,159.89316 129.62777,289.52093 289.52093,289.52093 159.89316,0 289.52093,-129.62777 289.52093,-289.52093 l -0.11081,-8.27836 C 684.93738,117.73596 556.67454,-6.8959246 400,-6.8959246 Z m 0,2.9196008 c 155.1098,0 282.06244,123.3872538 286.49046,278.4338338 l 0.14782,8.16749 C 686.63828,440.92127 558.29627,569.26328 400,569.26328 241.70373,569.26328 113.36172,440.92127 113.36172,282.625 113.36172,124.32873 241.70373,-3.9763238 400,-3.9763238 Z"
               style="fill:#dae1e7;fill-opacity:1;stroke:#dae1e7;stroke-width:5;stroke-miterlimit:4;stroke-dasharray:none;stroke-opacity:1"
               inkscape:connector-curvature="0" /><path
               inkscape:connector-curvature="0"
               id="path4077"
               d="M 400,572.98571 V -7.7285772"
               style="fill:#dae1e7;fill-opacity:1;stroke:#dae1e7;stroke-width:5;stroke-linecap:butt;stroke-linejoin:miter;stroke-miterlimit:4;stroke-dasharray:none;stroke-opacity:1" /><path
               inkscape:connector-curvature="0"
               id="path4077-6"
               d="M 324.85004,563.09203 475.14996,2.1650998"
               style="fill:#dae1e7;fill-opacity:1;stroke:#dae1e7;stroke-width:5;stroke-linecap:butt;stroke-linejoin:miter;stroke-miterlimit:4;stroke-dasharray:none;stroke-opacity:1" /><path
               inkscape:connector-curvature="0"
               id="path4077-2"
               d="M 254.82143,534.08523 545.17857,31.171901"
               style="fill:#dae1e7;fill-opacity:1;stroke:#dae1e7;stroke-width:5;stroke-linecap:butt;stroke-linejoin:miter;stroke-miterlimit:4;stroke-dasharray:none;stroke-opacity:1" /><path
               inkscape:connector-curvature="0"
               id="path4077-6-5"
               d="M 194.68649,487.94207 605.31351,77.315057"
               style="fill:#dae1e7;fill-opacity:1;stroke:#dae1e7;stroke-width:5;stroke-miterlimit:4;stroke-dasharray:none;stroke-opacity:1" /><path
               inkscape:connector-curvature="0"
               id="path4077-3"
               d="M 148.54334,427.80714 651.45666,137.44999"
               style="fill:#dae1e7;fill-opacity:1;stroke:#dae1e7;stroke-width:5;stroke-linecap:butt;stroke-linejoin:miter;stroke-miterlimit:4;stroke-dasharray:none;stroke-opacity:1" /><path
               inkscape:connector-curvature="0"
               id="path4077-6-8"
               d="M 119.53653,357.77852 680.46347,207.47861"
               style="fill:#dae1e7;fill-opacity:1;stroke:#dae1e7;stroke-width:5;stroke-linecap:butt;stroke-linejoin:miter;stroke-miterlimit:4;stroke-dasharray:none;stroke-opacity:1" /><path
               inkscape:connector-curvature="0"
               id="path4077-2-4"
               d="m 109.64286,282.62857 580.71429,-1e-5"
               style="fill:#dae1e7;fill-opacity:1;stroke:#dae1e7;stroke-width:5;stroke-linecap:butt;stroke-linejoin:miter;stroke-miterlimit:4;stroke-dasharray:none;stroke-opacity:1" /><path
               inkscape:connector-curvature="0"
               id="path4077-6-5-9"
               d="M 119.53653,207.4786 680.46347,357.77852"
               style="fill:#dae1e7;fill-opacity:1;stroke:#dae1e7;stroke-width:5;stroke-linecap:butt;stroke-linejoin:miter;stroke-miterlimit:4;stroke-dasharray:none;stroke-opacity:1" /><path
               inkscape:connector-curvature="0"
               id="path4077-6-5-9-4-5"
               d="M 148.54333,137.44999 651.45667,427.80713"
               style="fill:#dae1e7;fill-opacity:1;stroke:#dae1e7;stroke-width:5;stroke-linecap:butt;stroke-linejoin:miter;stroke-miterlimit:4;stroke-dasharray:none;stroke-opacity:1" /><path
               inkscape:connector-curvature="0"
               id="path4077-6-5-9-4-5-5"
               d="M 194.68649,77.315055 605.31351,487.94207"
               style="fill:#dae1e7;fill-opacity:1;stroke:#dae1e7;stroke-width:5;stroke-linecap:butt;stroke-linejoin:miter;stroke-miterlimit:4;stroke-dasharray:none;stroke-opacity:1" /><path
               inkscape:connector-curvature="0"
               id="path4077-6-5-9-4-5-5-1"
               d="M 254.82142,31.171901 545.17858,534.08523"
               style="fill:#dae1e7;fill-opacity:1;stroke:#dae1e7;stroke-width:5;stroke-linecap:butt;stroke-linejoin:miter;stroke-miterlimit:4;stroke-dasharray:none;stroke-opacity:1" /><path
               inkscape:connector-curvature="0"
               id="path4077-6-5-9-4-5-5-1-1"
               d="M 324.85003,2.1650966 475.14997,563.09203"
               style="fill:#dae1e7;fill-opacity:1;stroke:#dae1e7;stroke-width:5;stroke-linecap:butt;stroke-linejoin:miter;stroke-miterlimit:4;stroke-dasharray:none;stroke-opacity:1" /></g></g><g
           id="layer10"
           inkscape:label="Blades"
           transform="translate(-107.94066,20.777939)" /></g></g></g></svg>
