<?xml version="1.0" encoding="UTF-8" standalone="no"?>
<svg
   xmlns:dc="http://purl.org/dc/elements/1.1/"
   xmlns:cc="http://creativecommons.org/ns#"
   xmlns:rdf="http://www.w3.org/1999/02/22-rdf-syntax-ns#"
   xmlns:svg="http://www.w3.org/2000/svg"
   xmlns="http://www.w3.org/2000/svg"
   xmlns:xlink="http://www.w3.org/1999/xlink"
   xmlns:sodipodi="http://sodipodi.sourceforge.net/DTD/sodipodi-0.dtd"
   xmlns:inkscape="http://www.inkscape.org/namespaces/inkscape"
   inkscape:version="1.0 (1.0+r73+1)"
   height="410.64459"
   width="234.1252"
   sodipodi:docname="lightbulb.svg"
   id="svg357"
   version="1.1"
   viewBox="0 0 234.1252 410.6446">
  <metadata
     id="metadata361">
    <rdf:RDF>
      <cc:Work
         rdf:about="">
        <dc:format>image/svg+xml</dc:format>
        <dc:type
           rdf:resource="http://purl.org/dc/dcmitype/StillImage" />
        <dc:title></dc:title>
      </cc:Work>
    </rdf:RDF>
  </metadata>
  <sodipodi:namedview
     inkscape:current-layer="svg357"
     inkscape:window-maximized="1"
     inkscape:window-y="0"
     inkscape:window-x="0"
     inkscape:cy="241.2014"
     inkscape:cx="321.50052"
     inkscape:zoom="1.7061192"
     fit-margin-bottom="0"
     fit-margin-right="0"
     fit-margin-left="0"
     fit-margin-top="0"
     showgrid="false"
     id="namedview359"
     inkscape:window-height="1027"
     inkscape:window-width="1920"
     inkscape:pageshadow="2"
     inkscape:pageopacity="0"
     guidetolerance="10"
     gridtolerance="10"
     objecttolerance="10"
     borderopacity="1"
     bordercolor="#666666"
     pagecolor="#ffffff" />
  <defs
     id="defs169">
    <clipPath
       id="v">
      <path
         id="path2"
         d="m 565.09388,1139.0893 c 8.18657,-6.4984 16.37296,-12.997 22.72619,-21.1138 1.10679,-1.7006 -0.17632,-3.2298 -0.23026,-3.2456 -1.48574,-0.6885 -2.19324,-1.4928 -1.44103,-2.6323 0.27302,-0.4136 0.71511,-0.7634 1.25442,-0.9944 0.057,-0.035 0.10976,-0.077 0.1568,-0.1244 l 1.59913,-1.2117 c 0.0578,-0.026 0.10044,-0.065 0.15666,-0.093 1.02685,-0.5126 1.78979,-1.3089 2.13508,-2.2718 0.3642,-1.0157 0.24638,-2.2031 -0.39213,-3.1892 -0.42658,-0.6589 -1.06509,-1.1486 -1.80584,-1.508 l 0.0313,-0.031 -0.15579,-0.095 -1.58861,-1.1633 c -0.0497,-0.026 -0.10203,-0.047 -0.15597,-0.063 -1.48575,-0.6884 -1.92573,-2.022 -1.17352,-3.1615 0.27301,-0.4136 0.71511,-0.7634 1.25442,-0.9944 0.0569,-0.035 0.10976,-0.077 0.1568,-0.1243 l 1.59927,-1.2429 c 0.0578,-0.026 0.10044,-0.066 0.15666,-0.093 1.02685,-0.5126 1.78978,-1.3089 2.13508,-2.2718 0.3642,-1.0156 0.24638,-2.2032 -0.39213,-3.1893 -0.42658,-0.6588 -1.06509,-1.1485 -1.80584,-1.508 l 0.0313,-0.031 -0.15583,-0.095 -1.58861,-1.1632 c -0.0497,-0.026 -0.10204,-0.048 -0.15598,-0.063 -1.48574,-0.6885 -1.92572,-2.022 -1.17351,-3.1615 0.27301,-0.4136 0.7151,-0.7635 1.25441,-0.9945 0.057,-0.035 0.10976,-0.076 0.1568,-0.1243 l 1.59913,-1.2116 c 0.0578,-0.026 0.10044,-0.065 0.15667,-0.093 1.02685,-0.5127 1.78978,-1.309 2.13508,-2.2719 0.3642,-1.0156 0.24638,-2.2031 -0.39213,-3.1893 -0.42658,-0.6588 -1.06509,-1.1485 -1.80585,-1.508 l 0.0314,-0.031 -0.15583,-0.095 -1.58862,-1.1633 c -0.0497,-0.026 -0.10203,-0.047 -0.15597,-0.063 -1.48576,-0.6884 -1.92567,-2.0218 -1.17351,-3.1615 0.24886,-0.377 0.57005,-0.7154 0.84747,-0.8399 0.16285,-0.073 0.13556,-0.078 0.15667,-0.093 l 0.0626,-0.031 c 0.0333,-0.026 0.0501,-0.058 0.0941,-0.094 0.0882,-0.071 0.23255,-0.161 0.37624,-0.2796 0.28736,-0.237 0.65226,-0.56 1.09789,-0.9326 0.89127,-0.7452 1.60328,-1.162 2.51706,-1.9273 0.0487,-5.252 0.24789,-11.9367 0.52869,-17.4881 -45.46912,11.6343 -86.91104,4.5702 -105.09698,-1.768 -1.76725,2.5109 -0.26263,6.2291 -0.49793,9.122 0.64344,0.8635 1.31164,1.7049 1.8401,2.6153 0.90696,0.7734 2.01065,1.7285 2.89529,2.4815 l 1.08959,0.9424 c 0.14263,0.1198 0.28616,0.2112 0.37375,0.2829 0.0437,0.036 0.0603,0.068 0.0933,0.094 l 0.0624,0.031 c 0.0209,0.015 -0.006,0.02 0.15583,0.095 0.27631,0.127 0.5945,0.4681 0.84001,0.8474 0.74203,1.1463 0.29033,2.4757 -1.20146,3.151 -0.0541,0.015 -0.10661,0.036 -0.15653,0.061 l -1.59885,1.1492 -0.15666,0.093 0.0311,0.031 c -0.74391,0.3529 -1.38673,0.837 -1.81912,1.492 -0.64722,0.9804 -0.77556,2.1669 -0.42036,3.1857 0.33675,0.9659 1.09261,1.7689 2.11488,2.2906 0.056,0.028 0.0982,0.068 0.15583,0.095 l 1.58834,1.2258 c 0.0466,0.048 0.099,0.09 0.15569,0.1257 0.53724,0.2357 0.97622,0.5895 1.24556,1.0055 0.74209,1.1461 0.29032,2.4757 -1.20146,3.151 -0.0541,0.015 -0.10661,0.036 -0.15652,0.061 l -1.59886,1.1491 -0.15666,0.093 0.0311,0.031 c -0.74391,0.3529 -1.38673,0.837 -1.81912,1.4919 -0.64722,0.9805 -0.77555,2.1669 -0.42036,3.1857 0.33676,0.9659 1.09261,1.769 2.11488,2.2907 0.056,0.028 0.0982,0.067 0.15583,0.095 l 1.5882,1.257 c 0.0466,0.048 0.099,0.091 0.15569,0.1257 0.53725,0.2358 0.97622,0.5896 1.24556,1.0056 0.7421,1.1461 0.29033,2.4757 -1.20146,3.1509 -0.0541,0.015 -0.10661,0.035 -0.15652,0.061 l -1.59885,1.1492 -0.15667,0.093 0.0311,0.031 c -0.74391,0.3529 -1.38673,0.8368 -1.81912,1.4919 -0.64722,0.9805 -0.77555,2.1668 -0.42036,3.1857 0.33676,0.9659 1.09261,1.7689 2.11488,2.2906 0.056,0.028 0.0982,0.067 0.15583,0.095 l 1.58834,1.2258 c 0.0466,0.048 0.099,0.09 0.1557,0.1257 0.53724,0.2358 0.97622,0.5895 1.24556,1.0055 0.74209,1.1461 0.29032,2.4757 -1.20147,3.1509 l -0.15652,0.061 -1.59885,1.1493 -0.15667,0.093 0.0311,0.031 c -0.74391,0.3529 -1.38673,0.8369 -1.81913,1.492 -0.62769,0.9508 -0.77219,2.0985 -0.45119,3.0917 0.31034,0.9603 1.0355,1.7818 2.02099,2.3215 l 0.0934,0.062 c 0.006,0.01 -0.007,0.026 -1.4e-4,0.031 0.0821,0.064 0.19564,0.1332 0.34264,0.2515 0.29399,0.2368 0.70768,0.5905 1.15195,0.9739 0.85563,0.7385 1.83458,1.6651 2.45807,2.4171 -0.004,0.066 -0.011,0.1566 -0.0326,0.3124 -0.0517,0.3735 -0.15254,0.9624 0.11794,1.5943 0.17984,0.4201 0.43192,0.6004 0.74598,0.9095 0.31406,0.3091 0.7028,0.6583 1.15167,1.0364 0.89773,0.7562 2.02266,1.6388 3.1139,2.5139 1.09125,0.8749 2.14959,1.7561 2.89543,2.4503 l 12.39581,10.0825 c 16.79651,1.274 33.59783,1.457 50.40684,-0.094 z" />
    </clipPath>
    <clipPath
       id="ae">
      <path
         id="path5"
         d="m 1439.2,1276.6 c -5.9251,-5.1185 -9.0216,-12.798 -10.741,-20.437 -2.7624,-12.273 -2.5088,-25.093 -5.5362,-37.303 -2.7675,-11.162 -8.1885,-21.465 -13.814,-31.495 -11.956,-21.315 -25.22,-42.34 -31.544,-65.947 -5.5801,-20.83 -5.4418,-43.167 0.4371,-63.914 4.531,-15.991 12.442,-31.028 23.146,-43.742 11.453,-13.603 26.051,-24.486 42.19,-31.952 15.868,-7.3405 33.367,-11.415 50.839,-10.78 21.559,0.78271 42.541,8.7397 60.326,20.95 21.306,14.627 38.439,35.676 46.906,60.093 6.1972,17.871 7.696,37.302 4.6844,55.976 -2.768,17.163 -9.2518,33.566 -17.476,48.884 -8.8893,16.557 -19.886,32.092 -26.548,49.664 -4.1426,10.926 -6.5278,22.449 -8.1082,34.027 -1.1015,8.0697 -1.8454,16.298 -4.759,23.903 -1.696,4.4272 -4.1934,8.6704 -7.9081,11.616 -2.8319,2.2457 -6.2591,3.6469 -9.7701,4.5049 -3.511,0.858 -7.1254,1.1968 -10.727,1.5016 -7.2278,0.6116 -14.466,1.0962 -21.705,1.555 -10.975,0.6955 -21.974,1.3319 -32.963,0.9187 -4.7734,-0.1795 -9.5671,-0.5615 -14.198,-1.733 -4.6309,-1.1715 -9.1175,-3.1672 -12.732,-6.2899" />
    </clipPath>
    <filter
       id="u">
      <feGaussianBlur
         id="feGaussianBlur8"
         stdDeviation=".39491" />
    </filter>
    <filter
       id="d">
      <feGaussianBlur
         id="feGaussianBlur11"
         stdDeviation=".3825" />
    </filter>
    <filter
       id="t">
      <feGaussianBlur
         id="feGaussianBlur14"
         stdDeviation=".2649" />
    </filter>
    <filter
       id="ad">
      <feGaussianBlur
         id="feGaussianBlur17"
         stdDeviation="2.73839" />
    </filter>
    <filter
       id="ab">
      <feGaussianBlur
         id="feGaussianBlur20"
         stdDeviation="6.84564" />
    </filter>
    <filter
       id="y">
      <feGaussianBlur
         id="feGaussianBlur23"
         stdDeviation="8.38728" />
    </filter>
    <filter
       height="1.2422"
       width="1.0423"
       y="-0.12112"
       x="-0.02114"
       id="ac">
      <feGaussianBlur
         id="feGaussianBlur26"
         stdDeviation=".86518" />
    </filter>
    <filter
       height="1.8075"
       width="1.141"
       y="-0.40375"
       x="-0.070469998"
       id="aa">
      <feGaussianBlur
         id="feGaussianBlur29"
         stdDeviation="2.88393" />
    </filter>
    <filter
       height="1.48"
       width="1.48"
       y="-0.23999999"
       x="-0.23999999"
       id="z">
      <feGaussianBlur
         id="feGaussianBlur32"
         stdDeviation="12.4" />
    </filter>
    <linearGradient
       id="q">
      <stop
         id="stop35"
         offset="0"
         stop-opacity="0"
         stop-color="#6b6b6b" />
      <stop
         id="stop37"
         offset=".72366"
         stop-opacity="0"
         stop-color="#b8b8b6" />
      <stop
         id="stop39"
         offset=".83213"
         stop-color="#a4a4a2" />
      <stop
         id="stop41"
         offset=".92827"
         stop-color="#525453" />
      <stop
         id="stop43"
         offset="1"
         stop-color="#363837" />
    </linearGradient>
    <linearGradient
       id="g">
      <stop
         id="stop46"
         offset="0"
         stop-color="#6b6b6b" />
      <stop
         id="stop48"
         offset=".7911"
         stop-color="#fff" />
      <stop
         id="stop50"
         offset=".87509"
         stop-color="#a4a4a2" />
      <stop
         id="stop52"
         offset=".95291"
         stop-color="#525453" />
      <stop
         id="stop54"
         offset="1"
         stop-color="#363837" />
    </linearGradient>
    <linearGradient
       id="p">
      <stop
         id="stop57"
         offset="0"
         stop-color="#6b6b6b" />
      <stop
         id="stop59"
         offset=".05396"
         stop-color="#6e6e6e" />
      <stop
         id="stop61"
         offset=".13956"
         stop-color="#f3f3f1" />
      <stop
         id="stop63"
         offset=".23309"
         stop-color="#f1f1ef" />
      <stop
         id="stop65"
         offset=".358"
         stop-color="#dededc" />
      <stop
         id="stop67"
         offset=".47632"
         stop-color="#a9abaa" />
      <stop
         id="stop69"
         offset=".63574"
         stop-color="#b8b8b6" />
      <stop
         id="stop71"
         offset=".72366"
         stop-color="#b8b8b6" />
      <stop
         id="stop73"
         offset=".83213"
         stop-color="#a4a4a2" />
      <stop
         id="stop75"
         offset=".92827"
         stop-color="#525453" />
      <stop
         id="stop77"
         offset="1"
         stop-color="#363837" />
    </linearGradient>
    <linearGradient
       id="r">
      <stop
         id="stop80"
         offset="0"
         stop-color="#92a8b6" />
      <stop
         id="stop82"
         offset=".22628"
         stop-color="#718a9e" />
      <stop
         id="stop84"
         offset=".3566"
         stop-color="#7d96aa" />
      <stop
         id="stop86"
         offset=".5296"
         stop-color="#c3d0d6" />
      <stop
         id="stop88"
         offset=".67068"
         stop-color="#c1d5dc" />
      <stop
         id="stop90"
         offset=".91711"
         stop-color="#557284" />
      <stop
         id="stop92"
         offset="1"
         stop-color="#617d90" />
    </linearGradient>
    <linearGradient
       id="s">
      <stop
         id="stop95"
         offset="0"
         stop-color="#92a8b6" />
      <stop
         id="stop97"
         offset=".13651"
         stop-color="#718a9e" />
      <stop
         id="stop99"
         offset=".25"
         stop-color="#7d96aa" />
      <stop
         id="stop101"
         offset=".44737"
         stop-color="#c3d0d6" />
      <stop
         id="stop103"
         offset=".61513"
         stop-color="#c1d5dc" />
      <stop
         id="stop105"
         offset=".87007"
         stop-color="#557284" />
      <stop
         id="stop107"
         offset="1"
         stop-color="#91aabe" />
    </linearGradient>
    <linearGradient
       gradientTransform="translate(-1168.1816,-922.7518)"
       gradientUnits="userSpaceOnUse"
       x2="1606.2"
       x1="1372.1"
       id="x">
      <stop
         id="stop110"
         offset="0"
         stop-color="#b0c9e0" />
      <stop
         id="stop112"
         offset="1"
         stop-opacity="0"
         stop-color="#b0c9e0" />
    </linearGradient>
    <linearGradient
       gradientTransform="translate(-1224.9893,-934.89453)"
       gradientUnits="userSpaceOnUse"
       y2="1068"
       y1="1026"
       x2="1410.8"
       x1="1256.8"
       id="w">
      <stop
         id="stop115"
         offset="0"
         stop-color="#fff" />
      <stop
         id="stop117"
         offset=".30486"
         stop-opacity=".49804"
         stop-color="#fff" />
      <stop
         id="stop119"
         offset="1"
         stop-opacity="0"
         stop-color="#fff" />
    </linearGradient>
    <linearGradient
       gradientUnits="userSpaceOnUse"
       y2="962.78998"
       y1="999.56"
       x2="768.22998"
       x1="703.28998"
       id="l">
      <stop
         id="stop122"
         offset="0" />
      <stop
         id="stop124"
         offset=".13511"
         stop-color="#222423" />
      <stop
         id="stop126"
         offset=".22977"
         stop-color="#4c4e4d" />
      <stop
         id="stop128"
         offset=".33936"
         stop-color="#333534" />
      <stop
         id="stop130"
         offset=".42978"
         stop-color="#181a19" />
      <stop
         id="stop132"
         offset=".51595"
         stop-opacity=".47843"
         stop-color="#6e6e6e" />
      <stop
         id="stop134"
         offset=".58298"
         stop-opacity=".41176"
         stop-color="#6e6e6e" />
      <stop
         id="stop136"
         offset=".667"
         stop-opacity=".32549"
         stop-color="#6e6e6e" />
      <stop
         id="stop138"
         offset=".74786"
         stop-opacity=".24314"
         stop-color="#6e6e6e" />
      <stop
         id="stop140"
         offset=".84893"
         stop-opacity=".1451"
         stop-color="#6e6e6e" />
      <stop
         id="stop142"
         offset=".917"
         stop-opacity=".07843"
         stop-color="#6e6e6e" />
      <stop
         id="stop144"
         offset="1"
         stop-opacity="0"
         stop-color="#6e6e6e" />
    </linearGradient>
    <linearGradient
       gradientTransform="matrix(6.3617,0,0,2.0454,-4718.7893,-1472.4445)"
       xlink:href="#g"
       gradientUnits="userSpaceOnUse"
       x2="768.54999"
       x1="751.38"
       id="f" />
    <linearGradient
       xlink:href="#s"
       gradientUnits="userSpaceOnUse"
       x2="53.916"
       x1="15.681"
       id="o" />
    <linearGradient
       xlink:href="#r"
       gradientUnits="userSpaceOnUse"
       y2="793.70001"
       y1="777.78998"
       x2="0"
       id="n" />
    <linearGradient
       xlink:href="#s"
       gradientUnits="userSpaceOnUse"
       x2="41.52"
       x1="27.948999"
       id="e" />
    <linearGradient
       xlink:href="#p"
       gradientUnits="userSpaceOnUse"
       x2="705.34003"
       x1="662.90997"
       id="m" />
    <linearGradient
       xlink:href="#p"
       gradientUnits="userSpaceOnUse"
       x2="473.64999"
       x1="367.69"
       id="k" />
    <linearGradient
       xlink:href="#q"
       gradientUnits="userSpaceOnUse"
       y2="1096.7"
       y1="1043.2"
       x2="438.85001"
       x1="380.26001"
       id="j" />
    <linearGradient
       xlink:href="#q"
       gradientUnits="userSpaceOnUse"
       y2="1073.8"
       y1="1006.8"
       x2="370.63"
       x1="446.04001"
       id="i" />
    <radialGradient
       gradientUnits="userSpaceOnUse"
       gradientTransform="matrix(1.3905,-0.04109,0.01303,0.44111,113.49,576.22)"
       r="52.148998"
       cy="809.35999"
       cx="163.69"
       id="b">
      <stop
         id="stop155"
         offset="0"
         stop-color="#6b6b6b" />
      <stop
         id="stop157"
         offset=".70077"
         stop-color="#393b3a" />
      <stop
         id="stop159"
         offset=".84687"
         stop-color="#a4a4a2" />
      <stop
         id="stop161"
         offset=".97479"
         stop-color="#fff" />
      <stop
         id="stop163"
         offset="1"
         stop-color="#797a78" />
    </radialGradient>
    <radialGradient
       xlink:href="#r"
       gradientUnits="userSpaceOnUse"
       gradientTransform="matrix(1,0,0,0.88,0,95.683)"
       r="8.9286003"
       cy="797.35999"
       cx="517.5"
       id="c" />
    <radialGradient
       xlink:href="#g"
       gradientUnits="userSpaceOnUse"
       gradientTransform="matrix(1.3148,-0.0234,0.00685,0.38483,132.14,625.74)"
       r="52.148998"
       cy="814.46997"
       cx="161.71001"
       id="a" />
    <radialGradient
       xlink:href="#g"
       gradientUnits="userSpaceOnUse"
       gradientTransform="matrix(1.392,-0.0234,0.00725,0.38483,302.06,735.57)"
       r="52.148998"
       cy="814.46997"
       cx="161.71001"
       id="h" />
    <linearGradient
       gradientTransform="matrix(6.3617,0,0,2.0454,-4718.7893,-1472.4445)"
       x2="768.54999"
       x1="751.38"
       gradientUnits="userSpaceOnUse"
       id="linearGradient1186"
       xlink:href="#g"
       inkscape:collect="always" />
    <linearGradient
       x2="41.52"
       x1="27.948999"
       gradientUnits="userSpaceOnUse"
       id="linearGradient1188"
       xlink:href="#s"
       inkscape:collect="always" />
    <radialGradient
       r="8.9286003"
       cy="797.35999"
       cx="517.5"
       gradientTransform="matrix(1,0,0,0.88,0,95.683)"
       gradientUnits="userSpaceOnUse"
       id="radialGradient1190"
       xlink:href="#r"
       inkscape:collect="always" />
    <radialGradient
       r="8.9286003"
       cy="797.35999"
       cx="517.5"
       gradientTransform="matrix(1,0,0,0.88,0,95.683)"
       gradientUnits="userSpaceOnUse"
       id="radialGradient1192"
       xlink:href="#r"
       inkscape:collect="always" />
    <radialGradient
       r="8.9286003"
       cy="797.35999"
       cx="517.5"
       gradientTransform="matrix(1,0,0,0.88,0,95.683)"
       gradientUnits="userSpaceOnUse"
       id="radialGradient1194"
       xlink:href="#r"
       inkscape:collect="always" />
    <radialGradient
       r="52.148998"
       cy="809.35999"
       cx="163.69"
       gradientTransform="matrix(1.3905,-0.04109,0.01303,0.44111,113.49,576.22)"
       gradientUnits="userSpaceOnUse"
       id="radialGradient1196"
       xlink:href="#b"
       inkscape:collect="always" />
    <radialGradient
       r="52.148998"
       cy="814.46997"
       cx="161.71001"
       gradientTransform="matrix(1.3148,-0.0234,0.00685,0.38483,132.14,625.74)"
       gradientUnits="userSpaceOnUse"
       id="radialGradient1198"
       xlink:href="#g"
       inkscape:collect="always" />
    <radialGradient
       r="52.148998"
       cy="809.35999"
       cx="163.69"
       gradientTransform="matrix(1.3905,-0.04109,0.01303,0.44111,113.49,576.22)"
       gradientUnits="userSpaceOnUse"
       id="radialGradient1200"
       xlink:href="#b"
       inkscape:collect="always" />
    <radialGradient
       r="52.148998"
       cy="814.46997"
       cx="161.71001"
       gradientTransform="matrix(1.3148,-0.0234,0.00685,0.38483,132.14,625.74)"
       gradientUnits="userSpaceOnUse"
       id="radialGradient1202"
       xlink:href="#g"
       inkscape:collect="always" />
    <radialGradient
       r="52.148998"
       cy="809.35999"
       cx="163.69"
       gradientTransform="matrix(1.3905,-0.04109,0.01303,0.44111,113.49,576.22)"
       gradientUnits="userSpaceOnUse"
       id="radialGradient1204"
       xlink:href="#b"
       inkscape:collect="always" />
    <radialGradient
       r="52.148998"
       cy="814.46997"
       cx="161.71001"
       gradientTransform="matrix(1.3148,-0.0234,0.00685,0.38483,132.14,625.74)"
       gradientUnits="userSpaceOnUse"
       id="radialGradient1206"
       xlink:href="#g"
       inkscape:collect="always" />
    <radialGradient
       r="52.148998"
       cy="809.35999"
       cx="163.69"
       gradientTransform="matrix(1.3905,-0.04109,0.01303,0.44111,113.49,576.22)"
       gradientUnits="userSpaceOnUse"
       id="radialGradient1208"
       xlink:href="#b"
       inkscape:collect="always" />
  </defs>
  <g
     transform="translate(-368.3493,-517.52453)"
     id="g295">
    <g
       transform="translate(248.57,38.571)"
       id="g291">
      <g
         transform="translate(200.38,-11.617)"
         id="g279">
        <path
           d="m 17.824,721.35 c 3.6714,-1.9958 7.9091,-2.9342 12.059,-3.4283 4.1828,-0.49803 8.5156,-0.41173 12.627,0.50508 4.0198,0.8964 8.5201,1.8402 11.386,4.7982 0.57689,0.59545 0.76246,1.5027 0.89286,2.3214 0.91291,5.732 -0.37306,11.609 -0.89286,17.39 -0.44275,4.9241 -1.9948,9.7674 -1.894,14.71 0.0766,3.7565 1.5772,7.3678 1.894,11.112 1.31,15.481 0,46.609 0,46.609 H 15.682 c 0.0188,-13.916 -1.389,-31.141 0.0605,-46.609 0.35161,-3.7522 2.0094,-7.3439 2.086,-11.112 0.10077,-4.9544 -1.7879,-9.768 -2.1466,-14.71 -0.47561,-6.5532 -2.715,-13.728 0,-19.711 0.39219,-0.8643 1.309,-1.4217 2.1429,-1.875 z"
           fill="url(#o)"
           opacity="0.7"
           id="path263"
           style="fill:url(#o)" />
        <path
           transform="matrix(1,0,0,2.0562,-478.59,-859.69)"
           d="m 512.98,779.49 c 3.3671,0.01 6.7225,0.53445 10.089,0.49108 2.4023,-0.031 5.4457,-2.1904 7.1875,-0.53572 1.8669,1.7736 -0.19895,5.1481 -0.17858,7.723 0.0181,2.2933 1.8407,5.2059 0.26786,6.875 -4.0014,4.2462 -11.667,0.46901 -17.5,0.35714 -5.3207,-0.10204 -12.236,2.886 -15.937,-0.9375 -1.5738,-1.6256 -0.0478,-4.5267 -0.17866,-6.7855 -0.1253,-2.1628 -2.0084,-4.8441 -0.58037,-6.4732 1.404,-1.6016 4.256,-0.17775 6.384,-0.26787 3.4822,-0.14746 6.9612,-0.45675 10.446,-0.44642 z"
           fill="url(#n)"
           filter="url(#u)"
           id="path265"
           style="fill:url(#n)" />
        <path
           d="m 27.948,764.31 h 13.571 v 61.071 H 27.948 V 764.31"
           fill="url(#e)"
           opacity="0.7"
           id="path267"
           style="fill:url(#linearGradient1188)" />
        <path
           transform="matrix(1.05,0,0,0.61932,-508.64,271.13)"
           d="m 526.43,797.36 c 0,4.3394 -3.9975,7.8572 -8.9286,7.8572 -4.9311,0 -8.9286,-3.5178 -8.9286,-7.8572 0,-4.3394 3.9975,-7.8571 8.9286,-7.8571 4.9311,0 8.9286,3.5178 8.9286,7.8571 z"
           fill="url(#c)"
           filter="url(#t)"
           opacity="0.5"
           id="path269"
           style="fill:url(#radialGradient1190)" />
        <path
           transform="matrix(2.17,0,0,0.8608,-1088.2,38.118)"
           d="m 526.43,797.36 c 0,4.3394 -3.9975,7.8572 -8.9286,7.8572 -4.9311,0 -8.9286,-3.5178 -8.9286,-7.8572 0,-4.3394 3.9975,-7.8571 8.9286,-7.8571 4.9311,0 8.9286,3.5178 8.9286,7.8571 z"
           fill="url(#c)"
           filter="url(#d)"
           opacity="0.5"
           id="path271"
           style="fill:url(#radialGradient1192)" />
        <path
           d="m 27.948,657.04 h 13.571 v 66.428 H 27.948 V 657.04"
           fill="url(#e)"
           opacity="0.7"
           id="path273"
           style="fill:url(#e)" />
        <path
           transform="matrix(1.1316,0,0,0.4489,-550.89,302.72)"
           d="m 526.43,797.36 c 0,4.3394 -3.9975,7.8572 -8.9286,7.8572 -4.9311,0 -8.9286,-3.5178 -8.9286,-7.8572 0,-4.3394 3.9975,-7.8571 8.9286,-7.8571 4.9311,0 8.9286,3.5178 8.9286,7.8571 z"
           fill="url(#c)"
           filter="url(#d)"
           id="path275"
           style="fill:url(#radialGradient1194)" />
        <path
           transform="matrix(1.1316,0,0,0.4489,-550.89,301.83)"
           d="m 526.43,797.36 c 0,4.3394 -3.9975,7.8572 -8.9286,7.8572 -4.9311,0 -8.9286,-3.5178 -8.9286,-7.8572 0,-4.3394 3.9975,-7.8571 8.9286,-7.8571 4.9311,0 8.9286,3.5178 8.9286,7.8571 z"
           fill="url(#c)"
           filter="url(#d)"
           id="path277"
           style="fill:url(#c)" />
      </g>
      <path
         d="m 219.46,807.4 c 0.68589,-19.692 1.3387,-39.386 1.9583,-59.081 0.41968,-13.339 0.81452,-26.808 -1.7057,-39.914 -1.8893,-9.8246 -5.3836,-19.259 -8.9681,-28.6 -7.7383,-20.164 -15.969,-40.139 -24.683,-59.901 l 0.91348,-0.11736 5.6876,12.523"
         fill="none"
         stroke="#394d5a"
         stroke-linecap="round"
         stroke-linejoin="round"
         id="path281" />
      <path
         d="m 250.45,807.4 c -0.68589,-19.692 -1.3387,-39.386 -1.9583,-59.081 -0.41968,-13.339 -0.81452,-26.808 1.7057,-39.914 1.8893,-9.8246 5.3836,-19.259 8.9681,-28.6 7.7383,-20.164 15.969,-40.139 24.683,-59.901 l -0.91348,-0.11736 -5.6876,12.523"
         fill="none"
         stroke="#394d5a"
         stroke-linecap="round"
         stroke-linejoin="round"
         id="path283" />
      <g
         transform="matrix(0.85917,0,0,0.8292,33.074,102.54)"
         fill="none"
         stroke="#394d5a"
         stroke-width="0.5"
         id="g289">
        <path
           d="m 201.02,602.09 c 0.93231,2.78 1.9859,5.5193 3.1567,8.2075 0.58746,1.3488 1.2277,2.7184 2.2848,3.7416 0.52852,0.51161 1.1586,0.92744 1.8584,1.1542 0.6998,0.22676 1.4711,0.25731 2.1703,0.0287 0.70891,-0.23179 1.3204,-0.72293 1.7484,-1.3337 0.428,-0.61077 0.6782,-1.3363 0.77694,-2.0755 0.16612,-1.2437 -0.11517,-2.577 -0.92028,-3.5394 -0.40256,-0.48121 -0.92956,-0.86154 -1.5217,-1.069 -0.59214,-0.20746 -1.2486,-0.23814 -1.8512,-0.0635 -0.46221,0.13392 -0.88733,0.38548 -1.2419,0.71084 -0.35457,0.32536 -0.63948,0.72335 -0.85269,1.1548 -0.42642,0.86283 -0.56294,1.8439 -0.55707,2.8064 0.0109,1.7918 0.49458,3.5548 1.1869,5.2074 0.69232,1.6526 1.5914,3.209 2.4749,4.7678 3.316,5.8507 6.4458,11.805 9.7227,17.678 3.4578,6.1971 7.0792,12.303 10.859,18.309"
           id="path285" />
        <path
           d="m 268.7,602.09 c -0.93231,2.78 -1.9859,5.5193 -3.1567,8.2075 -0.58746,1.3488 -1.2277,2.7184 -2.2848,3.7416 -0.52852,0.51161 -1.1586,0.92744 -1.8584,1.1542 -0.6998,0.22676 -1.4711,0.25731 -2.1703,0.0287 -0.70891,-0.23179 -1.3204,-0.72293 -1.7484,-1.3337 -0.428,-0.61077 -0.6782,-1.3363 -0.77694,-2.0755 -0.16612,-1.2437 0.11517,-2.577 0.92028,-3.5394 0.40256,-0.48121 0.92956,-0.86154 1.5217,-1.069 0.59214,-0.20746 1.2486,-0.23814 1.8512,-0.0636 0.46221,0.13392 0.88733,0.38548 1.2419,0.71084 0.35457,0.32536 0.63948,0.72335 0.85269,1.1548 0.42642,0.86283 0.56294,1.8439 0.55707,2.8064 -0.0109,1.7918 -0.49458,3.5548 -1.1869,5.2074 -0.69232,1.6526 -1.5914,3.209 -2.4749,4.7678 -3.316,5.8507 -6.4458,11.805 -9.7227,17.678 -3.4578,6.1971 -7.0792,12.303 -10.859,18.309"
           id="path287" />
      </g>
    </g>
    <path
       d="m 434.64,664.15 27.5,-17.143 41.786,0.35714 28.929,14.643"
       fill="none"
       filter="url(#ac)"
       stroke="#4e6472"
       stroke-width="3"
       id="path293" />
  </g>
  <path
     d="m 81.4107,33.03547 c -13.791,2.008 -24.544,14.269 -33.64,24.828 -9.3091,10.807 -16.544,23.982 -20.031,37.812 -4.505,17.868 -4.3911,37.297 -0.375,55.281 4.5927,20.567 18.501,37.874 27.281,57.031 4.1277,9.0063 9.1979,17.698 11.938,27.219 3.008,10.454 1.3988,21.943 4.7813,32.281 2.069,6.324 4.1702,13.434 9.3125,17.656 6.258,5.139 15.349,5.3109 23.281,6.9375 0.8012,0.1643 1.8186,0.816 2.4375,0.2813 2.3105,-1.9964 0.153,-6.1055 0.2813,-9.1563 1.6749,-39.855 6.6958,-79.611 6.375,-119.5 -0.3287,-40.868 16.128,-89.698 -8.5,-122.31 -4.9423,-6.545 -15.025,-9.5407 -23.141,-8.3591 z"
     fill="url(#w)"
     opacity="0.7"
     id="path307"
     style="fill:url(#w)" />
  <g
     data-skipraster="true"
     data-question="What type of simple machine is used to insert a lightbulb?"
     data-machinetype="screw"
     id="g1281">
    <path
       style="stroke:url(#linearGradient1186)"
       id="path261"
       stroke-width="1.99997"
       stroke="url(#f)"
       fill="#404e58"
       d="m 168.71396,304.7422 c 0,4.39331 -23.66425,7.95476 -52.85619,7.95476 -29.191928,0 -52.85618,-3.56145 -52.85618,-7.95476 0,-4.39332 23.664252,-7.95477 52.85618,-7.95477 29.19194,0 52.85619,3.56145 52.85619,7.95477 z" />
    <g
       id="g315"
       transform="translate(-636.9093,-591.52453)">
      <path
         style="stroke:url(#m)"
         id="path309"
         stroke-width="3.0947"
         stroke="url(#m)"
         fill="none"
         d="m 705.34,988.37 c 0,3.3194 -9.4975,6.0104 -21.213,6.0104 -11.7155,0 -21.213,-2.691 -21.213,-6.0104 0,-3.3194 9.4975,-6.0104 21.213,-6.0104 11.7155,0 21.213,2.691 21.213,6.0104 z"
         transform="matrix(0.88542,0,0,0.4717,149.83,532.39)" />
      <path
         id="path311"
         fill="#212322"
         d="m 725.20988,985.30152 0.375,0.53125 6.03125,5.62505 c 1.38304,1.4423 2.67121,3.0742 3.9375,4.75 0.55097,0.7291 1.09257,1.2257 1.28125,1.7187 -0.0789,0.1055 -0.125,0.235 -0.125,0.3437 0,0.174 0.11371,0.33468 0.3125,0.49998 1.59035,1.3226 9.24804,2.3126 18.46875,2.3126 10.3733,0 18.78125,-1.2468 18.78125,-2.81258 0,-0.1413 -0.0864,-0.3016 -0.21875,-0.4374 0.004,-0.1464 0.0275,-0.6391 0.625,-1.5626 0.67573,-1.0443 1.78125,-2.625 1.78125,-2.625 -0.0831,-0.41554 3.33935,-3.4514 3.8125,-4.0624 l 1.39071,-1.04481 z" />
      <path
         style="fill:url(#l)"
         id="path313"
         fill="url(#l)"
         d="m 725.20988,985.30151 0.375,0.53125 6.03125,5.62505 c 1.38304,1.4423 2.67121,3.0742 3.9375,4.75 0.55097,0.7291 1.09257,1.2257 1.28125,1.7187 -0.0789,0.1055 -0.125,0.235 -0.125,0.3437 0,0.174 0.11371,0.3347 0.3125,0.5 1.59035,1.32259 9.24804,2.31259 18.46875,2.31259 10.3733,0 18.78125,-1.24679 18.78125,-2.81259 0,-0.1413 -0.0864,-0.3016 -0.21875,-0.4374 0.004,-0.1464 0.0275,-0.6391 0.625,-1.5626 0.67573,-1.0443 1.78125,-2.625 1.78125,-2.625 -0.0831,-0.41554 3.33935,-3.4514 3.8125,-4.0624 l 1.39071,-1.04481 z" />
    </g>
    <g
       id="g351"
       transform="translate(-304.7693,-683.73453)">
      <path
         style="fill:url(#k)"
         id="path317"
         fill="url(#k)"
         d="m 447.12731,1081.3965 c 8.15772,-6.5346 16.31525,-13.0693 22.63249,-21.2143 1.09925,-1.7053 -0.19062,-3.2289 -0.24463,-3.2444 -1.48878,-0.6819 -2.19983,-1.4831 -1.45267,-2.626 0.27118,-0.4147 0.71172,-0.7665 1.25,-1 0.0568,-0.035 0.10942,-0.077 0.15625,-0.125 l 1.59375,-1.2187 c 0.0577,-0.026 0.10015,-0.065 0.15625,-0.094 1.02457,-0.5171 1.78397,-1.3168 2.125,-2.2813 0.3597,-1.0172 0.23662,-2.2042 -0.40625,-3.1875 -0.42949,-0.6569 -1.07016,-1.1437 -1.8125,-1.5 l 0.0312,-0.031 -0.1562,-0.094 -1.59375,-1.1563 c -0.0498,-0.026 -0.10224,-0.047 -0.15625,-0.062 -1.48878,-0.6818 -1.93466,-2.0134 -1.1875,-3.1562 0.27118,-0.4148 0.71172,-0.7666 1.25,-1 0.0568,-0.035 0.10942,-0.077 0.15625,-0.125 l 1.59375,-1.25 c 0.0577,-0.026 0.10015,-0.065 0.15625,-0.094 1.02457,-0.5171 1.78397,-1.3168 2.125,-2.2813 0.3597,-1.0172 0.23662,-2.2042 -0.40625,-3.1875 -0.42949,-0.6569 -1.07016,-1.1437 -1.8125,-1.5 l 0.0312,-0.031 -0.15625,-0.094 -1.59375,-1.1562 c -0.0498,-0.026 -0.10224,-0.047 -0.15625,-0.062 -1.48878,-0.6819 -1.93466,-2.0134 -1.1875,-3.1563 0.27118,-0.4147 0.71172,-0.7665 1.25,-1 0.0568,-0.035 0.10942,-0.077 0.15625,-0.125 l 1.59375,-1.2187 c 0.0577,-0.026 0.10015,-0.065 0.15625,-0.094 1.02457,-0.5171 1.78397,-1.3168 2.125,-2.2813 0.3597,-1.0172 0.23662,-2.2042 -0.40625,-3.1875 -0.42949,-0.6569 -1.07016,-1.1437 -1.8125,-1.5 l 0.0313,-0.031 -0.15625,-0.094 -1.59375,-1.1562 c -0.0498,-0.026 -0.10224,-0.047 -0.15625,-0.062 -1.48879,-0.6819 -1.9346,-2.0133 -1.1875,-3.1563 0.24719,-0.3781 0.56688,-0.7179 0.84375,-0.8437 0.16252,-0.074 0.13521,-0.079 0.15625,-0.094 l 0.0625,-0.031 c 0.0332,-0.026 0.0498,-0.058 0.0937,-0.094 0.0879,-0.071 0.23184,-0.1621 0.375,-0.2813 0.28631,-0.2383 0.64977,-0.5629 1.09375,-0.9375 0.88796,-0.749 1.59812,-1.169 2.5085,-1.9384 0.0255,-5.2522 0.19504,-11.93768 0.45126,-17.49023 -45.41717,11.83543 -86.88995,4.95496 -105.10378,-1.30264 -1.75611,2.51873 -0.23505,6.23018 -0.45754,9.12408 0.64726,0.86066 1.31918,1.69909 1.85166,2.60709 0.91038,0.7694 2.01829,1.7197 2.90625,2.4687 0.44398,0.3746 0.80744,0.6992 1.09375,0.9375 0.14316,0.1192 0.2871,0.21 0.375,0.2813 0.0439,0.036 0.0606,0.068 0.0937,0.094 l 0.0625,0.031 c 0.021,0.015 -0.006,0.02 0.15625,0.094 0.27687,0.1258 0.59656,0.4656 0.84375,0.8437 0.7471,1.143 0.30129,2.4744 -1.1875,3.1563 -0.054,0.015 -0.10645,0.036 -0.15625,0.062 l -1.59375,1.1562 -0.15625,0.094 0.0312,0.031 c -0.74234,0.3562 -1.38301,0.8431 -1.8125,1.5 -0.64287,0.9833 -0.76595,2.1703 -0.40625,3.1875 0.34103,0.9644 1.10043,1.7642 2.125,2.2813 0.0561,0.028 0.0985,0.067 0.15625,0.094 l 1.59375,1.2187 c 0.0468,0.048 0.0994,0.09 0.15625,0.125 0.53828,0.2335 0.97882,0.5852 1.25,1 0.74716,1.1429 0.30128,2.4744 -1.1875,3.1563 l -0.15625,0.062 -1.59375,1.1562 -0.15625,0.094 0.0312,0.031 c -0.74234,0.3562 -1.38301,0.8431 -1.8125,1.5 -0.64287,0.9833 -0.76595,2.1703 -0.40625,3.1875 0.34103,0.9644 1.10043,1.7642 2.125,2.2813 0.0561,0.028 0.0985,0.067 0.15625,0.094 l 1.59375,1.25 c 0.0468,0.048 0.0994,0.09 0.15625,0.125 0.53828,0.2334 0.97882,0.5852 1.25,1 0.74716,1.1428 0.30128,2.4744 -1.1875,3.1562 l -0.15625,0.062 -1.59375,1.1563 -0.15625,0.094 0.0312,0.031 c -0.74234,0.3562 -1.38301,0.843 -1.8125,1.5 -0.64287,0.9833 -0.76595,2.1703 -0.40625,3.1875 0.34103,0.9644 1.10043,1.7641 2.125,2.2812 0.0561,0.028 0.0985,0.067 0.15625,0.094 l 1.59375,1.2188 c 0.0468,0.048 0.0994,0.09 0.15625,0.125 0.53828,0.2334 0.97882,0.5852 1.25,1 0.74716,1.1428 0.30128,2.4744 -1.1875,3.1562 -0.054,0.015 -0.10645,0.036 -0.15625,0.062 l -1.59375,1.1563 -0.15625,0.094 0.0312,0.031 c -0.74234,0.3562 -1.38301,0.843 -1.8125,1.5 -0.62348,0.9536 -0.76289,2.1019 -0.4375,3.0937 0.31459,0.9589 1.04338,1.7773 2.03125,2.3125 l 0.0937,0.062 c 0.006,0 -0.007,0.026 0,0.031 0.0824,0.064 0.19623,0.1323 0.34375,0.25 0.29504,0.2355 0.71029,0.5873 1.15625,0.9688 0.85889,0.7347 1.84194,1.6569 2.46875,2.4062 -0.004,0.066 -0.0103,0.1566 -0.0312,0.3125 -0.05,0.3737 -0.14827,0.9631 0.125,1.5938 0.1817,0.4193 0.43458,0.5986 0.75,0.9062 0.31542,0.3076 0.70571,0.6552 1.15625,1.0313 0.90107,0.7522 2.02989,1.6299 3.125,2.5 1.09511,0.8701 2.15734,1.7466 2.90625,2.4375 l 12.44033,10.0276 c 16.80198,1.1996 33.60395,1.3082 50.40593,-0.3172 z" />
      <path
         style="fill:url(#j)"
         id="path319"
         fill="url(#j)"
         d="m 448.39042,1081.3963 c 8.15772,-6.5346 16.31525,-13.0693 22.63249,-21.2143 1.09925,-1.7053 -0.19062,-3.2289 -0.24463,-3.2444 -48.55977,0.6981 -111.63031,-35.4263 -99.35912,-0.064 0.31459,0.9589 1.04338,1.7773 2.03125,2.3125 l 0.0937,0.062 c 0.006,0 -0.007,0.026 0,0.031 0.0824,0.064 0.19623,0.1323 0.34375,0.25 0.29504,0.2355 0.71029,0.5873 1.15625,0.9688 0.85889,0.7347 1.84194,1.6569 2.46875,2.4062 -0.004,0.066 -0.0103,0.1566 -0.0312,0.3125 -0.05,0.3737 -0.14827,0.9631 0.125,1.5938 0.1817,0.4193 0.43458,0.5986 0.75,0.9062 0.31542,0.3076 0.70571,0.6552 1.15625,1.0313 0.90107,0.7522 2.02989,1.6299 3.125,2.5 1.09511,0.8701 2.15734,1.7466 2.90625,2.4375 l 12.44033,10.0276 c 16.80198,1.1996 33.60395,1.3082 50.40593,-0.3172 v 7e-4 z" />
      <path
         style="fill:url(#i)"
         id="path321"
         fill="url(#i)"
         d="m 447.17276,1081.3079 c 8.15772,-6.5346 16.31525,-13.0693 22.63249,-21.2143 1.09925,-1.7053 -0.19062,-3.2289 -0.24463,-3.2444 l -99.35912,-0.064 c 0.31459,0.9589 1.04338,1.7773 2.03125,2.3125 l 0.0937,0.062 c 0.006,0 -0.007,0.026 0,0.031 0.0824,0.064 0.19623,0.1323 0.34375,0.25 0.29504,0.2355 0.71029,0.5873 1.15625,0.9688 0.85889,0.7347 1.84194,1.6569 2.46875,2.4062 -0.004,0.066 -0.0103,0.1566 -0.0312,0.3125 -0.05,0.3737 -0.14827,0.9631 0.125,1.5938 0.1817,0.4193 0.43458,0.5986 0.75,0.9062 0.31542,0.3076 0.70571,0.6552 1.15625,1.0313 0.90107,0.7522 2.02989,1.6299 3.125,2.5 1.09511,0.8701 2.15734,1.7466 2.90625,2.4375 l 12.44033,10.0276 c 16.80198,1.1996 33.60395,1.3082 50.40593,-0.3172 v 7e-4 z" />
      <g
         id="g349"
         clip-path="url(#v)"
         transform="rotate(-0.25382118,-12523.791,27739.224)">
        <g
           id="g327"
           transform="matrix(1.0587,0,0,1,162.17,164.04)">
          <path
             style="fill:url(#radialGradient1196)"
             id="path323"
             fill="url(#b)"
             d="m 321.04,940.01 c 4.0427,0.50361 8.1207,0.67151 12.186,0.92982 4.1296,0.26237 8.2599,0.65609 12.398,0.62967 5.483,-0.035 10.95,-0.60669 16.416,-1.0441 6.1346,-0.49093 12.315,-0.71225 18.377,-1.7733 4.4049,-0.77098 8.7555,-1.9076 12.997,-3.3236 2.6096,-0.87116 5.6518,-1.9246 7.6211,-3.1687 3.9902,-2.3292 0.97428,1.497 1.162,4.0082 0.12442,1.6648 4.5132,1.4376 2.1498,3.2047 -1.2018,0.89858 -8.0655,3.9 -12.322,5.246 -4.1722,1.3195 -8.5233,2.0145 -12.839,2.7379 -5.9417,0.99606 -11.934,1.7196 -17.939,2.2011 -4.4972,0.36059 -9.0135,0.49632 -13.525,0.51335 -4.6942,0.0177 -9.3915,-0.12774 -14.076,-0.42788 -5.4792,-0.35105 -11,-0.57491 -16.393,-1.6047 -2.649,-0.50582 -5.9899,-1.4333 -7.7762,-2.2341 -2.6287,-1.1785 1.686,-2.0421 1.6142,-3.5152 -0.0876,-1.797 -3.9414,-4.6548 -0.96626,-4.2722 3.4,0.43727 7.2506,1.4365 10.915,1.8929 z" />
          <path
             style="fill:url(#radialGradient1198)"
             id="path325"
             fill="url(#a)"
             d="m 321.18,947.55 c 8.5024,0.95853 17.054,1.5951 25.611,1.7381 12.372,-0.32062 23.617,-1.1963 35.106,-3.2638 7.1712,-1.3705 14.451,-2.9574 20.842,-6.6262 3.9902,-2.3292 5.9296,-1.137 6.1173,1.3743 0.12442,1.6648 -0.71006,3.7144 -3.0734,5.4815 -8.1958,3.1395 -16.838,5.4463 -25.473,7.0911 -10.286,1.5724 -20.701,2.4662 -31.107,2.6251 -10.131,-0.28571 -20.317,-0.56243 -30.38,-1.854 -2.9585,-0.44691 -6.972,-1.1654 -8.7583,-1.9663 -2.6287,-1.1785 -3.3586,-2.7564 -3.4304,-4.2295 -0.0876,-1.797 0.83544,-2.512 3.8105,-2.1294 3.4,0.43727 7.2592,1.3244 10.736,1.759 z" />
        </g>
        <g
           id="g333"
           transform="matrix(1.0587,0,0,1,162.17,150.61)">
          <path
             style="fill:url(#radialGradient1200)"
             id="path329"
             fill="url(#b)"
             d="m 321.04,940.01 c 4.0427,0.50361 8.1207,0.67151 12.186,0.92982 4.1296,0.26237 8.2599,0.65609 12.398,0.62967 5.483,-0.035 10.95,-0.60669 16.416,-1.0441 6.1346,-0.49093 12.315,-0.71225 18.377,-1.7733 4.4049,-0.77098 8.7555,-1.9076 12.997,-3.3236 2.6096,-0.87116 5.6518,-1.9246 7.6211,-3.1687 3.9902,-2.3292 0.97428,1.497 1.162,4.0082 0.12442,1.6648 4.5132,1.4376 2.1498,3.2047 -1.2018,0.89858 -8.0655,3.9 -12.322,5.246 -4.1722,1.3195 -8.5233,2.0145 -12.839,2.7379 -5.9417,0.99606 -11.934,1.7196 -17.939,2.2011 -4.4972,0.36059 -9.0135,0.49632 -13.525,0.51335 -4.6942,0.0177 -9.3915,-0.12774 -14.076,-0.42788 -5.4792,-0.35105 -11,-0.57491 -16.393,-1.6047 -2.649,-0.50582 -5.9899,-1.4333 -7.7762,-2.2341 -2.6287,-1.1785 1.686,-2.0421 1.6142,-3.5152 -0.0876,-1.797 -3.9414,-4.6548 -0.96626,-4.2722 3.4,0.43727 7.2506,1.4365 10.915,1.8929 z" />
          <path
             style="fill:url(#radialGradient1202)"
             id="path331"
             fill="url(#a)"
             d="m 321.18,947.55 c 8.5024,0.95853 17.054,1.5951 25.611,1.7381 12.372,-0.32062 23.617,-1.1963 35.106,-3.2638 7.1712,-1.3705 14.451,-2.9574 20.842,-6.6262 3.9902,-2.3292 5.9296,-1.137 6.1173,1.3743 0.12442,1.6648 -0.71006,3.7144 -3.0734,5.4815 -8.1958,3.1395 -16.838,5.4463 -25.473,7.0911 -10.286,1.5724 -20.701,2.4662 -31.107,2.6251 -10.131,-0.28571 -20.317,-0.56243 -30.38,-1.854 -2.9585,-0.44691 -6.972,-1.1654 -8.7583,-1.9663 -2.6287,-1.1785 -3.3586,-2.7564 -3.4304,-4.2295 -0.0876,-1.797 0.83544,-2.512 3.8105,-2.1294 3.4,0.43727 7.2592,1.3244 10.736,1.759 z" />
        </g>
        <g
           id="g339"
           transform="matrix(1.0587,0,0,1,162.17,137.01)">
          <path
             style="fill:url(#radialGradient1204)"
             id="path335"
             fill="url(#b)"
             d="m 321.04,940.01 c 4.0427,0.50361 8.1207,0.67151 12.186,0.92982 4.1296,0.26237 8.2599,0.65609 12.398,0.62967 5.483,-0.035 10.95,-0.60669 16.416,-1.0441 6.1346,-0.49093 12.315,-0.71225 18.377,-1.7733 4.4049,-0.77098 8.7555,-1.9076 12.997,-3.3236 2.6096,-0.87116 5.6518,-1.9246 7.6211,-3.1687 3.9902,-2.3292 0.97428,1.497 1.162,4.0082 0.12442,1.6648 4.5132,1.4376 2.1498,3.2047 -1.2018,0.89858 -8.0655,3.9 -12.322,5.246 -4.1722,1.3195 -8.5233,2.0145 -12.839,2.7379 -5.9417,0.99606 -11.934,1.7196 -17.939,2.2011 -4.4972,0.36059 -9.0135,0.49632 -13.525,0.51335 -4.6942,0.0177 -9.3915,-0.12774 -14.076,-0.42788 -5.4792,-0.35105 -11,-0.57491 -16.393,-1.6047 -2.649,-0.50582 -5.9899,-1.4333 -7.7762,-2.2341 -2.6287,-1.1785 1.686,-2.0421 1.6142,-3.5152 -0.0876,-1.797 -3.9414,-4.6548 -0.96626,-4.2722 3.4,0.43727 7.2506,1.4365 10.915,1.8929 z" />
          <path
             style="fill:url(#radialGradient1206)"
             id="path337"
             fill="url(#a)"
             d="m 321.18,947.55 c 8.5024,0.95853 17.054,1.5951 25.611,1.7381 12.372,-0.32062 23.617,-1.1963 35.106,-3.2638 7.1712,-1.3705 14.451,-2.9574 20.842,-6.6262 3.9902,-2.3292 5.9296,-1.137 6.1173,1.3743 0.12442,1.6648 -0.71006,3.7144 -3.0734,5.4815 -8.1958,3.1395 -16.838,5.4463 -25.473,7.0911 -10.286,1.5724 -20.701,2.4662 -31.107,2.6251 -10.131,-0.28571 -20.317,-0.56243 -30.38,-1.854 -2.9585,-0.44691 -6.972,-1.1654 -8.7583,-1.9663 -2.6287,-1.1785 -3.3586,-2.7564 -3.4304,-4.2295 -0.0876,-1.797 0.83544,-2.512 3.8105,-2.1294 3.4,0.43727 7.2592,1.3244 10.736,1.759 z" />
        </g>
        <g
           id="g345"
           transform="matrix(1.0587,0,0,1,162.17,123.42)">
          <path
             style="fill:url(#radialGradient1208)"
             id="path341"
             fill="url(#b)"
             d="m 321.04,940.01 c 4.0427,0.50361 8.1207,0.67151 12.186,0.92982 4.1296,0.26237 8.2599,0.65609 12.398,0.62967 5.483,-0.035 10.95,-0.60669 16.416,-1.0441 6.1346,-0.49093 12.315,-0.71225 18.377,-1.7733 4.4049,-0.77098 8.7555,-1.9076 12.997,-3.3236 2.6096,-0.87116 5.6518,-1.9246 7.6211,-3.1687 3.4595,-2.0194 6.5054,-0.92278 6.7481,1.1713 0.0372,0.32125 -2.2994,1.1434 -2.2744,1.4774 0.12442,1.6648 1.2014,2.797 -1.1619,4.5642 -1.2018,0.89858 -8.0655,3.9 -12.322,5.246 -4.1722,1.3195 -8.5233,2.0145 -12.839,2.7379 -5.9417,0.99606 -11.934,1.7196 -17.939,2.2011 -4.4972,0.36059 -9.0135,0.49632 -13.525,0.51335 -4.6942,0.0177 -9.3915,-0.12774 -14.076,-0.42788 -5.4792,-0.35105 -11,-0.57491 -16.393,-1.6047 -2.649,-0.50582 -5.9899,-1.4333 -7.7762,-2.2341 -2.6287,-1.1785 1.686,-2.0421 1.6142,-3.5152 -0.0876,-1.797 -3.9414,-4.6548 -0.96626,-4.2722 3.4,0.43727 7.2506,1.4365 10.915,1.8929 z" />
          <path
             style="fill:url(#a)"
             id="path343"
             fill="url(#a)"
             d="m 321.18,947.55 c 8.5024,0.95853 17.054,1.5951 25.611,1.7381 12.372,-0.32062 23.617,-1.1963 35.106,-3.2638 7.1712,-1.3705 14.451,-2.9574 20.842,-6.6262 3.9902,-2.3292 5.9296,-1.137 6.1173,1.3743 0.12442,1.6648 -0.71006,3.7144 -3.0734,5.4815 -8.1958,3.1395 -16.838,5.4463 -25.473,7.0911 -10.286,1.5724 -20.701,2.4662 -31.107,2.6251 -10.131,-0.28571 -20.317,-0.56243 -30.38,-1.854 -2.9585,-0.44691 -6.972,-1.1654 -8.7583,-1.9663 -2.6287,-1.1785 -3.3586,-2.7564 -3.4304,-4.2295 -0.0876,-1.797 0.83544,-2.512 3.8105,-2.1294 3.4,0.43727 7.2592,1.3244 10.736,1.759 z" />
        </g>
        <path
           style="fill:url(#h)"
           id="path347"
           fill="url(#h)"
           d="m 500.86,1049.7 c 9.0013,0.9585 18.733,3.5981 27.793,3.7411 13.098,-0.3206 25.184,0.242 37.347,-1.8255 7.592,-1.3705 15.041,-1.2085 22.3,-3.3752 4.2244,-2.3292 6.5232,-0.1358 6.7219,2.3755 0.13172,1.6647 -0.75173,3.7143 -3.2538,5.4814 -8.6768,3.1395 -17.826,5.4463 -26.968,7.0911 -10.889,1.5725 -21.916,2.4662 -32.933,2.6252 -10.726,-0.2857 -21.51,-0.5625 -32.163,-1.854 -3.1322,-0.4469 -7.3812,-1.1654 -9.2723,-1.9663 -2.783,-1.1785 -3.5557,-2.7563 -3.6318,-4.2295 -0.0927,-1.7969 -2.5087,-12.527 0.64096,-12.144 3.5995,0.4373 9.7374,3.646 13.419,4.0806 z" />
      </g>
    </g>
    <path
       style="stroke:url(#f)"
       id="path353"
       stroke-width="1.99997"
       stroke="url(#f)"
       fill="none"
       d="m 168.71396,304.7422 c 0,4.39331 -23.66425,7.95476 -52.85619,7.95476 -29.191928,0 -52.85618,-3.56145 -52.85618,-7.95476 0,-0.1125 0.01272,-0.22516 0.04453,-0.33764" />
  </g>
  <g
     id="g301"
     clip-path="url(#ae)"
     transform="translate(-1373.4835,-970.95738)">
    <path
       id="path297"
       opacity="0.36688"
       filter="url(#ab)"
       fill="#5e8dbd"
       clip-path="none"
       d="m 1488.9,965.11 c -15.196,0.2588 -30.532,4.5861 -44.344,10.906 -15.99,7.3168 -30.727,18.468 -42.188,31.969 -10.636,12.53 -19.123,27.67 -23.156,43.719 -5.1855,20.634 -5.0706,43.154 -0.4375,63.938 5.3141,23.838 21.408,43.781 31.562,65.938 4.7753,10.419 10.638,20.468 13.812,31.5 3.4735,12.07 1.637,25.344 5.5313,37.281 2.3916,7.331 4.8586,15.566 10.75,20.438 7.2624,6.0049 17.632,6.8093 26.906,8.0312 10.903,1.4363 21.99,-0.3602 32.969,-0.9062 7.2445,-0.3604 14.578,-0.2753 21.719,-1.5626 7.0018,-1.262 14.725,-1.781 20.5,-6 3.7598,-2.7466 6.0913,-7.2907 7.9063,-11.625 3.1309,-7.4768 3.0153,-15.971 4.75,-23.906 2.4905,-11.393 3.9682,-23.144 8.0937,-34.031 6.6637,-17.586 18.951,-32.474 26.562,-49.656 7.0023,-15.806 15.227,-31.681 17.469,-48.875 2.4197,-18.558 2.109,-38.561 -4.6875,-55.969 -9.2806,-23.771 -26.367,-45.352 -46.906,-60.094 -17.369,-12.466 -39.114,-19.634 -60.312,-20.969 -2.1604,-0.136 -4.3291,-0.1619 -6.5,-0.125 z m 0.4063,40.187 c 1.5,-0.025 3.0309,0.025 4.625,0.125 17.011,1.0715 34.93,7.0653 48.25,16.625 16.773,12.038 31.312,30.446 38.812,49.656 4.6913,12.016 5.3913,28.348 3.2812,44.531 -1.5375,11.792 -8.2945,25.813 -15.688,42.5 -5.875,13.261 -18.554,28.472 -27.031,50.844 -5.4365,14.348 -6.8743,27.271 -9.0625,37.281 -2.5192,11.524 -2.8688,18.399 -3.5,19.906 -0.3835,0.9158 -0.5637,1.1324 -0.8438,1.5937 -1.4127,0.2698 -4.6481,1.1154 -10.25,2.125 -4.1674,0.7514 -10.481,0.8075 -18.75,1.2188 -12.772,0.6352 -22.43,1.9305 -28.781,1.0938 -9.5245,-1.2551 -14.278,-2.7813 -14.656,-2.7813 -9e-4,0 10e-4,-0.031 0,-0.031 -0.1827,-0.7699 -2.0567,-4.0785 -3.9375,-9.8437 -1.6478,-5.0511 0.017,-18.01 -5.3125,-36.531 -4.2396,-14.733 -10.868,-25.734 -15,-34.75 -11.828,-25.807 -26.254,-44.51 -30,-61.312 -3.8765,-17.389 -3.912,-36.502 0.2813,-53.188 2.9992,-11.934 9.7493,-24.25 18.344,-34.375 9.1744,-10.808 21.322,-19.985 34.125,-25.844 11.57,-5.2942 24.072,-8.6561 35.094,-8.8438 z" />
    <path
       id="path299"
       filter="url(#ad)"
       fill="#233a63"
       clip-path="none"
       d="m 1488.9,970.05 c -15.196,0.2587 -30.532,4.6173 -44.344,10.938 -15.99,7.3168 -30.727,18.468 -42.188,31.969 -10.636,12.53 -19.092,27.67 -23.125,43.719 -5.1855,20.634 -5.0706,43.154 -0.4375,63.938 5.3141,23.838 21.376,43.781 31.531,65.938 4.7753,10.419 10.638,20.468 13.812,31.5 3.4735,12.07 1.6369,25.344 5.5312,37.281 2.3916,7.331 4.8586,15.566 10.75,20.438 7.2624,6.005 17.664,6.8093 26.938,8.0312 10.903,1.4363 21.99,-0.3602 32.969,-0.9062 7.2445,-0.3603 14.547,-0.2752 21.688,-1.5625 7.0018,-1.2621 14.725,-1.7811 20.5,-6 3.7598,-2.7467 6.0912,-7.2907 7.9062,-11.625 3.1309,-7.4769 3.0153,-15.971 4.75,-23.906 2.4905,-11.393 3.9995,-23.144 8.125,-34.031 6.6637,-17.586 18.919,-32.475 26.531,-49.656 7.0023,-15.806 15.258,-31.681 17.5,-48.875 2.4197,-18.558 2.109,-38.592 -4.6875,-56 -9.2806,-23.771 -26.367,-45.321 -46.906,-60.062 -17.369,-12.466 -39.145,-19.634 -60.344,-20.969 -2.1604,-0.1361 -4.3292,-0.1932 -6.5,-0.1562 z m 3.1875,7.75 c 1.0387,0 2.0871,0.025 3.125,0.062 20.49,0.7438 40.65,8.332 57.781,20.094 20.52,14.088 36.974,34.394 45.062,57.719 5.9217,17.077 7.3877,35.688 4.5,53.594 -2.6565,16.472 -8.9244,32.392 -16.969,47.375 -8.702,16.208 -19.831,31.918 -26.781,50.25 -4.3222,11.4 -6.7952,23.292 -8.4062,35.094 -1.1219,8.2188 -1.8727,16.036 -4.4688,22.812 -1.4996,3.9145 -3.6384,7.3677 -6.4062,9.5625 -2.105,1.6692 -4.8936,2.8499 -7.9375,3.5938 -3.054,0.7463 -6.3957,1.0726 -9.9688,1.375 -7.1743,0.6071 -14.4,1.1046 -21.625,1.5625 -10.963,0.6947 -21.76,1.339 -32.438,0.9375 -4.6268,-0.174 -9.1062,-0.5846 -13.219,-1.625 -4.0894,-1.0346 -7.8593,-2.7528 -10.75,-5.25 -4.7493,-4.1028 -7.5894,-10.744 -9.1875,-17.844 -2.59,-11.507 -2.3296,-24.367 -5.5625,-37.406 -2.9546,-11.916 -8.6121,-22.612 -14.281,-32.719 -12.04,-21.465 -25.053,-42.145 -31.125,-64.812 -5.3518,-19.978 -5.1992,-41.451 0.4375,-61.344 4.3453,-15.335 11.936,-29.793 22.188,-41.969 10.968,-13.027 25.005,-23.474 40.531,-30.656 14.305,-6.6173 29.92,-10.45 45.5,-10.406 z" />
  </g>
</svg>
