<?xml version="1.0" encoding="UTF-8" standalone="no"?>
<svg
   xmlns:serif="http://www.serif.com/"
   xmlns:dc="http://purl.org/dc/elements/1.1/"
   xmlns:cc="http://creativecommons.org/ns#"
   xmlns:rdf="http://www.w3.org/1999/02/22-rdf-syntax-ns#"
   xmlns:svg="http://www.w3.org/2000/svg"
   xmlns="http://www.w3.org/2000/svg"
   xmlns:xlink="http://www.w3.org/1999/xlink"
   xmlns:sodipodi="http://sodipodi.sourceforge.net/DTD/sodipodi-0.dtd"
   xmlns:inkscape="http://www.inkscape.org/namespaces/inkscape"
   width="297mm"
   height="210mm"
   viewBox="0 0 1122.5197 793.7008"
   version="1.1"
   xml:space="preserve"
   style="clip-rule:evenodd;fill-rule:evenodd;stroke-linejoin:round;stroke-miterlimit:1.41420996"
   id="svg907"
   sodipodi:docname="repairshop.svg"
   inkscape:version="1.0 (4035a4fb49, 2020-05-01)"><metadata
     id="metadata913"><rdf:RDF><cc:Work
         rdf:about=""><dc:format>image/svg+xml</dc:format><dc:type
           rdf:resource="http://purl.org/dc/dcmitype/StillImage" /><dc:title /></cc:Work></rdf:RDF></metadata><defs
     id="defs911"><defs
       id="defs4620"><rect
         id="SVGID_1_-3"
         x="-3.4790001"
         y="-3.783"
         width="300"
         height="300" /></defs><clipPath
       id="SVGID_2_-3"><use
         height="100%"
         width="100%"
         y="0"
         x="0"
         style="overflow:visible"
         xlink:href="#SVGID_1_-3"
         overflow="visible"
         id="use4624" /></clipPath><defs
       id="defs4628"><rect
         height="300"
         width="300"
         y="-3.783"
         x="-3.4790001"
         id="SVGID_3_-7" /></defs><clipPath
       id="SVGID_4_-7"><use
         id="use4632"
         overflow="visible"
         xlink:href="#SVGID_3_-7"
         style="overflow:visible"
         x="0"
         y="0"
         width="100%"
         height="100%" /></clipPath><defs
       id="defs4636"><rect
         id="SVGID_5_-7"
         x="-3.4790001"
         y="-3.783"
         width="300"
         height="300" /></defs><clipPath
       id="SVGID_6_-5"><use
         height="100%"
         width="100%"
         y="0"
         x="0"
         style="overflow:visible"
         xlink:href="#SVGID_5_-7"
         overflow="visible"
         id="use4640" /></clipPath><rect
       id="rect1177"
       x="-3.4790001"
       y="-3.783"
       width="300"
       height="300" /><rect
       height="300"
       width="300"
       y="-3.783"
       x="-3.4790001"
       id="rect1179" /><rect
       id="rect1181"
       x="-3.4790001"
       y="-3.783"
       width="300"
       height="300" /></defs><sodipodi:namedview
     pagecolor="#ffffff"
     bordercolor="#666666"
     borderopacity="1"
     objecttolerance="10"
     gridtolerance="10"
     guidetolerance="10"
     inkscape:pageopacity="0"
     inkscape:pageshadow="2"
     inkscape:window-width="1920"
     inkscape:window-height="1027"
     id="namedview909"
     showgrid="false"
     units="mm"
     inkscape:zoom="2.990248"
     inkscape:cx="471.0206"
     inkscape:cy="649.4147"
     inkscape:window-x="-8"
     inkscape:window-y="-8"
     inkscape:window-maximized="1"
     inkscape:current-layer="svg907"
     inkscape:document-rotation="0" /><g
     transform="matrix(0.66797933,0,0,0.66797933,109.05986,-77.142383)"
     id="g4"><rect
       x="-170.911"
       y="105.177"
       width="1698.53"
       height="1208.83"
       style="fill:#70a7bf"
       id="rect2" /></g><g
     transform="matrix(0.66797933,0,0,0.66797933,236.88081,-58.45258)"
     id="g8"
     style="fill:#6f8a91"><path
       d="M 1205.53,731.146 H 1296 v 446.804 h -90.47 z m -115.66,0 h 90.48 v 446.804 h -90.48 z M 119.265,708.661 h 90.476 v 410.309 h -90.476 z m 299.203,-27.05 h 9.136 v -74.853 h 11.668 v -70.503 h 6.486 v 70.503 h 11.669 v 74.853 h 9.136 v 410.309 h -48.095 z"
       style="fill:#6f8a91"
       id="path6"
       inkscape:connector-curvature="0" /></g><g
     style="fill:#6f8a91"
     id="g917"
     transform="matrix(0.66797933,0,0,0.66797933,-71.01822,-58.45258)"><path
       inkscape:connector-curvature="0"
       id="path915"
       style="fill:#6f8a91"
       d="M 1205.53,731.146 H 1296 v 446.804 h -90.47 z m -115.66,0 h 90.48 v 446.804 h -90.48 z M 119.265,708.661 h 90.476 v 410.309 h -90.476 z m 299.203,-27.05 h 9.136 v -74.853 h 11.668 v -70.503 h 6.486 v 70.503 h 11.669 v 74.853 h 9.136 v 410.309 h -48.095 z" /></g><g
     id="g923"
     transform="matrix(0.66797933,0,0,0.66797933,250.11709,-51.77279)"><g
       id="g921"><path
         inkscape:connector-curvature="0"
         id="path919"
         style="fill:#538092"
         d="M 477.357,953.003 V 840.14 h 28.227 V 739.134 h 8.249 v -51.23 h 48.716 v 51.23 h 8.248 V 840.14 h 28.228 v 141.969 h 65.213 v -9.96 c 0,-59.195 46.973,-107.506 105.647,-109.658 v -21.639 h 8.171 v 21.639 c 58.673,2.152 105.647,50.463 105.647,109.658 h 0.35 v 30.591 h 36.418 v -11.325 h 22.059 v -10.67 h 22.06 V 969.9 h 22.059 v -18.178 h 22.061 v -15.669 h 23.79 v -20.691 h 8.17 v 20.691 h 27.19 v 15.669 h 10.49 v 27.914 h 48.71 v 24.584 h 43.8 v -51.483 h 90.48 v 51.483 h 42.44 v 262.6 h -235.92 v -24.59 h -31.28 v -27.91 h -27.87 v 7.37 h -22.061 v 10.84 H 964.59 v 10.67 H 928.477 708.661 v -30.58 h -36.493 v 9.96 h -73.143 v 45.3 H 477.357 409.725 288.057 -33.826 V 953.003 h 302.749 v -22.372 h 19.134 V 840.14 h 121.668 v 90.491 h 19.134 v 22.372 z" /></g></g><g
     transform="matrix(0.66797933,0,0,0.66797933,19.192812,-51.77279)"
     id="g14"><g
       id="g12"><path
         d="M 477.357,953.003 V 840.14 h 28.227 V 739.134 h 8.249 v -51.23 h 48.716 v 51.23 h 8.248 V 840.14 h 28.228 v 141.969 h 65.213 v -9.96 c 0,-59.195 46.973,-107.506 105.647,-109.658 v -21.639 h 8.171 v 21.639 c 58.673,2.152 105.647,50.463 105.647,109.658 h 0.35 v 30.591 h 36.418 v -11.325 h 22.059 v -10.67 h 22.06 V 969.9 h 22.059 v -18.178 h 22.061 v -15.669 h 23.79 v -20.691 h 8.17 v 20.691 h 27.19 v 15.669 h 10.49 v 27.914 h 48.71 v 24.584 h 43.8 v -51.483 h 90.48 v 51.483 h 42.44 v 262.6 h -235.92 v -24.59 h -31.28 v -27.91 h -27.87 v 7.37 h -22.061 v 10.84 H 964.59 v 10.67 H 928.477 708.661 v -30.58 h -36.493 v 9.96 h -73.143 v 45.3 H 477.357 409.725 288.057 -33.826 V 953.003 h 302.749 v -22.372 h 19.134 V 840.14 h 121.668 v 90.491 h 19.134 v 22.372 z"
         style="fill:#538092"
         id="path10"
         inkscape:connector-curvature="0" /></g></g><g
     transform="matrix(0.70054795,0,0,0.41352591,32.655803,189.44737)"
     id="g811"><rect
       x="-56.547001"
       y="1272.3199"
       width="1622.21"
       height="202.254"
       style="fill:#ebebeb"
       id="rect809" /></g><g
     transform="matrix(0.70054795,0,0,0.12249138,32.655803,547.35056)"
     id="g815"><rect
       x="-56.547001"
       y="1272.3199"
       width="1622.21"
       height="202.254"
       style="fill:#c1c1c3"
       id="rect813" /></g><g
     id="g2714"><path
       style="fill:#63639b;fill-opacity:1;stroke:#63639b;stroke-width:0.055633;stroke-opacity:1"
       inkscape:connector-curvature="0"
       d="m 244.67827,529.86063 c -3.33064,-2.16312 -7.17687,-3.44324 -11.11503,-3.89075 -0.003,5.04936 0.006,10.09872 -0.006,15.14507 -2.98104,0.0148 -5.96497,0.0207 -8.9489,-0.006 -0.0296,1.43711 -0.0296,2.87434 -0.006,4.31445 13.71976,-0.006 27.43651,-0.0237 41.15326,0.006 -0.0238,2.97214 -0.0207,5.94716 0,8.9223 -42.28483,0.12707 -41.62748,-0.22064 -43.78459,0.31411 -4.53965,0.93341 -8.40958,4.46554 -9.79051,8.88369 -0.62821,1.81052 -0.67861,3.75144 -0.6074,5.65086 0.008,0.66971 0.29041,1.28312 0.5215,1.89942 -6.68507,3.38404 -11.60403,9.98601 -13.00264,17.34079 -0.64356,3.09966 -0.43872,3.89053 -0.47411,25.48669 -2.81213,0.1452 -5.81676,-0.4741 -8.44219,0.83271 -2.54543,1.22683 -4.55445,3.87295 -4.61664,6.74138 0.30231,1.58877 0.26326,0.0628 0.24,27.69131 -0.0326,2.21653 0.1778,4.45375 -0.24,6.65247 0.12149,3.84336 3.55294,7.17399 7.34588,7.50578 1.89942,0.12451 3.80474,0.0148 5.70417,0.0593 0.003,3.83445 0.0178,7.66589 -0.006,11.50023 -2.12162,0.72601 -3.90844,2.53953 -4.24335,4.80335 -0.2104,1.92311 -0.2726,4.05364 0.83561,5.73676 1.07561,1.74242 3.08173,2.82392 5.12046,2.83583 3.36924,0.003 6.73838,0.0178 10.10762,-0.006 1.92011,-0.0356 3.70704,-1.07561 4.83005,-2.60763 2.92763,-0.0652 5.85826,0.008 8.786,-0.0296 0.42671,0.0683 0.66671,-0.3141 0.89781,-0.5897 1.79872,-2.22833 3.52323,-4.52186 5.39895,-6.68798 -0.0458,5.62627 1.35566,10.83842 4.73525,15.51548 2.53866,3.38203 3.89265,3.97898 5.99758,6.00347 -2.80914,0.1808 -5.62717,0.0474 -8.43931,0.0859 -3.77814,-0.0326 -7.55917,0.0682 -11.33733,-0.0504 0,-0.73191 0,-1.45792 0.003,-2.18682 4.07144,-0.1185 8.14889,-0.0208 12.22334,-0.0504 1.46682,-0.0385 2.98994,0.237 4.40635,-0.2667 -5.63606,0.0474 -11.26912,0 -16.90518,0.0237 0.003,0.9215 0.003,1.84612 0,2.77063 6.73837,0.0119 13.47675,0.003 20.21512,0.003 0.55411,-0.0504 1.03422,0.24301 1.49352,0.50081 4.69376,2.73503 10.33271,3.81364 15.70508,3.01653 12.50395,-1.71283 21.91193,-13.02479 21.05073,-25.89269 2.52764,2.43283 4.86266,5.05826 7.32208,7.55618 0.3022,0.3526 0.81491,0.2222 1.21792,0.2667 22.31605,-0.0385 44.63499,0.0208 66.94815,-0.0326 0.92751,-0.96012 1.52901,-2.19283 2.31422,-3.26844 0.92039,6.42538 3.12935,9.11245 4.67005,11.91813 -4.00924,0.1185 -8.02439,0.0889 -12.03363,0.0178 -0.0296,-0.83272 -0.0593,-1.66532 -0.1244,-2.49214 -0.47109,0.88011 -0.2252,1.91132 -0.2667,2.86544 14.67063,0.0833 12.46857,-0.31967 13.52415,0.7141 3.78404,4.48635 9.2512,7.50288 15.05906,8.33259 13.24276,2.02192 25.74716,-7.14305 27.91061,-20.46703 0.61041,0.76751 0.99561,1.77202 1.77203,2.37653 1.54381,0.08 3.09363,-0.008 4.64045,0.0326 1.14971,1.47272 2.86543,2.56613 4.77376,2.61653 3.37213,0.0356 6.74727,0.008 10.11941,0.0148 2.26982,0.0296 4.49225,-1.29791 5.48786,-3.34253 0.82381,-1.58532 0.77341,-3.45214 0.57491,-5.17676 -0.34671,-2.28763 -2.12463,-4.15144 -4.28775,-4.86555 -0.0119,-9.24231 -0.0207,-18.48461 0.003,-27.72391 1.46381,-0.0207 2.93653,0.1096 4.38855,-0.0978 1.98243,-0.41781 3.78404,-2.20763 3.84925,-4.27884 -0.41781,-2.29352 -0.19261,-4.62856 -0.2311,-6.94578 0.0267,-2.22243 -0.17191,-4.45965 0.2311,-6.66138 -0.0207,-1.44901 -1.02532,-2.76173 -2.19573,-3.54994 -1.93502,-1.28601 -4.35294,-0.5926 -6.51907,-0.8149 -0.60751,-3.50811 0.062,-1.28279 -18.5646,-45.82332 -1.09642,-2.74393 -2.90694,-5.19156 -5.21526,-7.03768 0.7378,-0.74671 1.45792,-1.65353 1.42832,-2.76474 0.16612,-7.80686 -6.23312,-14.65283 -14.22045,-14.83686 -14.81907,-0.003 -29.63524,0.006 -44.4513,-0.006 0,-2.98104 0,-5.96497 0,-8.946 10.18751,-0.009 20.37513,-0.0237 30.55975,0.006 0.0267,-1.43711 0.0267,-2.87733 -0.003,-4.31745 -41.10875,0.0474 -82.21461,-0.003 -123.32047,0.0267 -0.3763,-0.0652 -1.03121,0.13329 -1.16451,-0.37341 -1.7343,-4.47712 -4.94944,-8.33527 -9.00309,-10.8985 m -3.28033,3.01063 c 3.30103,1.88763 6.17825,4.69075 7.71617,8.2052 -2.63745,0.10103 -10.49927,0.0451 -11.22472,0.0237 -0.0533,-3.27734 -0.0652,-6.56058 0.006,-9.83791 1.20323,0.4593 2.37374,0.99271 3.50265,1.60901 m 101.99383,12.82792 c -0.0385,2.88323 -0.0267,5.76647 -0.008,8.65259 -24.46737,0.0356 -48.93764,0.0119 -73.40791,0.0119 0.003,-2.89503 0.006,-5.78716 -0.003,-8.6793 24.47339,-0.0148 48.94667,-0.0445 73.41983,0.0148 m 49.58605,13.03525 c 4.75306,0.5334 8.77109,4.77075 8.98751,9.5623 -3.90955,-0.009 -182.65158,0.0152 -186.20897,-0.0267 0.0504,-1.79572 0.31999,-3.64474 1.28601,-5.19456 1.38681,-2.33803 3.89364,-4.15145 6.65236,-4.31145 2.49403,-0.24912 -4.93131,-0.0833 164.79963,-0.1511 1.49352,0 2.99584,-0.0771 4.48346,0.12151 m 3.01653,13.57155 c -0.1304,0.0652 -0.3911,0.1956 -0.5215,0.2608 3.34254,0.39711 6.54867,2.03873 8.6645,4.68185 1.52467,1.78226 0.58915,0.0803 18.4994,42.82448 1.02232,2.26092 1.78682,4.64924 2.08613,7.11768 0.83905,0.33958 0.45185,-0.92552 0.5393,28.2217 -0.0356,0.93342 0.1896,1.95573 -0.3526,2.78844 l 0.006,0.33191 c -1.25052,-2.44463 -2.30242,-4.99306 -3.74844,-7.33399 -10.22111,-17.3745 -28.93726,-28.21626 -48.61464,-28.37581 -0.4919,0.1482 -0.99271,0.2963 -1.51421,0.30521 -166.04104,-0.0758 -155.51495,0.18425 -157.11306,-0.29631 -2.14832,-0.08 -4.29664,-0.0326 -6.44797,-0.0296 0.0889,-3.17653 -1.57942,-6.33537 -4.40635,-7.85258 -0.33491,-2.89214 -0.0652,-5.81676 -0.1511,-8.7237 0.0504,-1.81052 -0.1422,-3.63584 0.1511,-5.43155 l -0.0326,-0.1985 c 3.55295,0.1185 7.10878,0.0385 10.65872,0.0444 0.0326,-1.40752 0.0296,-2.81503 0,-4.22255 -3.56474,0.003 -7.13248,-0.0444 -10.69722,0.0267 l 0.0267,-0.2133 c -0.13631,-1.1349 -0.10671,-2.28173 -0.0948,-3.42253 4.34705,-0.0207 8.69409,-0.003 13.04415,-0.0237 0,-1.42833 -0.006,-2.85653 0.008,-4.28486 -3.10387,-0.0571 -7.07884,0.027 -12.52253,-0.0385 0.27261,-1.22381 0.71122,-2.39722 1.13191,-3.57364 l 0.2845,-0.0474 -0.08,-0.4741 c 3.74254,-0.10671 7.48808,0.0237 11.23063,-0.0741 0.96601,-0.0296 1.93502,-0.0237 2.88912,0.1304 l -0.2756,0.24 0.3289,-0.0207 c -0.008,-1.38682 -0.0118,-2.77063 0,-4.15445 -0.2341,-0.0148 -0.7052,-0.0444 -0.9393,-0.0593 -3.55884,0.0474 -7.12058,0.0178 -10.68243,0.0148 3.41364,-4.38855 8.7,-7.33988 14.25906,-7.75768 l 0.27562,-0.0652 -0.30221,-0.20451 c 1.93013,-0.37174 -7.36068,-0.20072 170.4683,-0.2489 1.31528,-0.006 2.63689,-0.0357 3.94371,0.13908 m -193.77661,47.42926 c 1.21792,1.31572 0.97792,3.21803 0.98082,4.86265 -0.0178,10.07792 0,20.15583 -0.006,30.23374 0.08,2.07133 -1.58832,4.09514 -3.68624,4.25225 -1.20011,0.1037 -2.45653,0.2489 -3.63295,-0.0978 -1.84902,0.38521 -4.14554,0.157 -5.34265,-1.47572 -1.06081,-1.35422 -0.83272,-3.15884 -0.84752,-4.76184 0.0208,-10.07791 0.003,-20.15883 0.008,-30.23674 -0.0677,-3.00996 2.58715,-4.97882 6.19017,-4.16335 2.12173,-0.37329 4.85085,-0.4919 6.33536,1.38682 m 177.50008,7.85549 0.0356,0.15109 c 22.08596,3.12458 41.95349,21.49002 44.8039,46.93742 -2.68173,0.0267 -5.36046,-0.006 -8.03919,0.0296 -3.73108,1.15794 -4.87111,2.95979 -5.22716,6.71768 -0.4504,-0.0178 -0.90381,-0.0326 -1.35422,-0.0445 -3.48473,-5.11156 -6.94878,-10.23791 -10.41282,-15.36426 -1.85202,-3.06104 -5.35156,-5.02856 -8.946,-4.87746 -19.56367,0.076 -19.67093,-0.21752 -21.69374,0.44151 -2.01202,0.5926 -3.79884,1.87272 -5.04936,3.55583 -2.82104,3.96184 -5.38716,8.10439 -8.26149,12.02774 -0.1106,-4.93609 -0.0867,-45.12935 -0.0267,-50.14366 23.49258,0.18493 13.55753,-0.30776 24.17119,0.56902 m -28.48842,-0.41781 c -0.0385,15.55398 0.0326,31.10795 -0.0356,46.65892 -2.26526,0.0432 -57.69405,0.0172 -67.00444,0.003 -1.23273,-0.0356 -2.59584,0.2252 -3.68625,-0.51261 -1.98531,-1.2593 -4.32925,-1.85502 -6.67317,-1.85201 -11.26323,-0.006 -22.52934,-0.0118 -33.79257,0 -2.76474,0.006 -5.64196,-0.21041 -8.25259,0.883 -2.20463,0.86231 -4.12775,2.35873 -5.56497,4.23145 -1.26532,1.60011 -2.55434,3.17653 -3.79884,4.79445 -1.99422,0.0474 -3.98844,0.003 -5.98278,0.0296 -0.0385,-1.98833 -0.7704,-3.90554 -2.20762,-5.29826 -3.11055,-1.99845 -3.34243,-1.26798 -11.29283,-1.42832 -0.0652,-4.04485 -0.0385,-8.09549 -0.0148,-12.14334 3.43824,-2.28229 4.65148,-4.52251 4.51896,-8.9045 -0.0415,-8.8126 0.0415,-17.6282 -0.0445,-26.44079 1.29235,-0.21263 -8.48369,-0.16367 141.98578,-0.1541 0.61942,0.003 1.23282,0.0625 1.84624,0.13362 m 81.54189,2.04162 c 0.65491,0.38232 0.39411,1.27122 0.46821,1.89642 -0.1037,3.90554 0.1452,7.82289 -0.1363,11.71953 -1.32751,0.15699 -2.66393,0.14821 -4.00034,0.1215 -0.003,-4.61965 -0.0267,-9.2364 0.0119,-13.85305 1.21781,0.0297 2.45642,-0.12139 3.65653,0.1156 m -36.9276,38.99904 c 1.77491,2.66093 3.56774,5.31006 5.39606,7.93549 0.63411,0.85341 0.83272,1.92901 0.80601,2.97514 -0.1116,13.71253 -12.11318,21.92384 -22.34275,20.34542 -9.24319,-0.3052 -18.34208,-9.1356 -18.24461,-19.75582 0.0385,-1.55572 -0.1719,-3.27734 0.77642,-4.62266 1.25641,-1.89653 2.52763,-3.78404 3.84034,-5.64196 0.8415,-1.20311 1.56462,-2.61954 2.94543,-3.28623 1.62092,-0.90671 3.53804,-0.74382 5.31896,-0.63111 5.40786,-0.1808 10.82462,-0.0237 16.23548,-0.083 2.10092,-0.1215 4.19895,0.93341 5.26866,2.76474 m -120.86394,7.64218 c 2.26393,12.70368 -7.89398,24.07128 -20.12322,23.82438 -1.15861,-0.0504 -2.40913,0.0622 -3.46994,-0.49191 -0.6252,-0.0296 -1.26231,-0.0385 -1.87572,-0.1985 -10.24047,-2.84819 -16.46446,-13.21928 -14.51976,-23.10726 1.67722,-0.11561 3.35734,-0.1096 5.03457,-0.0296 0.9749,-0.0563 1.94982,-0.0683 2.92172,-0.0533 -1.68901,5.47907 0.88602,11.90034 5.98578,14.56716 7.20091,3.9644 15.92894,-0.0807 18.02229,-7.44659 0.70521,-2.30242 0.5689,-4.74704 0.0504,-7.07027 2.65782,-0.0978 5.31885,-0.10082 7.97388,0.006 m -12.54045,0.0859 c 2.30654,5.03556 -0.90359,10.79958 -6.21977,11.60392 -5.71061,0.99672 -11.63641,-4.77632 -8.73849,-11.74034 1.30972,-0.0385 2.62243,-0.0415 3.93225,-0.0119 -0.81191,1.14682 -1.53791,2.46833 -1.37202,3.92925 0.0622,2.70243 2.72913,4.94855 5.40497,4.59295 2.35873,-0.17191 4.32924,-2.26393 4.44774,-4.60786 0.1452,-1.47271 -0.5778,-2.82982 -1.49341,-3.92034 1.33931,0.0713 2.75272,-0.21909 4.03873,0.15432 m -6.79457,1.48462 c 1.66532,0.42671 1.84312,2.95734 0.41191,3.77214 -1.22081,0.8089 -3.07583,-0.083 -3.19433,-1.54382 -0.21642,-1.46982 1.3778,-2.78843 2.78242,-2.22832 m 95.55207,0.73781 c 0.0178,1.03422 0.0267,2.07132 0.0326,3.10543 -1.88017,0.17235 -60.83208,0.23466 -62.32249,-0.0148 -1.14681,-0.86821 -2.05352,-2.00612 -3.01953,-3.06104 2.99205,-0.0971 64.43365,-0.0556 65.30943,-0.0296 m 76.84524,0.6163 -0.30219,0.1363 c 1.62681,0.47711 1.64462,2.37653 1.39571,3.75144 -0.1245,0.71122 -0.79121,1.11711 -1.39271,1.40463 l 0.3022,0.1274 c -1.99133,0.44739 -4.04485,0.1511 -6.06578,0.2282 -1.72161,-0.0474 -3.47583,0.18971 -5.16785,-0.237 l 0.3052,-0.1185 c -1.36902,-0.4504 -1.59722,-1.93791 -1.42231,-3.18543 -0.1037,-0.93341 0.643,-1.62381 1.42231,-1.97051 l -0.3052,-0.12741 c 1.98832,-0.4593 4.04184,-0.15699 6.05687,-0.2341 1.72451,0.0413 3.47873,-0.18392 5.17375,0.22498 m -217.1983,0 -0.30521,0.1304 c 1.68901,0.46231 1.73942,2.45353 1.41642,3.85815 -0.18081,0.66971 -0.82081,1.04601 -1.41642,1.30682 l 0.3022,0.1274 c -1.89052,0.4415 -3.84624,0.163 -5.76937,0.2282 -1.81942,-0.0593 -3.67143,0.20451 -5.45825,-0.243 l 0.3052,-0.11849 c -1.19421,-0.44452 -1.57052,-1.72163 -1.39861,-2.88613 -0.14221,-1.00752 0.5067,-1.88162 1.40161,-2.26682 l -0.3052,-0.11851 c 1.78382,-0.4593 3.63884,-0.19259 5.45525,-0.2489 1.92313,0.0679 3.87885,-0.21652 5.77238,0.23088 z"
       id="path1270" /><path
       style="fill:#f28166;stroke:#f28166;stroke-width:0.055633"
       inkscape:connector-curvature="0"
       d="m 241.39793,532.87126 c -1.12901,-0.6163 -2.29942,-1.14971 -3.50255,-1.60902 -0.0711,3.27734 -0.0593,6.56058 -0.006,9.83791 1.1082,0.0326 2.21352,0.0356 3.32173,0.009 0.0801,-2.74392 -0.1807,-5.50566 0.18671,-8.23779 z"
       id="path1272" /><path
       style="fill:#ff9578;stroke:#ff9578;stroke-width:0.055633"
       inkscape:connector-curvature="0"
       d="m 249.11422,541.07645 c -1.53792,-3.51433 -4.41525,-6.31756 -7.71618,-8.20519 -0.3674,2.73213 -0.10671,5.49387 -0.18671,8.23779 2.63422,0.0148 5.27156,0.0682 7.90289,-0.0326 z"
       id="path1274" /><path
       style="fill:#8aa8cd;stroke:#8aa8cd;stroke-width:0.055633"
       inkscape:connector-curvature="0"
       d="m 392.97872,558.73436 c -0.9225,-0.12317 -166.56096,-0.24234 -169.28297,0.0296 2.70542,0.16891 5.41675,-0.0207 8.11918,0.14521 -2.03361,2.71911 -3.64263,3.49786 -3.97965,9.3697 53.9692,0.0267 107.94129,0.0267 161.9135,0 -0.16589,-3.76034 -2.22242,-7.20069 -5.13525,-9.506 2.78832,-0.0859 5.57676,-0.0593 8.36519,-0.0385 z"
       id="path1276" /><path
       style="fill:#9cbad8;stroke:#9cbad8;stroke-width:0.055633"
       inkscape:connector-curvature="0"
       d="m 401.96611,568.29666 c -0.2163,-4.79155 -4.23444,-9.0289 -8.9875,-9.5623 -2.78844,-0.0207 -5.57676,-0.0474 -8.36519,0.0385 2.91283,2.30543 4.96935,5.74566 5.13525,9.50601 4.07155,0.0385 8.146,0.009 12.21744,0.0178 z"
       id="path1278" /><path
       style="fill:#7799bc;stroke:#7799bc;stroke-width:0.055633"
       inkscape:connector-curvature="0"
       d="m 231.81493,558.90915 c -2.70243,-0.16589 -5.41376,0.0237 -8.11918,-0.1452 -2.75874,0.16 -5.26567,1.97353 -6.65237,4.31145 -0.96602,1.54971 -1.23572,3.39884 -1.28602,5.19456 4.02705,0.0474 8.0511,0.0237 12.07815,0.009 0.33657,-5.8675 1.94114,-6.64436 3.97942,-9.36971 z"
       id="path1280" /><path
       style="fill:#414236;stroke:#414236;stroke-width:0.055633"
       inkscape:connector-curvature="0"
       d="m 395.99525,572.30591 c -1.61491,-0.21608 -167.98206,-0.12451 -168.10957,-0.12451 -2.09792,0.12451 -4.22555,-0.1659 -6.30276,0.2341 l 0.30219,0.20451 c 12.28943,-0.14632 158.99478,-0.0765 173.58853,-0.0533 0.13051,-0.0652 0.39121,-0.1956 0.52161,-0.2608 z"
       id="path1282" /><path
       style="fill:#ffffff;stroke:#ffffff;stroke-width:0.055633"
       inkscape:connector-curvature="0"
       d="m 395.47375,572.5666 c -0.87778,-10e-4 -172.74836,-0.14542 -173.86413,0.1185 1.54382,0.12451 3.09364,0.1511 4.64034,0.2459 -3.14103,2.00022 -6.22867,4.27294 -8.21699,7.49698 0.23411,0.0148 0.70521,0.0444 0.93932,0.0593 -0.0118,1.38381 -0.008,2.76762 0,4.15444 -4.32781,0.27294 -12.38535,-0.0861 -14.37757,0.2459 3.59734,0.48301 7.24508,0.003 10.86323,0.25781 -0.3022,1.11121 -0.61342,2.21942 -0.92752,3.32774 0.4889,0.008 0.97191,0.0178 1.45491,0.0267 -0.0148,1.42832 -0.008,2.85654 -0.008,4.28485 -4.35005,0.0207 -8.69699,0.003 -13.04415,0.0237 -0.0119,1.14081 -0.0415,2.28763 0.0948,3.42255 0.1333,-1.02821 0.2015,-2.06243 0.25191,-3.09364 3.58254,-0.0889 7.16508,-0.083 10.74461,-0.003 0.008,1.20601 -0.0208,2.41503 -0.1037,3.62104 -0.2163,2.76173 0.21931,5.52046 0.1156,8.28519 0.0563,3.48475 -0.1541,6.97549 0.12452,10.45422 16.32215,-23.9955 22.87493,-33.91364 23.86575,-34.99859 11.92994,-0.0948 23.86577,0 35.7987,-0.0444 0.003,12.04843 0.003,24.09697 0,36.14541 -0.17557,0 -57.06985,-0.0239 -60.01417,0.0504 0.40891,2.03872 0.22221,4.12484 0.11562,6.18427 21.81735,-0.0557 146.89193,-0.0412 158.62726,-0.008 19.63309,0.15922 38.37027,10.9617 48.61464,28.37581 1.44601,2.34092 2.49803,4.88936 3.74843,7.33398 -0.10881,-6.09125 -0.0168,-20.57284 -0.0593,-29.19361 -0.0462,-2.79078 -0.59838,-5.6808 -2.21942,-9.266 -17.92071,-42.76896 -16.97695,-41.04489 -18.4994,-42.82448 -2.11572,-2.64334 -5.32196,-4.28496 -8.66439,-4.68207 m 4.30844,14.65316 c 3.88184,9.79052 7.78739,19.57212 11.63952,29.37744 -3.44924,0.0178 -6.90137,-0.0326 -10.35351,0.0267 -0.73491,2.17202 -2.56613,3.95884 -4.82705,4.45965 -2.06243,0.39711 -4.17815,0.10959 -6.26427,0.2074 -0.0119,-1.56462 -0.009,-3.12624 -0.006,-4.68786 -12.92265,-0.0119 -25.84518,-0.003 -38.76483,-0.006 0.0119,-12.04554 0.0119,-24.09398 0,-36.13951 12.92855,0.006 25.85709,-0.006 38.78564,0.006 4.21953,0.0712 8.24658,2.82103 9.7904,6.75618 m -57.22274,-6.76497 c 0.0119,12.04843 0.003,24.09698 0.006,36.1424 -20.02253,-0.003 -40.04505,0.006 -60.06457,-0.003 0.0296,-12.04253 0.0296,-24.08807 0,-36.1306 20.01963,-0.0148 40.03915,0.003 60.05867,-0.009 z"
       id="path1284" /><path
       style="fill:#dddddd;stroke:#dddddd;stroke-width:0.055633"
       inkscape:connector-curvature="0"
       d="m 226.24996,572.93111 c -1.54682,-0.0948 -3.09652,-0.1215 -4.64034,-0.2459 -5.55907,0.41781 -10.84542,3.36913 -14.25906,7.75768 3.56184,0.003 7.12357,0.0326 10.68241,-0.0148 1.98832,-3.22405 5.07596,-5.49676 8.21699,-7.49699 z"
       id="path1286" /><path
       style="fill:#63639b;fill-opacity:1;stroke:#5a5b51;stroke-width:0.055633"
       inkscape:connector-curvature="0"
       d="m 399.78219,587.21976 c -1.54382,-3.93513 -5.57086,-6.68507 -9.79051,-6.75617 -12.92855,-0.0119 -25.85709,0 -38.78564,-0.006 0.0119,12.04554 0.0119,24.09397 0,36.13951 12.91965,0.003 25.84229,-0.006 38.76483,0.006 -0.003,1.56162 -0.006,3.12324 0.006,4.68786 2.08612,-0.0978 4.20184,0.18971 6.26427,-0.2074 2.26092,-0.50081 4.09225,-2.28763 4.82705,-4.45965 3.45214,-0.0593 6.90427,-0.008 10.35352,-0.0267 -3.85203,-9.80532 -7.75758,-19.58693 -11.63942,-29.37744 m -8.81849,-2.85353 c -0.13041,0.0948 -0.3911,0.2785 -0.52151,0.37341 2.42682,0.31711 4.62555,1.98243 5.47607,4.29375 3.06103,7.77549 6.18716,15.52728 9.2245,23.31466 -1.36312,0.003 -2.72913,-0.008 -4.09225,0.003 -0.86532,-2.14832 -2.73503,-3.97075 -5.07896,-4.33225 -1.93792,0.55411 -4.00624,0.14821 -6.00057,0.24891 -0.0148,1.37791 -0.0356,2.75872 0.0533,4.13664 -0.39711,0.41781 -0.97792,0.45341 -1.52012,0.4504 -32.91357,-0.11081 -31.786,0.14221 -33.08737,-0.2045 -0.6657,-0.70788 -0.42381,0.37129 -0.46231,-26.589 -0.0296,-0.78231 0.17781,-1.96462 1.22081,-1.81942 9.88231,-0.0474 19.77062,-0.0415 29.65293,-0.0356 1.71294,0.009 3.43455,-0.10382 5.13548,0.16 m 5.27745,28.34321 c 1.12902,0.88011 1.15561,2.75873 0.0504,3.67144 -0.54231,0.58081 -1.37202,0.58081 -2.10682,0.63411 0.0326,-1.63573 0.0178,-3.27144 0.0148,-4.90705 0.71121,0.0533 1.49341,0.08 2.04162,0.6015 z"
       id="path1288" /><path
       style="fill:#63639b;fill-opacity:1;stroke:#5a5b51;stroke-width:0.055633"
       inkscape:connector-curvature="0"
       d="m 342.55946,580.4548 c -20.01952,0.0119 -40.03904,-0.006 -60.05856,0.009 0.0296,12.04254 0.0296,24.08808 0,36.13061 20.01952,0.008 40.04204,0 60.06457,0.003 -0.003,-12.04565 0.006,-24.09408 -0.006,-36.14251 m -4.44785,3.90254 -0.0504,0.3526 h 0.2489 v 0.24301 l 0.34371,-0.0533 c 0.0532,9.0793 0.0504,18.16161 0.003,27.2409 l -0.3437,-0.0385 v 0.2548 h -0.24589 l 0.0356,0.3348 c -2.29374,0.0804 -40.21151,0.0569 -51.21047,-0.0207 -0.11783,-0.94253 -0.11594,-26.40485 -0.003,-28.29281 17.07409,-0.086 34.14818,-0.0949 51.22227,-0.0208 z"
       id="path1290" /><path
       style="fill:#63639b;fill-opacity:1;stroke:#5a5b51;stroke-width:0.055633"
       inkscape:connector-curvature="0"
       d="m 273.82449,580.4518 c -11.93294,0.0444 -23.86877,-0.0504 -35.7987,0.0444 -0.96701,1.05892 -24.10342,35.37633 -24.29247,35.7217 0.0208,0.10671 0.0563,0.32301 0.0771,0.42971 2.94432,-0.0742 59.8386,-0.0504 60.01417,-0.0504 0.003,-12.04843 0.003,-24.09697 0,-36.1454 m -4.46254,3.90554 -0.0267,0.35261 h 0.26971 v 0.243 l 0.317,-0.0415 c 0.0445,9.07039 0.0445,18.1438 0,27.21419 l -0.317,-0.0178 v 0.2548 l -0.2667,-0.003 0.0119,0.3348 c -8.28809,0.0889 -16.57629,-0.0148 -24.86738,0.0385 -0.93341,-0.0119 -1.92312,0.1304 -2.78844,-0.32301 6.34127,-9.2482 12.52254,-18.609 18.92022,-27.81281 l -0.2933,-0.0563 c 0.83271,-0.1985 1.68613,-0.2459 2.53352,-0.22821 2.16902,0.0328 4.33803,-0.0235 6.50717,0.0447 m -14.03976,0.3022 c -0.82081,1.28012 -1.68601,2.53352 -2.54832,3.78705 -1.82154,-0.007 -11.57555,0.007 -15.09467,-0.008 0.80601,-1.21191 1.60012,-2.43283 2.48022,-3.59446 l -0.2104,-0.0267 0.35261,-0.0207 0.0563,-0.42081 c 4.13966,-0.0593 8.2822,-0.0415 12.42185,-0.0919 0.8593,0.006 1.77791,-0.1066 2.54242,0.37641 m -5.36936,7.95629 c -0.84451,1.27121 -1.71572,2.52762 -2.56323,3.79884 -2.63934,0.0263 -14.9883,3.3e-4 -15.10057,0 0.75561,-1.19711 1.60012,-2.33502 2.32023,-3.55295 l 0.22821,0.0148 -0.3111,-0.13329 c 0.7437,-0.5482 1.68901,-0.4089 2.54833,-0.42081 3.25953,0.0622 6.51907,-0.0474 9.7786,-0.0415 1.04011,0.0267 2.14242,-0.1689 3.09953,0.33491 m -5.69536,7.95028 0.2815,-0.008 -0.0178,0.3348 -0.2667,-0.0148 c -0.6252,1.23271 -1.50231,2.30832 -2.23722,3.47294 l 0.2934,0.0385 c -0.4356,0.18081 -0.883,0.38231 -1.37201,0.3674 -3.55885,0.0326 -7.11769,-0.08 -10.67942,-0.0415 -1.01931,-0.006 -2.08912,0.1452 -3.05514,-0.28741 l -0.31711,0.008 c 0.78231,-1.30382 1.66532,-2.54544 2.52763,-3.79295 l 0.0178,-0.2815 c 4.22554,-0.0326 8.45108,-0.0444 12.67663,-0.0978 0.72902,-0.0207 1.47583,-0.003 2.14844,0.30231 m -5.13226,8.0511 c -0.84751,1.25942 -1.71872,2.50693 -2.53953,3.78404 l -0.24301,-0.0119 0.29631,0.1541 c -1.70683,0.3674 -3.46404,0.157 -5.19457,0.20151 -3.24773,-0.0563 -6.49837,-0.0178 -9.746,-0.0593 0.0188,-0.54932 0.0165,-0.20228 -0.0444,-0.8267 l 0.25781,0.0118 c 0.5926,-1.16451 1.38382,-2.20763 2.12763,-3.27144 3.23327,0.0484 8.69921,-0.013 15.08576,0.0179 z"
       id="path1292" /><path
       style="fill:#53544a;stroke:#53544a;stroke-width:0.055633"
       inkscape:connector-curvature="0"
       d="m 390.9637,584.36624 c -1.70093,-0.2637 -3.42254,-0.1511 -5.13526,-0.16 -9.88231,-0.006 -19.77062,-0.0119 -29.65293,0.0356 -1.043,-0.1452 -1.25051,1.03711 -1.22081,1.81942 0.0384,26.92035 -0.20829,25.87601 0.46231,26.589 1.27189,0.33881 -0.1087,0.0927 33.08737,0.20451 0.54231,0.003 1.12312,-0.0326 1.52012,-0.45041 -3.85392,-0.0615 -32.18155,-0.11471 -34.48298,-0.0711 -0.0444,-9.19781 -0.0533,-18.39861 0.003,-27.59941 11.63363,0.0385 23.26726,-0.0444 34.89789,0.006 0.13018,-0.095 0.39087,-0.27872 0.52128,-0.37352 z"
       id="path1294" /><path
       style="fill:#424337;stroke:#424337;stroke-width:0.055633"
       inkscape:connector-curvature="0"
       d="m 338.1116,584.35734 c -17.07409,-0.0741 -34.14818,-0.0652 -51.22227,0.0207 l -0.0207,0.34671 c 17.06519,-0.003 34.13038,-0.0119 51.19267,-0.0148 z"
       id="path1296" /><path
       style="fill:#414236;stroke:#414236;stroke-width:0.055633"
       inkscape:connector-curvature="0"
       d="m 269.36195,584.35734 c -2.16913,-0.0681 -4.33815,-0.0119 -6.50728,-0.0444 -0.84751,-0.0178 -1.70092,0.0296 -2.53353,0.22821 1.8112,0.34759 6.32981,0.10859 9.0141,0.1689 z"
       id="path1298" /><path
       style="fill:#444539;stroke:#444539;stroke-width:0.055633"
       inkscape:connector-curvature="0"
       d="m 255.32219,584.65954 c -0.76451,-0.48301 -1.68312,-0.37041 -2.54243,-0.3763 -4.13964,0.0504 -8.28218,0.0326 -12.42183,0.0919 l -0.0563,0.42081 c 5.00486,-0.12751 10.01561,0.0118 15.02057,-0.13641 z"
       id="path1300" /><path
       style="fill:#45463b;stroke:#45463b;stroke-width:0.055633"
       inkscape:connector-curvature="0"
       d="m 218.91898,584.42254 c -0.9541,-0.1541 -1.92312,-0.16 -2.88913,-0.1304 -3.74254,0.0978 -7.48808,-0.0326 -11.23062,0.0741 l 0.08,0.4741 c 4.58115,-0.2519 9.1801,0.0533 13.76414,-0.1778 z"
       id="path1302" /><path
       style="fill:#ffffff;stroke:#ffffff;stroke-width:0.055633"
       inkscape:connector-curvature="0"
       d="m 390.44219,584.73954 c -11.63063,-0.0504 -23.26426,0.0326 -34.89789,-0.006 -0.0563,9.20081 -0.0474,18.40161 -0.003,27.59941 2.30353,-0.0436 30.63028,0.01 34.48297,0.0711 -0.0937,-1.45214 -0.0725,-3.7036 -0.0385,-4.47156 1.99422,-0.0445 4.00034,-0.1333 5.98566,0.0859 2.34393,0.3615 4.21375,2.18392 5.07895,4.33225 1.36312,-0.0119 2.72914,0 4.09225,-0.003 -3.03733,-7.78738 -6.16346,-15.53918 -9.2245,-23.31466 -0.8504,-2.3111 -3.04913,-3.97642 -5.47595,-4.29353 m -26.5772,0.40601 c 0.0148,8.9163 0.0148,17.83559 0,26.75201 -2.66983,0.1156 -5.34566,0.0859 -8.01849,0.0118 -0.0665,-2.28652 -0.072,-23.5185 0.003,-26.77571 2.66982,-0.074 5.34565,-0.0978 8.01548,0.0119 z"
       id="path1304" /><path
       style="fill:#ffffff;stroke:#ffffff;stroke-width:0.055633"
       inkscape:connector-curvature="0"
       d="m 338.31021,584.70994 c -8.37632,0 -34.53816,0.0119 -51.44157,0.0148 -0.10371,9.20381 -0.0652,18.41051 -0.0178,27.61431 31.79235,0.0332 48.60863,0.0178 51.46226,0.0178 0,-1.1e-4 -0.003,-27.6468 -0.003,-27.64691 m -43.16528,0.4267 c 0.0148,8.9252 0.0178,17.84751 -0.003,26.76981 -2.67874,0.0889 -5.36347,0.0889 -8.0422,0.003 -0.0887,-2.2508 -0.0686,-22.3037 0,-26.7727 2.67873,-0.086 5.36346,-0.086 8.04519,-1.1e-4 z"
       id="path1306" /><path
       style="fill:#ffffff;stroke:#ffffff;stroke-width:0.055633"
       inkscape:connector-curvature="0"
       d="m 269.60495,584.70994 c -5.2127,0 -6.71133,0.10437 -8.9904,-0.1126 -6.39756,9.2038 -12.57883,18.56461 -18.92021,27.81281 6.68919,-0.10548 27.79923,-0.0486 27.91061,-0.0474 0,-1.2e-4 0,-27.65271 0,-27.65282 z"
       id="path1308" /><path
       style="fill:#ffffff;stroke:#ffffff;stroke-width:0.055633"
       inkscape:connector-curvature="0"
       d="m 255.32219,584.65954 c -5.07117,0.1501 -12.79758,0.006 -15.37317,0.15699 3.13525,0.39745 5.04179,0.0694 7.83179,0.18671 -0.67261,1.17931 -1.42532,2.31422 -2.20763,3.42543 2.40023,0.0326 4.80046,0.008 7.20068,0.0178 0.86221,-1.25341 1.72752,-2.50681 2.54833,-3.78693 z"
       id="path1310" /><path
       style="fill:#414236;stroke:#414236;stroke-width:0.055633"
       inkscape:connector-curvature="0"
       d="m 338.65391,584.89954 -0.3437,0.0533 c -0.008,9.0497 -0.0148,18.0994 0.003,27.14899 l 0.3437,0.0386 c 0.0474,-9.07919 0.0503,-18.16138 -0.003,-27.24079 z"
       id="path1312" /><path
       style="fill:#424337;stroke:#424337;stroke-width:0.055633"
       inkscape:connector-curvature="0"
       d="m 269.92195,584.91144 -0.317,0.0415 c -0.006,9.0497 -0.006,18.1023 0,27.155 l 0.317,0.0178 c 0.0445,-9.0705 0.0445,-18.14391 0,-27.2143 z"
       id="path1314" /><path
       style="fill:#dddddd;stroke:#dddddd;stroke-width:0.055633"
       inkscape:connector-curvature="0"
       d="m 247.7807,585.00335 c -2.53942,-0.1067 -5.09376,0.1867 -7.62138,-0.16 -0.88012,1.16162 -1.67422,2.38243 -2.48023,3.59444 2.63132,0.0119 5.26265,0.0178 7.89398,-0.008 0.78242,-1.11132 1.53502,-2.24624 2.20763,-3.42554 z"
       id="path1316" /><path
       style="fill:#dddddd;stroke:#dddddd;stroke-width:0.055633"
       inkscape:connector-curvature="0"
       d="m 204.59472,584.88775 c -0.42081,1.17641 -0.85931,2.34982 -1.1319,3.57364 3.68924,0.0444 7.38138,0.0207 11.06761,0.0119 0.3141,-1.10821 0.62521,-2.21653 0.92752,-3.32774 -3.61815,-0.25491 -7.26589,0.2252 -10.86323,-0.2578 z"
       id="path1318" /><path
       style="fill:#dddddd;stroke:#dddddd;stroke-width:0.055633"
       inkscape:connector-curvature="0"
       d="m 363.86499,585.14554 c -2.66983,-0.10959 -5.34566,-0.0859 -8.01548,-0.0119 -0.0752,3.27044 -0.0693,24.49286 -0.003,26.7757 2.67283,0.0741 5.34866,0.1037 8.01849,-0.0118 0.0148,-8.91641 0.0148,-17.83571 0,-26.75201 z"
       id="path1320" /><path
       style="fill:#dddddd;stroke:#dddddd;stroke-width:0.055633"
       inkscape:connector-curvature="0"
       d="m 295.14493,585.13665 c -2.68173,-0.0859 -5.36636,-0.0859 -8.0452,0 -0.08,5.21258 -0.0773,24.81141 0,26.77269 2.67874,0.0859 5.36347,0.0859 8.0422,-0.003 0.0208,-8.92219 0.0178,-17.8445 0.003,-26.7697 z"
       id="path1322" /><path
       style="fill:#444539;stroke:#444539;stroke-width:0.055633"
       inkscape:connector-curvature="0"
       d="m 249.95283,592.61583 c -0.95711,-0.5037 -2.05942,-0.30821 -3.09953,-0.3348 -3.25954,-0.006 -6.51908,0.1037 -9.77861,0.0415 -0.8593,0.0119 -1.80462,-0.12741 -2.54832,0.4208 5.14104,-0.0771 10.2882,0.008 15.42646,-0.12751 z"
       id="path1324" /><path
       style="fill:#fffffe;stroke:#fffffe;stroke-width:0.055633"
       inkscape:connector-curvature="0"
       d="m 249.95283,592.61583 c -5.13826,0.13631 -10.28531,0.0504 -15.42657,0.1274 l 0.3111,0.13329 c 2.51872,0.15701 5.04635,0 7.56808,0.0741 -0.7052,1.16752 -1.43711,2.31433 -2.16612,3.46694 2.38242,0.0206 4.76786,0.0206 7.15028,-0.003 0.84751,-1.27111 1.71873,-2.52752 2.56323,-3.79873 z"
       id="path1326" /><path
       style="fill:#dddddd;stroke:#dddddd;stroke-width:0.055633"
       inkscape:connector-curvature="0"
       d="m 242.40544,592.95063 c -2.65147,-0.0779 -4.97937,0.094 -7.79618,-0.0889 -0.72011,1.21793 -1.56462,2.35573 -2.32023,3.55295 2.64913,0.008 5.30115,0.003 7.95029,0.003 0.72901,-1.15271 1.46092,-2.29952 2.16612,-3.46704 z"
       id="path1328" /><path
       style="fill:#dddddd;stroke:#dddddd;stroke-width:0.055633"
       inkscape:connector-curvature="0"
       d="m 214.02373,593.13433 c -3.57965,-0.08 -7.16219,-0.0859 -10.74462,0.003 -0.0871,1.78258 -0.18092,2.52584 -0.2785,3.30693 3.56474,-0.0711 7.13248,-0.0237 10.69722,-0.0267 0.0296,1.40751 0.0326,2.81503 0,4.22254 -3.54994,-0.006 -7.10577,0.0741 -10.65872,-0.0444 0.47066,2.8671 0.15355,4.50305 0.23411,7.11178 -0.077,2.41203 0.21629,4.84786 -0.20151,7.24208 2.82694,1.51722 4.49514,4.67595 4.40636,7.85259 2.15132,-0.003 4.29964,-0.0504 6.44796,0.0296 0.14221,-2.74605 0.28975,-4.13342 -0.19259,-6.61387 0.1363,-0.2489 0.2815,-0.4889 0.4267,-0.723 -0.27849,-3.47884 -0.0682,-6.96948 -0.12451,-10.45422 0.1037,-2.76473 -0.3319,-5.52346 -0.1156,-8.28519 0.0829,-1.20612 0.1126,-2.41503 0.1037,-3.62115 z"
       id="path1330" /><path
       style="fill:#46473b;stroke:#46473b;stroke-width:0.055633"
       inkscape:connector-curvature="0"
       d="m 244.25746,600.56611 c -0.67271,-0.3052 -1.41942,-0.323 -2.14832,-0.30219 -4.22555,0.0533 -8.4511,0.0652 -12.67663,0.0978 l -0.0178,0.2815 c 4.94855,0.006 9.89711,0.0207 14.84276,-0.0771 z"
       id="path1332" /><path
       style="fill:#dddddd;stroke:#dddddd;stroke-width:0.055633"
       inkscape:connector-curvature="0"
       d="m 244.53897,600.55722 c -3.60302,0.11382 -13.14786,0.0883 -15.12427,0.0859 -0.86231,1.24751 -1.74532,2.48913 -2.52763,3.79295 5.26555,-0.14765 10.27207,0.0648 15.42358,-0.0474 -2.44108,-0.32045 -4.88281,-5.6e-4 -7.33989,-0.18671 0.67861,-1.14971 1.39572,-2.27572 2.12462,-3.39583 3.44391,-0.0513 4.91762,-0.0534 7.42589,0.0859 z"
       id="path1334" /><path
       style="fill:#ffffff;stroke:#ffffff;stroke-width:0.055633"
       inkscape:connector-curvature="0"
       d="m 244.25445,600.87733 c -2.38242,-0.1422 -4.77374,-0.1067 -7.15917,-0.0711 -0.72902,1.1201 -1.44601,2.24612 -2.12463,3.39583 2.34682,0.17781 4.70566,-0.1067 7.04659,0.14821 0.7349,-1.16462 1.61201,-2.24034 2.23721,-3.47294 z"
       id="path1336" /><path
       style="fill:#f1f1f2;stroke:#f1f1f2;stroke-width:0.055633"
       inkscape:connector-curvature="0"
       d="m 203.2731,607.70749 c -0.0711,-2.30242 0.21041,-4.62854 -0.2015,-6.91317 -0.29341,1.79573 -0.1008,3.62104 -0.1511,5.43156 0.0859,2.90693 -0.1837,5.83167 0.1511,8.72369 0.41781,-2.39422 0.12451,-4.82994 0.2015,-7.24208 z"
       id="path1338" /><path
       style="fill:#44463a;stroke:#44463a;stroke-width:0.055633"
       inkscape:connector-curvature="0"
       d="m 242.31065,604.38865 c -5.03457,0.1096 -10.07202,-0.0919 -15.10647,0.0385 0.96601,0.43261 2.03572,0.28151 3.05514,0.28741 3.56185,-0.0385 7.12057,0.0741 10.67941,0.0415 0.4889,0.0149 0.93631,-0.18659 1.37192,-0.3674 z"
       id="path1340" /><path
       style="fill:#404137;stroke:#404137;stroke-width:0.055633"
       inkscape:connector-curvature="0"
       d="m 395.97155,608.0186 c -1.98532,-0.21931 -3.99144,-0.13041 -5.98566,-0.0859 l -0.0148,0.3348 c 1.99422,-0.10069 4.06254,0.30532 6.00046,-0.2489 z"
       id="path1342" /><path
       style="fill:#fefefe;stroke:#fefefe;stroke-width:0.055633"
       inkscape:connector-curvature="0"
       d="m 239.12521,608.61721 c -2.44763,-0.0119 -4.89815,-0.0267 -7.34878,0.006 -0.66381,1.12602 -1.39272,2.21354 -2.14531,3.28324 -3.6413,0.13007 -5.86406,0.0496 -7.977,-0.0474 0.0118,0.12149 0.0415,0.3585 0.0563,0.48 6.49715,-0.0632 14.35096,0.0366 14.87536,0.0622 0.8207,-1.277 1.69191,-2.52451 2.53943,-3.78393 z"
       id="path1344" /><path
       style="fill:#dddddd;stroke:#dddddd;stroke-width:0.055633"
       inkscape:connector-curvature="0"
       d="m 231.77643,608.6231 c -2.57803,-0.0207 -5.15607,0.0148 -7.73699,-0.0237 -0.74381,1.06382 -1.53491,2.10682 -2.12763,3.27145 2.57202,0.13329 5.14716,0.12739 7.71919,0.0356 0.75271,-1.06982 1.48162,-2.15723 2.14543,-3.28335 z"
       id="path1346" /><path
       style="fill:#fefefe;stroke:#fefefe;stroke-width:0.055633"
       inkscape:connector-curvature="0"
       d="m 396.24115,612.70945 c -0.54821,-0.52149 -1.33052,-0.5482 -2.04162,-0.6015 0.003,1.63572 0.0178,3.27144 -0.0148,4.90705 0.73491,-0.0533 1.56462,-0.0533 2.10682,-0.6341 1.10532,-0.91271 1.07861,-2.79145 -0.0504,-3.67145 z"
       id="path1348" /><path
       style="fill:#414338;stroke:#414338;stroke-width:0.055633"
       inkscape:connector-curvature="0"
       d="m 338.06721,612.35685 c -17.07409,0.008 -34.14518,0 -51.21637,-0.0178 l 0.0415,0.33191 c 11.11514,0.0784 48.95066,0.10003 51.21048,0.0207 z"
       id="path1350" /><path
       style="fill:#414237;stroke:#414237;stroke-width:0.055633"
       inkscape:connector-curvature="0"
       d="m 269.33825,612.35975 c -9.21271,0.0415 -18.4312,-0.0948 -27.64391,0.0504 0.8652,0.45341 1.85491,0.3111 2.78844,0.32301 8.29108,-0.0533 16.57917,0.0504 24.86737,-0.0386 z"
       id="path1352" /><path
       style="fill:#444539;stroke:#444539;stroke-width:0.055633"
       inkscape:connector-curvature="0"
       d="m 236.34267,612.38935 c -4.87445,-0.0622 -9.7549,-0.0978 -14.63236,-0.0504 l -0.0119,0.34669 c 3.24775,0.0415 6.49838,0.003 9.74601,0.0593 1.73052,-0.0444 3.48775,0.1659 5.19456,-0.2015 z"
       id="path1354" /><path
       style="fill:#7b7b7b;stroke:#7b7b7b;stroke-width:0.055633"
       inkscape:connector-curvature="0"
       d="m 202.21819,619.73523 c -1.48462,-1.87872 -4.21364,-1.76011 -6.33536,-1.38682 -0.78822,1.24752 -1.28902,2.68463 -1.26232,4.17514 0.0119,10.76543 0.008,21.53375 0,32.29917 -0.0267,1.48161 0.4741,2.91583 1.25341,4.16334 1.17642,0.34671 2.43283,0.20151 3.63295,0.0978 2.09792,-0.157 3.76623,-2.18092 3.68623,-4.25225 0.006,-10.07791 -0.0118,-20.15582 0.006,-30.23374 -0.003,-1.64462 0.23711,-3.54693 -0.98082,-4.86265 z"
       id="path1356" /><path
       style="fill:#656768;stroke:#656768;stroke-width:0.055633"
       inkscape:connector-curvature="0"
       d="m 195.88283,618.34841 c -3.6038,-0.81568 -6.25771,1.15672 -6.19017,4.16335 -0.006,10.07791 0.0119,20.15883 -0.008,30.23674 0.0148,1.60312 -0.21329,3.40774 0.84752,4.76184 1.1971,1.63272 3.49363,1.86093 5.34265,1.47572 -0.7793,-1.24751 -1.28011,-2.68173 -1.2534,-4.16334 0.008,-10.76542 0.0119,-21.53374 0,-32.29917 -0.0266,-1.49041 0.4741,-2.92762 1.26231,-4.17514 z"
       id="path1358" /><path
       style="fill:#44463a;stroke:#44463a;stroke-width:0.055633"
       inkscape:connector-curvature="0"
       d="m 185.55901,621.50135 c -0.2104,4.48336 -0.0326,8.97861 -0.0919,13.46786 0,20.85579 -0.0343,19.74079 0.0919,20.87592 0.41781,-2.19872 0.2074,-4.43594 0.24,-6.65247 0.0233,-27.53431 0.0683,-26.07105 -0.24,-27.69131 z"
       id="path1360" /><path
       style="fill:#494a3f;stroke:#494a3f;stroke-width:0.055633"
       inkscape:connector-curvature="0"
       d="m 372.55319,622.82286 c -11.76448,-0.0323 -136.86076,-0.0467 -158.62726,0.008 1.59777,0.48055 -8.9074,0.22052 157.11304,0.2963 0.52151,-0.008 1.02231,-0.15699 1.51422,-0.3052 z"
       id="path1362" /><path
       style="fill:#8aa8cd;stroke:#8aa8cd;stroke-width:0.055633"
       inkscape:connector-curvature="0"
       d="m 379.71827,627.59072 c -10.56882,-0.8731 -0.61285,-0.38365 -24.17096,-0.56891 -0.06,5.0152 -0.0839,45.20846 0.0267,50.14366 2.87433,-3.92335 5.44046,-8.06589 8.2615,-12.02773 1.25051,-1.68313 3.03733,-2.96324 5.04935,-3.55585 2.02004,-0.65812 2.11595,-0.36538 21.69374,-0.44149 3.59445,-0.1511 7.09399,1.81641 8.94601,4.87745 3.46404,5.12635 6.92797,10.25271 10.41282,15.36426 0.4504,0.0118 0.90381,0.0267 1.35422,0.0445 0.3556,-3.75344 1.49218,-5.55851 5.22716,-6.71768 -0.3022,-6.00057 -2.19873,-11.81144 -4.54555,-17.29929 -2.38243,-5.20346 -5.58266,-10.02751 -9.426,-14.26797 -1.91422,-2.33202 -4.27006,-4.24033 -6.57248,-6.17236 -4.86566,-3.77214 -10.24982,-6.99618 -16.13768,-8.87779 -3.3e-4,0 -0.0609,-0.25458 -0.11883,-0.50081 m -6.43017,6.47467 c -0.0823,3.2098 0.0565,2.48935 -0.009,6.15457 -2.03272,0.23999 -4.08034,0.0948 -6.11907,0.1274 -2.37052,-0.0207 -4.74115,0.0563 -7.10878,-0.0504 -0.0292,-1.35111 -0.10637,-3.2009 -0.0415,-6.28208 4.42415,-0.0205 8.8571,-0.11838 13.27825,0.0505 z"
       id="path1364" /><path
       style="fill:#8aa8cd;stroke:#8aa8cd;stroke-width:0.055633"
       inkscape:connector-curvature="0"
       d="m 351.22985,627.17291 c -1.47906,-0.17146 8.35318,-0.17513 -141.71317,-0.12739 -0.7052,-0.0267 -1.41642,0.0326 -2.11873,0.1482 2.24914,0.13931 4.50416,-0.0504 6.75029,0.157 0.0859,2.22242 0.0267,4.44774 0.0504,6.67317 18.6742,-0.06 98.03518,-0.069 101.37483,-0.006 0.0288,3.40619 0.0389,3.73464 -0.0831,6.21687 -3.26309,0.29496 -2.97046,-0.0228 -101.33332,0.13329 0.1037,11.91514 -0.0444,23.83027 0.0741,35.7424 1.43722,1.39272 2.16913,3.30994 2.20763,5.29826 1.99422,-0.0267 3.98855,0.0178 5.98276,-0.0296 1.24452,-1.61791 2.53354,-3.19432 3.79885,-4.79444 1.43711,-1.87272 3.36034,-3.36925 5.56496,-4.23144 2.61063,-1.09342 5.48786,-0.87711 8.2526,-0.88301 11.26322,-0.0118 22.52935,-0.006 33.79257,0 2.34393,-0.003 4.68785,0.5926 6.67318,1.85202 1.13869,0.77052 -3.22972,0.50092 67.88745,0.53041 -0.1837,-1.59712 -0.2074,-3.20324 -0.1719,-4.80636 0.0296,-13.91525 -0.0326,-27.83061 0.0296,-41.74586 0.99549,-0.0121 1.9882,-0.0624 2.98091,-0.12762 m -10.78322,6.85097 c -0.008,1.39862 -0.0385,2.80023 0.0237,4.19885 h -0.23411 c 0.077,0.68751 0.0533,1.38092 -0.0237,2.06832 -4.35295,0.1037 -8.7148,0.0859 -13.06785,0.006 -0.0187,-4.34249 0.0205,-0.74292 0.008,-6.28497 4.43005,-0.0414 8.86311,-0.0651 13.29304,0.0119 z"
       id="path1366" /><path
       style="fill:#44453a;stroke:#44453a;stroke-width:0.055633"
       inkscape:connector-curvature="0"
       d="m 424.72367,627.19072 c 0.3042,2.93252 0.0284,16.73306 0.1867,31.01014 0.54231,-0.83271 0.31711,-1.85502 0.3526,-2.78844 -0.0874,-29.15378 0.3002,-27.8819 -0.5393,-28.2217 z"
       id="path1368" /><path
       style="fill:#7799bc;stroke:#7799bc;stroke-width:0.055633"
       inkscape:connector-curvature="0"
       d="m 351.22985,627.17291 c -0.99271,0.0652 -1.98531,0.1156 -2.98103,0.12741 -0.0622,13.91525 0,27.8306 -0.0296,41.74585 -0.0356,1.60313 -0.0118,3.20914 0.17191,4.80635 0.93641,0 1.86982,-0.003 2.80323,-0.0207 0.0681,-15.55098 -0.003,-31.10495 0.0354,-46.65893 z"
       id="path1370" /><path
       style="fill:#7799bc;stroke:#7799bc;stroke-width:0.055633"
       inkscape:connector-curvature="0"
       d="m 214.14824,627.35072 c -2.24613,-0.20741 -4.50115,-0.0178 -6.75029,-0.157 0.0859,8.8126 0.003,17.6282 0.0445,26.44079 0.13241,4.37564 -1.07583,6.6191 -4.51895,8.90449 -0.0237,4.04776 -0.0504,8.09849 0.0148,12.14335 7.94817,0.16022 8.18227,-0.57024 11.29282,1.42832 -0.12529,-12.59029 0.0388,-45.60991 -0.0829,-48.75995 z"
       id="path1372" /><path
       style="fill:#9cbad8;stroke:#9cbad8;stroke-width:0.055633"
       inkscape:connector-curvature="0"
       d="m 379.75376,627.74181 c 0.0207,0.0889 0.0622,0.26082 0.083,0.34971 5.88797,1.88162 11.27213,5.10566 16.13768,8.8778 2.30242,1.93202 4.65815,3.84034 6.57248,6.17236 3.84334,4.24035 7.04357,9.06451 9.426,14.26797 2.34682,5.48785 4.24335,11.29872 4.54555,17.29929 2.67872,-0.0356 5.35745,-0.003 8.03918,-0.0296 -2.8493,-25.43794 -22.70882,-43.81162 -44.80389,-46.93753 z"
       id="path1374" /><path
       style="fill:#ff9578;stroke:#ff9578;stroke-width:0.055633"
       inkscape:connector-curvature="0"
       d="m 432.77175,629.21453 c -1.20011,-0.237 -2.43872,-0.0859 -3.65664,-0.11561 -0.0385,4.61666 -0.0148,9.23341 -0.0119,13.85306 1.33641,0.0267 2.67283,0.0356 4.00034,-0.1215 0.2815,-3.89664 0.0326,-7.81399 0.1363,-11.71953 -0.074,-0.6251 0.18682,-1.51411 -0.4681,-1.89642 z"
       id="path1376" /><path
       style="fill:#424337;stroke:#424337;stroke-width:0.055633"
       inkscape:connector-curvature="0"
       d="m 437.34701,629.19684 c -0.40301,2.20173 -0.20451,4.43895 -0.2311,6.66138 0.0385,2.31722 -0.1867,4.65225 0.2311,6.94578 0.2252,-2.99884 0.0444,-6.01537 0.10069,-9.02011 -0.0207,-1.52902 0.083,-3.06404 -0.10069,-4.58705 z"
       id="path1378" /><path
       style="fill:#63639b;fill-opacity:1;stroke:#5a5b51;stroke-width:0.055633"
       inkscape:connector-curvature="0"
       d="m 373.2881,634.06539 c -4.42115,-0.1689 -8.8541,-0.0711 -13.27825,-0.0504 -0.0296,1.40752 -0.0296,2.81503 -0.0119,4.22555 4.43896,-0.0237 8.8778,0 13.31675,-0.0148 -0.0652,-1.38682 -0.0622,-2.77353 -0.0266,-4.16035 z"
       id="path1380" /><path
       style="fill:#63639b;fill-opacity:1;stroke:#5a5b51;stroke-width:0.055633"
       inkscape:connector-curvature="0"
       d="m 340.44663,634.02389 c -4.43005,-0.0771 -8.863,-0.0533 -13.29305,-0.0119 0.003,1.40751 0.0119,2.81804 -0.0178,4.22856 1.66598,-0.0101 13.22139,-0.0178 13.33455,-0.0178 -0.0622,-1.39861 -0.0326,-2.80023 -0.0237,-4.19884 z"
       id="path1382" /><path
       style="fill:#63639b;fill-opacity:1;stroke:#5a5b51;stroke-width:0.055633"
       inkscape:connector-curvature="0"
       d="m 315.57336,634.018 c -3.37025,-0.0636 -82.71342,-0.0539 -101.37483,0.006 0.0296,1.38683 0.0207,2.77653 -0.0385,4.16336 33.80448,0.10959 67.60896,-0.006 101.41332,0.0593 0.0356,-1.41052 0.0119,-2.82103 0,-4.22855 z"
       id="path1384" /><path
       style="fill:#9cbad8;stroke:#9cbad8;stroke-width:0.055633"
       inkscape:connector-curvature="0"
       d="m 373.31469,638.22574 c -4.43895,0.0148 -8.87779,-0.008 -13.31675,0.0148 0.0207,0.6845 0.0385,1.36901 0.0533,2.05653 2.36763,0.1067 4.73815,0.0296 7.10878,0.0504 2.03872,-0.0326 4.08624,0.11259 6.11907,-0.12741 0.0119,-0.66381 0.0267,-1.33051 0.0356,-1.99432 z"
       id="path1386" /><path
       style="fill:#9cbad8;stroke:#9cbad8;stroke-width:0.055633"
       inkscape:connector-curvature="0"
       d="m 340.23622,638.22273 c -4.36774,0.0207 -8.73259,-0.008 -13.10044,0.0178 0.003,0.6845 0.006,1.369 0.008,2.05653 4.35295,0.08 8.71479,0.0978 13.06785,-0.006 0.0771,-0.68751 0.1008,-1.38092 0.0237,-2.06843 z"
       id="path1388" /><path
       style="fill:#9cbad8;stroke:#9cbad8;stroke-width:0.055633"
       inkscape:connector-curvature="0"
       d="m 315.57336,638.24643 c -33.80448,-0.0652 -67.60885,0.0504 -101.41333,-0.0593 -0.0208,0.72601 -0.0178,1.45491 -0.003,2.18091 75.18128,-0.11938 98.39647,0.13208 101.33333,-0.13329 0.0326,-0.6637 0.0652,-1.32751 0.083,-1.98832 z"
       id="path1390" /><path
       style="fill:#424338;stroke:#424338;stroke-width:0.055633"
       inkscape:connector-curvature="0"
       d="m 428.04251,678.78038 c -1.69492,-0.4089 -3.44925,-0.1837 -5.17376,-0.2252 -2.01502,0.077 -4.06855,-0.2252 -6.05687,0.23411 l 0.3052,0.12739 c 3.53804,0.0741 7.08208,0.0741 10.62312,0 z"
       id="path1418" /><path
       style="fill:#434438;stroke:#434438;stroke-width:0.055633"
       inkscape:connector-curvature="0"
       d="m 210.8442,678.78038 c -1.89353,-0.44739 -3.84925,-0.163 -5.77237,-0.23109 -1.81642,0.0563 -3.67144,-0.21041 -5.45526,0.2489 l 0.3052,0.11849 c 3.53815,0.0711 7.08208,0.083 10.61723,-0.006 z"
       id="path1420" /><path
       style="fill:#ffffff;stroke:#ffffff;stroke-width:0.055633"
       inkscape:connector-curvature="0"
       d="m 427.7402,678.91668 c -3.54104,0.0741 -7.08508,0.0741 -10.62312,0 -0.7793,0.34671 -1.52601,1.03712 -1.42231,1.97053 -0.1748,1.24751 0.0533,2.73503 1.42231,3.18543 3.54104,-0.0741 7.08508,-0.0741 10.62612,0 0.60151,-0.28741 1.26821,-0.69341 1.39272,-1.40462 0.2489,-1.37481 0.2311,-3.27423 -1.39572,-3.75134 z"
       id="path1422" /><path
       style="fill:#ffffff;stroke:#ffffff;stroke-width:0.055633"
       inkscape:connector-curvature="0"
       d="m 210.539,678.91078 c -3.53515,0.0889 -7.07919,0.077 -10.61723,0.006 -0.8949,0.3852 -1.54381,1.25931 -1.40161,2.26682 -0.17191,1.16451 0.2045,2.44173 1.39862,2.88613 3.53814,-0.0652 7.08206,-0.0771 10.62022,0.006 0.5956,-0.2607 1.2356,-0.63711 1.41641,-1.30682 0.32301,-1.40439 0.27259,-3.39562 -1.41641,-3.85793 z"
       id="path1424" /><path
       style="fill:#424338;stroke:#424338;stroke-width:0.055633"
       inkscape:connector-curvature="0"
       d="m 427.7432,684.07275 c -3.54104,-0.0741 -7.08508,-0.0741 -10.62612,0 l -0.3052,0.1185 c 1.69202,0.42671 3.44624,0.18959 5.16786,0.23699 2.02092,-0.077 4.07445,0.2193 6.06577,-0.22821 z"
       id="path1426" /><path
       style="fill:#424438;stroke:#424438;stroke-width:0.055633"
       inkscape:connector-curvature="0"
       d="m 210.539,684.07564 c -3.53804,-0.0829 -7.08208,-0.0711 -10.62022,-0.006 l -0.30521,0.1185 c 1.78682,0.44739 3.63883,0.1837 5.45826,0.24301 1.92312,-0.0652 3.87884,0.2134 5.76936,-0.22821 z"
       id="path1428" /><path
       style="fill:#7f7f7f;stroke:#7f7f7f;stroke-width:0.055633"
       inkscape:connector-curvature="0"
       d="m 212.98662,691.05112 c -2.03872,0.003 -4.08034,0.0148 -6.11907,-0.008 -0.0148,0.96011 -0.0178,1.92023 -0.0178,2.88023 2.04762,0.006 4.09514,0.0267 6.13976,-0.0178 -0.0118,-0.95109 -0.0118,-1.90231 -0.003,-2.85352 z"
       id="path1432" /><g
       id="g2626"
       data-machinetype="wheel_and_axle"><path
         id="path1392"
         d="m 395.84415,668.21357 c -1.06971,-1.83121 -3.16774,-2.88613 -5.26866,-2.76474 -5.41086,0.0593 -10.82762,-0.0978 -16.23548,0.083 -1.58532,2.45942 -3.27734,4.85075 -4.86855,7.30728 -1.30682,2.03571 -1.97942,4.45965 -1.95272,6.87768 0.083,5.49676 2.24913,10.94912 6.01537,14.95836 1.77792,1.92613 3.94104,3.44035 6.16947,4.79445 10.3,1.58933 22.23171,-6.70622 22.34276,-20.34542 0.0267,-1.04601 -0.17191,-2.12173 -0.80601,-2.97514 -1.82855,-2.62543 -3.62126,-5.27455 -5.39618,-7.93548 m -3.69514,4.28485 c 2.10092,3.13213 2.61063,7.24797 1.43711,10.82172 -1.52601,4.82115 -6.23757,8.41849 -11.30172,8.56369 -7.24542,0.44585 -13.60271,-5.80296 -13.04115,-13.37305 0.2489,-4.32925 2.98994,-8.40068 6.88948,-10.28831 5.05147,-2.64512 12.09983,-1.42464 16.01628,4.27595 z"
         inkscape:connector-curvature="0"
         style="fill:#7b7b7b;stroke:#7b7b7b;stroke-width:0.055633" /><path
         id="path1394"
         d="m 374.34001,665.53184 c -1.78092,-0.1126 -3.69815,-0.2756 -5.31896,0.6311 -1.38081,0.6667 -2.10392,2.08312 -2.94543,3.28624 -1.31271,1.85792 -2.58393,3.74554 -3.84034,5.64196 -0.94821,1.34532 -0.73781,3.06693 -0.77641,4.62265 -0.097,10.5617 8.94989,19.44895 18.2446,19.75583 -2.22832,-1.35422 -4.39155,-2.86844 -6.16947,-4.79445 -3.76624,-4.00925 -5.93237,-9.46161 -6.01537,-14.95837 -0.0267,-2.41803 0.64601,-4.84197 1.95272,-6.87768 1.59132,-2.45653 3.28334,-4.84786 4.86866,-7.30728 z"
         inkscape:connector-curvature="0"
         style="fill:#656768;stroke:#656768;stroke-width:0.055633" /><path
         id="path1396"
         d="m 383.94382,667.09935 c -8.03663,-1.31984 -14.31292,4.66984 -14.70057,11.41143 -0.56044,7.5553 5.78071,13.81979 13.04115,13.37306 5.06415,-0.14521 9.77571,-3.74254 11.30172,-8.5637 2.50004,-7.61381 -2.70298,-15.0693 -9.6423,-16.22079 m -1.17942,4.13075 c 4.51005,0.47711 8.00068,5.15306 7.06728,9.61271 -0.68151,4.40925 -5.38416,7.64809 -9.74601,6.63768 -4.21965,-0.75861 -7.31918,-5.19456 -6.50127,-9.42011 0.60151,-4.24635 4.93965,-7.47628 9.18,-6.83028 z"
         inkscape:connector-curvature="0"
         style="fill:#63639b;fill-opacity:1;stroke:#5a5b51;stroke-width:0.055633" /><path
         id="path1398"
         d="m 382.7644,671.2301 c -4.24035,-0.646 -8.57849,2.58393 -9.18011,6.83018 -0.8178,4.22553 2.28173,8.66148 6.50127,9.4201 4.36185,1.0104 9.0645,-2.22832 9.746,-6.63768 0.93364,-4.45954 -2.55711,-9.13549 -7.06716,-9.6126 m -0.0266,3.34254 c 2.13652,0.4089 3.81364,2.38543 3.91444,4.55155 0.20451,2.64914 -2.04462,5.17087 -4.71155,5.21826 -2.82393,0.21631 -5.41376,-2.39721 -5.15306,-5.22115 0.0593,-2.92184 3.11734,-5.25687 5.95017,-4.54866 z"
         inkscape:connector-curvature="0"
         style="fill:#ffffff;stroke:#ffffff;stroke-width:0.055633" /><path
         id="path1400"
         d="m 382.73781,674.57264 c -2.83284,-0.70821 -5.89087,1.62682 -5.95017,4.54855 -0.26081,2.82393 2.32913,5.43757 5.15306,5.22115 2.66693,-0.0474 4.91595,-2.56912 4.71155,-5.21826 -0.10081,-2.16601 -1.77803,-4.14254 -3.91444,-4.55144 m -0.26081,2.86844 c 0.70231,0.2608 1.24751,0.93641 1.30081,1.69491 0.2104,1.19421 -0.89491,2.42393 -2.09792,2.36173 -1.30382,0.0504 -2.31133,-1.38092 -2.01503,-2.60763 0.32301,-1.16462 1.65942,-1.91433 2.81214,-1.44901 z"
         inkscape:connector-curvature="0"
         style="fill:#63639b;fill-opacity:1;stroke:#5a5b51;stroke-width:0.055633" /><path
         id="path1402"
         d="m 274.98021,675.85576 c -2.65503,-0.10671 -5.31606,-0.1037 -7.97398,-0.006 0.5186,2.32312 0.65479,4.76786 -0.0504,7.07028 -2.08968,7.35289 -10.80559,11.41978 -18.02229,7.44658 -5.09965,-2.66693 -7.67479,-9.0882 -5.98578,-14.56716 -0.9719,-0.0148 -1.94682,-0.003 -2.92173,0.0533 -1.06971,6.80648 1.15272,14.01016 5.91156,18.99722 1.58531,1.71571 3.52925,3.03132 5.44936,4.33814 1.0608,0.5541 2.31132,0.44151 3.46994,0.49191 4.84184,0.0978 9.6601,-1.71572 13.31964,-4.87156 5.42277,-4.52195 8.0393,-12.01895 6.80369,-18.95282 z"
         inkscape:connector-curvature="0"
         style="fill:#7b7b7b;stroke:#7b7b7b;stroke-width:0.055633" /><path
         id="path1404"
         d="m 262.43976,675.94166 c -1.28601,-0.37341 -2.69953,-0.083 -4.03884,-0.1541 0.91561,1.0904 1.63862,2.44762 1.49341,3.92033 -0.1185,2.34394 -2.08902,4.43595 -4.44775,4.60786 -2.67583,0.3556 -5.34265,-1.89051 -5.40495,-4.59294 -0.16591,-1.46093 0.55999,-2.78243 1.37201,-3.92925 -1.30971,-0.0296 -2.62242,-0.0267 -3.93225,0.0119 -2.90448,6.98005 3.05092,12.73294 8.73849,11.74034 5.3095,-0.80357 8.52965,-6.5618 6.21988,-11.60415 z"
         inkscape:connector-curvature="0"
         style="fill:#ffffff;stroke:#ffffff;stroke-width:0.055633" /><path
         id="path1406"
         d="m 240.02602,675.85276 c -1.67722,-0.08 -3.35734,-0.0859 -5.03456,0.0296 -1.93714,9.84971 4.23578,20.24695 14.51975,23.10726 0.61341,0.16 1.25052,0.1689 1.87573,0.1985 -1.92012,-1.30681 -3.86405,-2.62242 -5.44936,-4.33814 -4.75884,-4.98706 -6.98127,-12.19075 -5.91156,-18.99721 z"
         inkscape:connector-curvature="0"
         style="fill:#656768;stroke:#656768;stroke-width:0.055633" /><path
         id="path1408"
         d="m 382.477,677.44108 c -1.15272,-0.46521 -2.48913,0.2845 -2.81214,1.44901 -0.2963,1.22682 0.71121,2.65804 2.01503,2.60763 1.20312,0.0622 2.30832,-1.16752 2.09792,-2.36173 -0.0533,-0.75861 -0.5985,-1.43422 -1.30081,-1.69491 z"
         inkscape:connector-curvature="0"
         style="fill:#7b7b7b;stroke:#7b7b7b;stroke-width:0.055633" /><path
         id="path1410"
         d="m 255.64519,677.42628 c -1.40462,-0.56001 -2.99872,0.75861 -2.78242,2.22832 0.1185,1.46092 1.97352,2.35283 3.19433,1.54381 1.43121,-0.81491 1.25341,-3.34554 -0.41191,-3.77213 z"
         inkscape:connector-curvature="0"
         style="fill:#7b7b7b;stroke:#7b7b7b;stroke-width:0.055633" /><path
         id="path1412"
         d="m 351.19726,678.16409 c -0.99561,-0.0296 -1.99133,-0.0326 -2.98694,-0.008 0.0119,0.99272 0.0267,1.98832 0.0385,2.98104 0.99561,0.0178 1.98832,0.0652 2.98104,0.1333 -0.006,-1.03411 -0.0148,-2.07133 -0.0326,-3.10543 z"
         inkscape:connector-curvature="0"
         style="fill:#7799bc;stroke:#7799bc;stroke-width:0.055633" /><path
         id="path1414"
         d="m 348.21032,678.15518 c -17.30519,-0.0237 -34.61049,-0.0474 -51.91568,0.0119 0.88601,0.91861 1.74832,1.85791 2.54543,2.85352 -3.29514,0.3911 -6.62277,0.008 -9.93271,0.23411 1.20925,0.20239 -1.66253,0.11538 53.9544,0.1452 2.78844,-0.0563 5.58867,0.1245 8.36809,-0.1304 -0.99271,-0.0681 -1.98531,-0.11561 -2.98103,-0.1333 -0.0118,-0.99272 -0.0267,-1.98833 -0.0385,-2.98104 z"
         inkscape:connector-curvature="0"
         style="fill:#8aa8ce;stroke:#8aa8ce;stroke-width:0.055633" /><path
         id="path1416"
         d="m 296.29464,678.16708 c -3.46693,-0.0415 -6.93988,-0.0859 -10.40681,0.0267 0.96601,1.05492 1.87272,2.19283 3.01953,3.06104 3.30994,-0.2252 6.63768,0.157 9.93271,-0.23411 -0.79711,-0.99572 -1.65942,-1.93513 -2.54543,-2.85363 z"
         inkscape:connector-curvature="0"
         style="fill:#7799bc;stroke:#7799bc;stroke-width:0.055633" /><path
         id="path1430"
         d="m 235.07146,693.88095 c -0.6637,-0.91861 -1.25052,-1.88763 -1.78982,-2.88324 -6.03907,0.12452 -12.08103,0.0385 -18.1201,0.0444 -0.0148,0.96011 -0.0148,1.92023 -0.0148,2.88324 6.64357,-0.0207 13.28715,0.0682 19.92472,-0.0444 z"
         inkscape:connector-curvature="0"
         style="fill:#7f7f7f;stroke:#7f7f7f;stroke-width:0.055633" /><path
         id="path1434"
         d="m 361.95667,694.27806 c -0.48,-0.8741 -0.98971,-1.73352 -1.50832,-2.58693 -1.39861,0.2845 -2.83584,0.14821 -4.25225,0.1719 -2.13353,-0.0267 -4.26705,0.0593 -6.39757,-0.0593 0.0652,0.82671 0.0948,1.65942 0.1244,2.49214 4.00935,0.0711 8.02449,0.10069 12.03374,-0.0178 z"
         inkscape:connector-curvature="0"
         style="fill:#7f7f7f;stroke:#7f7f7f;stroke-width:0.055633" /><path
         id="path1436"
         d="m 347.81032,691.88673 c -1.12602,-0.0326 -2.25502,-0.0326 -3.38104,-0.003 0.0207,0.94821 0.0207,1.89942 0.0118,2.85064 1.12011,-0.008 2.24023,-0.008 3.36034,0 -0.0119,-0.9511 -0.0119,-1.89942 0.008,-2.84763 z"
         inkscape:connector-curvature="0"
         style="fill:#7f7f7f;stroke:#7f7f7f;stroke-width:0.055633" /><path
         id="path1438"
         d="m 241.06902,699.88453 c -0.9304,-0.89492 -1.93502,-1.70683 -2.91583,-2.54544 -1.84346,0.62242 -2.85575,0.29709 -4.63445,0.34371 -4.07444,0.0296 -8.15178,-0.0683 -12.22333,0.0504 -0.003,0.72901 -0.003,1.45491 -0.003,2.18682 3.77814,0.11849 7.55919,0.0178 11.33733,0.0504 2.81213,-0.0385 5.63017,0.0948 8.43929,-0.0859 z"
         inkscape:connector-curvature="0"
         style="fill:#7f7f7f;stroke:#7f7f7f;stroke-width:0.055633" /></g></g><g
     id="g323"
     transform="matrix(0.64013929,0,0,0.61410413,383.84504,-73.889449)"><g
       id="g84"
       transform="translate(-28.1742)"><g
         id="g82"><rect
           id="rect16"
           style="fill:#f68c4c"
           height="42.463001"
           width="261.41599"
           y="1223"
           x="151.50101" /><g
           id="g20"
           transform="matrix(1,0,0,0.155872,0,1035.61)"><rect
             id="rect18"
             style="fill:#c5713c"
             height="42.463001"
             width="261.41599"
             y="1223"
             x="151.50101" /></g><g
           id="g76"><g
             id="g46"><rect
               id="rect22"
               style="fill:#90c3e6"
               height="126.877"
               width="254.82401"
               y="1099.36"
               x="154.853" /><path
               inkscape:connector-curvature="0"
               id="path24"
               style="fill:#759fbb"
               d="m 400.958,1099.36 h 6.479 v 3.01 h 2.24 v 6.48 h -2.24 v 117.39 h -6.479 V 1108.85 H 275.729 v 117.39 H 269.25 V 1108.85 H 154.853 v -6.48 H 269.25 v -3.01 h 6.479 v 3.01 h 125.229 z" /><g
               id="g28"
               transform="matrix(1,0,0,3.38472,0,-2930.92)"><rect
                 id="rect26"
                 style="fill:#ebebeb"
                 height="39.271"
                 width="6.48"
                 y="1189.77"
                 x="151.50101" /></g><g
               id="g32"
               transform="matrix(1,0,0,3.23079,254.936,-2744.55)"><rect
                 id="rect30"
                 style="fill:#ebebeb"
                 height="39.271"
                 width="6.48"
                 y="1189.77"
                 x="151.50101" /></g><g
               id="g36"
               transform="matrix(1,0,0,3.38472,124.228,-2930.92)"><rect
                 id="rect34"
                 style="fill:#ebebeb"
                 height="39.271"
                 width="6.48"
                 y="1189.77"
                 x="151.50101" /></g><g
               id="g40"
               transform="matrix(0,-1,6.6567,0,-7768.46,1380.98)"><rect
                 id="rect38"
                 style="fill:#ebebeb"
                 height="39.271"
                 width="6.48"
                 y="1189.77"
                 x="151.50101" /></g><g
               id="g44"
               transform="matrix(0,-1,6.6567,0,-7768.46,1254.1)"><rect
                 id="rect42"
                 style="fill:#ebebeb"
                 height="39.271"
                 width="6.48"
                 y="1189.77"
                 x="151.50101" /></g></g></g><g
           id="g80"
           transform="matrix(0,-3.20156,6.6567,0,-7768.46,1581.16)"><rect
             id="rect78"
             style="fill:#f68c4c"
             height="39.271"
             width="6.48"
             y="1189.77"
             x="151.50101" /></g></g></g><g
       id="g321"
       transform="translate(-28.1742)"><g
         id="g187"><g
           id="g88"
           transform="matrix(1.02225,0,0,1,-16.2435,0)"><rect
             id="rect86"
             style="fill:#ebecec"
             height="195.138"
             width="283.39999"
             y="1070.3199"
             x="446.56299" /></g><g
           id="g185"><g
             id="g102"
             transform="matrix(0.980859,0,0,0.980859,2.73585,24.2224)"><g
               id="g92"
               transform="translate(0,0.248188)"><circle
                 id="circle90"
                 r="22.608"
                 cy="1242.61"
                 cx="458.60001" /></g><g
               id="g96"
               transform="matrix(0.710115,0,0,0.710115,132.941,360.213)"><circle
                 id="circle94"
                 style="fill:#808080"
                 r="22.608"
                 cy="1242.61"
                 cx="458.60001" /></g><g
               id="g100"
               transform="matrix(0.157876,0,0,0.157876,386.199,1046.43)"><circle
                 id="circle98"
                 r="22.608"
                 cy="1242.61"
                 cx="458.60001" /></g></g><g
             id="g153"
             transform="matrix(0.149179,0,0,0.149179,531.404,1071.76)"><g
               id="g151"><g
                 id="g149"><g
                   id="g147"><g
                     id="Head"><g
                       id="g106"
                       transform="matrix(0.733518,0,0,1.29705,141.348,-202.834)"><rect
                         id="rect104"
                         style="fill:#daa284"
                         height="22.695"
                         width="48.139"
                         y="668.88599"
                         x="601.927" /></g><g
                       id="g110"
                       transform="translate(-64.8791,0.3324)"><ellipse
                         id="ellipse108"
                         style="fill:#daa284"
                         ry="88.176003"
                         rx="85.183998"
                         cy="589.69897"
                         cx="647.75098" /></g></g><path
                     inkscape:connector-curvature="0"
                     style="fill:#866223"
                     d="m 582.872,551.211 h -85.185 c 0,-35.055 38.17,-63.514 85.185,-63.514 36.004,0 66.822,16.691 79.281,40.252 10.731,15.892 14.118,69.765 14.118,90.248 0,25.123 -13.694,50.459 -29.238,67.486 -11.202,-56.62 -33.416,-134.146 -64.161,-134.146 z"
                     id="Hair2_blond" /><g
                     transform="rotate(19.389368,657.57725,971.93812)"
                     serif:id="Leg 2"
                     id="Leg-2"><g
                       transform="matrix(0.981674,-0.19057,0.140604,0.724286,-49.1427,380.981)"
                       id="leg2_t"><path
                         inkscape:connector-curvature="0"
                         id="path114"
                         style="fill:#304e80"
                         d="m 519.515,1005.69 c 0,-18.354 15.309,-33.253 34.165,-33.253 18.857,0 34.166,14.899 34.166,33.253 v 203 c 0,18.36 -15.309,33.25 -34.166,33.25 -18.856,0 -34.165,-14.89 -34.165,-33.25 z" /></g><g
                       transform="matrix(0.734094,-0.679048,0.501007,0.54162,-249.191,974.486)"
                       id="leg2_b"><path
                         inkscape:connector-curvature="0"
                         id="path117"
                         style="fill:#304e80"
                         d="m 519.515,1005.69 c 0,-18.354 15.309,-33.253 34.165,-33.253 18.857,0 34.166,14.899 34.166,33.253 v 203 c 0,18.36 -15.309,33.25 -34.166,33.25 -18.856,0 -34.165,-14.89 -34.165,-33.25 z" /></g></g><g
                     transform="matrix(0.727509,0,0,0.891966,142.829,12.7068)"
                     id="Torso"><path
                       inkscape:connector-curvature="0"
                       id="path121"
                       style="fill:#f68c4c"
                       d="m 517.775,829.346 c 0,-43.082 48.277,-78.058 107.739,-78.058 59.463,0 107.74,34.977 107.74,78.058 v 235.604 c 0,43.08 -48.277,78.06 -107.74,78.06 -59.463,0 -107.739,-34.98 -107.739,-78.06 z" /></g><g
                     transform="translate(-344.863,4.43532)"
                     serif:id="Torso"
                     id="Torso1"><path
                       inkscape:connector-curvature="0"
                       id="path124"
                       style="fill:#304e7f"
                       d="m 1021.14,792.811 v 165.357 c 0,38.427 -35.121,69.622 -78.381,69.622 -43.26,0 -78.381,-31.195 -78.381,-69.622 V 792.811 Z" /></g><g
                     transform="translate(-343.198,6.79365)"
                     serif:id="Torso"
                     id="Torso2"><path
                       inkscape:connector-curvature="0"
                       id="path127"
                       style="fill:#304e7f"
                       d="m 1019.48,951.802 v 4.007 c 0,38.428 -35.126,69.621 -78.386,69.621 -43.26,0 -78.381,-31.193 -78.381,-69.621 v -4.007 z" /></g><g
                     id="g138"
                     transform="rotate(25.919301,600.6491,734.96828)"><g
                       serif:id="Arm in walking mode1"
                       id="Arm-in-walking-mode1"><g
                         serif:id="Arm 1"
                         id="Arm-1"><g
                           transform="matrix(-0.144802,0.609872,-0.63741,-0.15134,1309.29,547.613)"
                           id="arm1_t"><path
                             inkscape:connector-curvature="0"
                             id="path130"
                             style="fill:#f68c4c"
                             d="m 519.515,1005.69 c 0,-18.354 15.309,-33.253 34.165,-33.253 18.857,0 34.166,14.899 34.166,33.253 v 203 c 0,18.36 -15.309,33.25 -34.166,33.25 -18.856,0 -34.165,-14.89 -34.165,-33.25 z" /></g><g
                           transform="matrix(-0.548633,0.303172,-0.321207,-0.581269,1082.65,1117.13)"
                           id="arm1_b"><path
                             inkscape:connector-curvature="0"
                             id="path133"
                             style="fill:#f68c4c"
                             d="m 519.515,1005.69 c 0,-18.354 15.309,-33.253 34.165,-33.253 18.857,0 34.166,14.899 34.166,33.253 v 203 c 0,18.36 -15.309,33.25 -34.166,33.25 -18.856,0 -34.165,-14.89 -34.165,-33.25 z" /></g></g></g></g><g
                     transform="translate(13.8577)"
                     serif:id="Leg 1"
                     id="Leg-1"><g
                       transform="matrix(0.999264,-0.0383671,0.0283076,0.737264,-57.6655,404.005)"
                       id="leg1_b"><path
                         inkscape:connector-curvature="0"
                         id="path140"
                         style="fill:#304e80"
                         d="m 519.515,1005.69 c 0,-18.354 15.309,-33.253 34.165,-33.253 18.857,0 34.166,14.899 34.166,33.253 v 203 c 0,18.36 -15.309,33.25 -34.166,33.25 -18.856,0 -34.165,-14.89 -34.165,-33.25 z" /></g><g
                       transform="matrix(0.96204,0.272908,-0.201354,0.7098,234.183,119.035)"
                       id="leg1_t"><path
                         inkscape:connector-curvature="0"
                         id="path143"
                         style="fill:#304e80"
                         d="m 519.515,1005.69 c 0,-18.354 15.309,-33.253 34.165,-33.253 18.857,0 34.166,14.899 34.166,33.253 v 203 c 0,18.36 -15.309,33.25 -34.166,33.25 -18.856,0 -34.165,-14.89 -34.165,-33.25 z" /></g></g></g></g></g></g><g
             id="g183"><g
               id="g167"
               transform="matrix(0.83048,0,0,0.83048,208.068,-74.3419)"><g
                 id="g157"
                 transform="matrix(1.20412,0,0,1.20412,-250.539,89.5168)"><rect
                   id="rect155"
                   style="fill:#808080"
                   height="34.146999"
                   width="244.892"
                   y="1068.5699"
                   x="449.57501" /></g><g
                 id="g161"
                 transform="translate(109.558,12.2633)"><ellipse
                   id="ellipse159"
                   style="fill:#676767"
                   ry="4.5689998"
                   rx="4.355"
                   cy="1395.39"
                   cx="328.68701" /></g><g
                 id="g165"
                 transform="matrix(0.425655,0,0,0.00511699,138.642,1387.55)"><rect
                   id="rect163"
                   style="fill:#676767"
                   height="547.42102"
                   width="635.41901"
                   y="869.90198"
                   x="386.15302" /></g></g><g
               id="g181"
               transform="translate(-0.146474,4.47111)"
               data-machinetype="lever"><rect
                 style="opacity:1;fill:#ff0000;fill-opacity:1;fill-rule:nonzero;stroke:none;stroke-width:18.9054;stroke-miterlimit:4;stroke-dasharray:none;stroke-opacity:1"
                 id="rect2723"
                 width="6.2673736"
                 height="29.446453"
                 x="1166.8264"
                 y="588.48407"
                 transform="matrix(0.76141994,0.64825896,-0.61676119,0.78715033,0,0)" /><rect
                 style="opacity:1;fill:#444444;fill-opacity:1;fill-rule:nonzero;stroke:none;stroke-width:18.8976;stroke-miterlimit:4;stroke-dasharray:none;stroke-opacity:1"
                 id="rect2720"
                 width="30.042866"
                 height="25.434589"
                 x="497.58615"
                 y="1236.5707" /><g
                 id="g171"
                 transform="translate(-19.1483,-0.521505)"><path
                   inkscape:connector-curvature="0"
                   id="path169"
                   style="fill:#363742"
                   d="m 608.886,1261.51 h -40.55 l 4.472,-8.65 h 31.606 z" /></g><g
                 id="g175"
                 transform="matrix(1.1775,0,0,1,-126.98,-23.9679)"><path
                   id="rect173"
                   style="fill:#363742"
                   d="m 529.57703,1158.67 h 123.982 v 7.142 h -123.982 z" /></g><g
                 id="g179"
                 transform="translate(0,-4)"><path
                   inkscape:connector-curvature="0"
                   id="path177"
                   style="fill:#353742"
                   d="m 576.547,1145.59 h -2.5 v 39.78 h 2.5 v 79.62 h -13.916 v -79.62 h 2.5 v -39.78 h -2.5 v -1.89 h 13.916 z" /></g></g></g></g></g><g
         id="g231"><g
           id="g197"><path
             inkscape:connector-curvature="0"
             id="path189"
             style="fill:#cfcc83"
             d="m 878.072,1047.3 v 218.16 H 690.095 V 1076.95 H 451.659 v 188.51 H 411.96 V 1047.3 h 39.699 v 0 z" /><path
             inkscape:connector-curvature="0"
             id="path191"
             style="fill:#9c9b64"
             d="M 878.072,1265.46 H 690.095 v -9.29 h 187.977 z m -466.112,-9.29 h 39.699 v 9.29 H 411.96 Z" /><g
             id="g195"
             transform="translate(0,-1)"><rect
               id="rect193"
               style="fill:#9c9b64"
               height="9.7189999"
               width="466.11301"
               y="1051.16"
               x="411.95999" /></g></g><g
           id="g217"
           transform="matrix(0.989375,0,0,0.91136,688.202,439.974)"><g
             id="g201"
             transform="matrix(1.41093,0,0,2.3583,-63.8354,-1508.92)"><rect
               id="rect199"
               style="fill:#ffffff"
               height="29.549"
               width="26.787001"
               y="964.12097"
               x="137.69" /></g><g
             id="g205"
             transform="matrix(0.972155,0,0,0.881304,2.45687,-79.3968)"><rect
               id="rect203"
               style="fill:#90c3e6"
               height="29.549"
               width="26.787001"
               y="964.12097"
               x="137.69" /></g><path
             inkscape:connector-curvature="0"
             id="path207"
             style="fill:#55768c"
             d="m 162.355,796.329 h -4.202 v -22.13 h -21.84 v -3.911 h 26.042 z" /><g
             id="g211"
             transform="matrix(0.972155,0,0,0.881304,2.45687,-47.1932)"><rect
               id="rect209"
               style="fill:#90c3e6"
               height="29.549"
               width="26.787001"
               y="964.12097"
               x="137.69" /></g><g
             id="g215"
             transform="translate(0,32.2036)"><path
               inkscape:connector-curvature="0"
               id="path213"
               style="fill:#55768c"
               d="m 162.355,796.329 h -4.202 v -22.13 h -21.84 v -3.911 h 26.042 z" /></g></g><g
           id="g229"
           transform="matrix(0.842641,0,0,0.705697,404.305,265.261)"><g
             id="g221"
             transform="translate(-21.2949,1.0355)"><rect
               id="rect219"
               style="fill:#987245"
               height="194.952"
               width="75.807999"
               y="1221.34"
               x="402.92899" /></g><g
             id="g225"
             transform="matrix(0.356764,0,0,1,286.646,1.0355)"><rect
               id="rect223"
               style="fill:#85633a"
               height="194.952"
               width="75.807999"
               y="1221.34"
               x="402.92899" /></g><ellipse
             id="ellipse227"
             style="fill:#664b29"
             ry="4.2670002"
             rx="4.1719999"
             cy="1323.08"
             cx="438.742" /></g></g><g
         id="g319"><g
           id="g241"><g
             id="g235"
             transform="matrix(1.30884,0,0,1,-127.513,-2)"><path
               inkscape:connector-curvature="0"
               id="path233"
               style="fill:#c5713c"
               d="m 715.486,958.039 57.484,95.121 H 408.294 l 57.484,-95.121 z" /></g><g
             id="g239"><path
               inkscape:connector-curvature="0"
               id="path237"
               style="fill:#c5713c"
               d="m 824.33,938.416 h -1.464 v 49.492 H 798.38 v -49.492 h -1.464 v -3.958 h 27.414 z" /></g></g><g
           id="g317"><g
             id="g245"
             transform="matrix(0.867394,0.497622,-0.816846,1.42383,916.742,-653.864)"><rect
               id="rect243"
               height="13.837"
               width="2.3010001"
               y="1019.02"
               x="440.25601" /></g><g
             id="g249"
             transform="matrix(0.867765,-0.496974,0.815782,1.42444,-479.162,-215.471)"><rect
               id="rect247"
               height="13.837"
               width="2.3010001"
               y="1019.02"
               x="440.25601" /></g><g
             id="g315"
             transform="translate(12.8463,-12.7933)"><g
               id="g253"
               transform="translate(0.758394)"><rect
                 id="rect251"
                 style="fill:#f68c4c"
                 height="36.768002"
                 width="270.504"
                 y="1016.39"
                 x="452.72699" /></g><g
               id="g313"><g
                 id="g289"><g
                   id="g283"
                   transform="matrix(0.0261146,0.0208156,-0.0208156,0.0261146,483.068,1006.28)"><g
                     id="g257"
                     transform="matrix(1.55287,0,0,1,-183.967,0)"><rect
                       id="rect255"
                       height="297.98901"
                       width="30.052999"
                       y="658.34802"
                       x="332.746" /></g><g
                     id="g267"><g
                       id="g261"
                       transform="matrix(0.875086,0,0,0.813667,44.4795,133.611)"><path
                         inkscape:connector-curvature="0"
                         id="path259"
                         d="m 297.109,502.822 v 61.469 c 0,16.273 13.212,29.485 29.486,29.485 h 58.971 c 16.274,0 29.486,-13.212 29.486,-29.485 v -61.469 c 19.115,16.887 31.216,41.83 31.216,69.636 0,50.812 -40.412,92.066 -90.187,92.066 -49.776,0 -90.188,-41.254 -90.188,-92.066 0,-27.806 12.101,-52.749 31.216,-69.636 z" /></g><g
                       id="g265"
                       transform="translate(-5.58899,14.5337)"><ellipse
                         id="ellipse263"
                         style="fill:#585453"
                         ry="5.3049998"
                         rx="28.923"
                         cy="625.64801"
                         cx="361.67001" /></g></g><g
                     id="g277"
                     transform="rotate(180,356.0805,807.345)"><g
                       id="g271"
                       transform="matrix(0.875086,0,0,0.813667,44.4795,133.611)"><path
                         inkscape:connector-curvature="0"
                         id="path269"
                         d="m 297.109,502.822 v 61.469 c 0,16.273 13.212,29.485 29.486,29.485 h 58.971 c 16.274,0 29.486,-13.212 29.486,-29.485 v -61.469 c 19.115,16.887 31.216,41.83 31.216,69.636 0,50.812 -40.412,92.066 -90.187,92.066 -49.776,0 -90.188,-41.254 -90.188,-92.066 0,-27.806 12.101,-52.749 31.216,-69.636 z" /></g><g
                       id="g275"
                       transform="translate(-5.58899,14.5337)"><ellipse
                         id="ellipse273"
                         style="fill:#585453"
                         ry="5.3049998"
                         rx="28.923"
                         cy="625.64801"
                         cx="361.67001" /></g></g><g
                     id="g281"
                     transform="matrix(1,0,0,0.983817,-5.10851,14.8793)"><path
                       inkscape:connector-curvature="0"
                       id="path279"
                       style="fill:#585453"
                       d="m 366.298,672.903 c 0,-1.447 -1.145,-2.623 -2.555,-2.623 h -5.108 c -1.41,0 -2.554,1.176 -2.554,2.623 v 260.816 c 0,1.447 1.144,2.622 2.554,2.622 h 5.108 c 1.41,0 2.555,-1.175 2.555,-2.622 z" /></g></g><g
                   id="g287"
                   transform="matrix(0.0868766,0,0,0.0868766,405.994,985.364)"><path
                     inkscape:connector-curvature="0"
                     id="path285"
                     d="M 890.285,727.044 H 622.141 v -0.026 h 89.093 l -89.093,-158.25 v -0.034 l 89.093,-158.209 -89.093,-0.008 v -0.009 h 357.237 v 0.017 l -89.093,-0.008 89.074,158.259 0.019,-0.034 v 0.051 z M 800.759,457.367 c 61.489,0 111.409,49.921 111.409,111.409 0,61.488 -49.92,111.409 -111.409,111.409 -61.488,0 -111.409,-49.921 -111.409,-111.409 0,-61.488 49.921,-111.409 111.409,-111.409 z" /></g></g><g
                 id="g293"
                 transform="matrix(0.621467,0,0,0.621467,178.125,398.052)"><text
   id="text291"
   style="font-size:50px;font-family:Copperplate"
   y="1037.64"
   x="508.44901">CAR REPAIR</text>
</g><g
                 id="g311"
                 transform="matrix(-0.0968905,2.69462e-4,-2.80963e-4,-0.101026,729.719,1143.43)"><g
                   id="g297"
                   transform="rotate(-179.84066,260.83989,1063.8744)"><ellipse
                     id="ellipse295"
                     style="fill:#ffffff"
                     ry="141.48801"
                     rx="137.01601"
                     cy="1051.51"
                     cx="264.63699" /></g><g
                   id="g301"
                   transform="matrix(1.05844,0,0,1.05844,-14.9565,-69.1062)"><path
                     inkscape:connector-curvature="0"
                     id="path299"
                     style="fill:#f68d4c"
                     d="m 153.771,1032.16 c 29.544,-21.25 68.228,-34.131 110.547,-34.131 36.948,0 71.124,9.821 98.866,26.451 l -107.312,158.06 z" /></g><path
                   inkscape:connector-curvature="0"
                   id="path303"
                   style="fill:#fff273"
                   d="m 153.771,1032.16 c 29.544,-21.25 68.228,-34.131 110.547,-34.131 36.948,0 71.124,9.821 98.866,26.451 l -107.312,158.06 z" /><g
                   id="g307"
                   transform="translate(1.00654,20.164)"><path
                     inkscape:connector-curvature="0"
                     id="path305"
                     style="fill:#f68d4c"
                     d="m 253.175,1087.88 v -95.841 h 5.389 v 0.226 h 0.005 v 95.395 l 16.772,-95.119 5.306,0.936 -16.78,95.163 32.966,-90.571 5.063,1.843 -32.196,88.458 47.298,-81.92 4.667,2.69 -46.192,80.01 59.751,-71.21 4.128,3.46 -79.393,94.62 -0.871,1.51 -0.519,1.42 v 0.96 h -4.583 l -0.48,0.18 -0.064,-0.18 h -0.261 v -0.23 h -0.006 v -0.5 l -0.519,-1.43 -0.871,-1.51 -79.393,-94.61 4.128,-3.47 59.751,71.21 -46.191,-80 4.666,-2.7 47.298,81.92 -32.196,-88.45 5.063,-1.845 32.966,90.575 -16.78,-95.168 5.306,-0.935 z" /></g><path
                   inkscape:connector-curvature="0"
                   id="path309"
                   style="fill:#f68d4c"
                   d="m 216.558,1124.63 c 11.377,-8.18 26.273,-13.14 42.57,-13.14 14.228,0 27.389,3.78 38.071,10.18 l -41.324,60.87 z" /></g></g></g></g></g></g></g><g
     transform="matrix(0.0982444,0,0,0.09424921,428.21624,588.70582)"
     id="g887"><g
       id="Head1"
       serif:id="Head"
       transform="translate(-2.75878,3.17177)"><g
         transform="matrix(0.733518,0,0,1.29705,141.348,-202.834)"
         id="g819"><rect
           x="601.927"
           y="668.88599"
           width="48.139"
           height="22.695"
           style="fill:#daa284"
           id="rect817" /></g><g
         transform="translate(-47.2651,-8.02898)"
         id="g823"><ellipse
           cx="647.75098"
           cy="589.69897"
           rx="85.183998"
           ry="88.176003"
           style="fill:#daa284"
           id="ellipse821" /></g><g
         transform="translate(-343.198,6.79365)"
         id="g827"><path
           d="m 860.788,595.246 c -1.496,-6.54 -2.288,-13.36 -2.288,-20.37 0,-48.665 38.17,-88.175 85.184,-88.175 47.015,0 85.186,39.51 85.186,88.175 0,1.829 -0.05,3.646 -0.16,5.447 -4.92,-9.052 -11.84,-17.145 -20.28,-23.856 H 887.064 c -12.855,10.22 -22.192,23.642 -26.276,38.779 z"
           style="fill:#2b1400"
           id="path825"
           inkscape:connector-curvature="0" /></g></g><g
       id="Torso3"
       serif:id="Torso"
       transform="matrix(0.727509,0,0,0.891966,142.829,12.7068)"><path
         d="m 517.775,829.346 c 0,-43.082 48.277,-78.058 107.739,-78.058 59.463,0 107.74,34.977 107.74,78.058 v 235.604 c 0,43.08 -48.277,78.06 -107.74,78.06 -59.463,0 -107.739,-34.98 -107.739,-78.06 z"
         style="fill:#f68c4c"
         id="path830"
         inkscape:connector-curvature="0" /></g><g
       id="Torso4"
       serif:id="Torso"
       transform="matrix(0.748284,0,0,0.748284,97.4943,321.65)"><path
         d="m 773.481,634.191 v 222.373 c 0,51.354 -46.936,93.047 -104.748,93.047 -57.813,0 -104.749,-41.693 -104.749,-93.047 V 634.191 Z"
         style="fill:#304e7f"
         id="path833"
         inkscape:connector-curvature="0" /></g><g
       transform="matrix(4.73929,0,0,4.73929,-1900.83,-5582.76)"
       id="g838"><g
         id="Arm-11"
         serif:id="Arm 1"><path
           id="arm1_t1"
           serif:id="arm1_t"
           d="m 494.584,1354.68 c -0.893,-1.59 -0.753,-3.66 0.505,-5.17 l 17.96,-21.57 c 1.623,-1.95 4.497,-2.23 6.413,-0.64 1.917,1.6 2.154,4.48 0.531,6.43 l -16.451,19.75 3.947,26.81 c 0.375,2.55 -1.324,4.91 -3.791,5.27 -2.468,0.36 -4.775,-1.41 -5.15,-3.95 z m 55.574,-2.22 -16.452,-19.76 c -1.623,-1.94 -1.385,-4.82 0.531,-6.42 1.916,-1.6 4.79,-1.31 6.414,0.64 l 17.959,21.56 c 1.258,1.51 1.399,3.58 0.505,5.18 l -3.964,26.93 c -0.374,2.54 -2.682,4.31 -5.149,3.95 -2.468,-0.37 -4.167,-2.73 -3.792,-5.27 l 0.301,-2.05 z"
           style="fill:#f68c4c"
           inkscape:connector-curvature="0" /></g></g><g
       transform="matrix(0.748284,0,0,0.748284,95.2494,293.286)"
       id="g842"><path
         d="m 723.347,688.08 v 50.065 c 0,14.921 -12.112,26.874 -27.031,26.675 l -55.167,-0.735 c -14.918,-0.198 -27.031,-12.474 -27.031,-27.396 V 688.08 Z"
         style="fill:#3c5f98"
         id="path840"
         inkscape:connector-curvature="0" /></g><g
       transform="matrix(0.748284,0,0,0.748284,97.4943,321.65)"
       id="g846"><path
         d="m 727.339,498.613 c 27.833,16.732 46.142,45.038 46.142,77.112 v 80.214 h -46.142 z"
         style="fill:#304e7f"
         id="path844"
         inkscape:connector-curvature="0" /></g><g
       transform="matrix(0.748284,0,0,0.748284,97.4943,321.65)"
       id="g850"><path
         d="m 604.472,655.939 h -40.488 v -80.214 c 10e-4,-29.849 15.857,-56.433 40.488,-73.464 z"
         style="fill:#304e7f"
         id="path848"
         inkscape:connector-curvature="0" /></g><g
       id="Leg-11"
       serif:id="Leg 1"
       transform="translate(-18.1689,-2.33355)"><g
         transform="matrix(-0.0932271,2.59274e-4,-2.59274e-4,-0.0932271,701.422,863.088)"
         id="g868"><g
           transform="rotate(-179.84066,260.83989,1063.8744)"
           id="g854"><ellipse
             cx="264.63699"
             cy="1051.51"
             rx="137.01601"
             ry="141.48801"
             style="fill:#ffffff"
             id="ellipse852" /></g><g
           transform="matrix(1.05844,0,0,1.05844,-14.9565,-69.1062)"
           id="g858"><path
             d="m 153.771,1032.16 c 29.544,-21.25 68.228,-34.131 110.547,-34.131 36.948,0 71.124,9.821 98.866,26.451 l -107.312,158.06 z"
             style="fill:#f68d4c"
             id="path856"
             inkscape:connector-curvature="0" /></g><path
           d="m 153.771,1032.16 c 29.544,-21.25 68.228,-34.131 110.547,-34.131 36.948,0 71.124,9.821 98.866,26.451 l -107.312,158.06 z"
           style="fill:#fff273"
           id="path860"
           inkscape:connector-curvature="0" /><g
           transform="translate(1.00654,20.164)"
           id="g864"><path
             d="m 253.175,1087.88 v -95.841 h 5.389 v 0.226 h 0.005 v 95.395 l 16.772,-95.119 5.306,0.936 -16.78,95.163 32.966,-90.571 5.063,1.843 -32.196,88.458 47.298,-81.92 4.667,2.69 -46.192,80.01 59.751,-71.21 4.128,3.46 -79.393,94.62 -0.871,1.51 -0.519,1.42 v 0.96 h -4.583 l -0.48,0.18 -0.064,-0.18 h -0.261 v -0.23 h -0.006 v -0.5 l -0.519,-1.43 -0.871,-1.51 -79.393,-94.61 4.128,-3.47 59.751,71.21 -46.191,-80 4.666,-2.7 47.298,81.92 -32.196,-88.45 5.063,-1.845 32.966,90.575 -16.78,-95.168 5.306,-0.935 z"
             style="fill:#f68d4c"
             id="path862"
             inkscape:connector-curvature="0" /></g><path
           d="m 216.558,1124.63 c 11.377,-8.18 26.273,-13.14 42.57,-13.14 14.228,0 27.389,3.78 38.071,10.18 l -41.324,60.87 z"
           style="fill:#f68d4c"
           id="path866"
           inkscape:connector-curvature="0" /></g><g
         id="leg1_t1"
         serif:id="leg1_t"
         transform="matrix(0.999988,-0.0048479,0.00357682,0.737799,14.4829,239.875)"><path
           d="m 519.515,1005.69 c 0,-18.354 15.309,-33.253 34.165,-33.253 18.857,0 34.166,14.899 34.166,33.253 v 203 c 0,18.36 -15.309,33.25 -34.166,33.25 -18.856,0 -34.165,-14.89 -34.165,-33.25 z"
           style="fill:#304e80"
           id="path870"
           inkscape:connector-curvature="0" /></g><g
         id="leg1_b1"
         serif:id="leg1_b"
         transform="matrix(-0.99992,0.0126229,0.00931323,0.737749,1202.76,382.733)"><path
           d="m 519.515,1005.69 c 0,-18.354 15.309,-33.253 34.165,-33.253 18.857,0 34.166,14.899 34.166,33.253 v 203 c 0,18.36 -15.309,33.25 -34.166,33.25 -18.856,0 -34.165,-14.89 -34.165,-33.25 z"
           style="fill:#304e80"
           id="path873"
           inkscape:connector-curvature="0" /></g><g
         id="leg1_b2"
         serif:id="leg1_b"
         transform="matrix(-0.99992,0.0126229,0.00931323,0.737749,1116.31,382.733)"><path
           d="m 519.515,1005.69 c 0,-18.354 15.309,-33.253 34.165,-33.253 18.857,0 34.166,14.899 34.166,33.253 v 203 c 0,18.36 -15.309,33.25 -34.166,33.25 -18.856,0 -34.165,-14.89 -34.165,-33.25 z"
           style="fill:#304e80"
           id="path876"
           inkscape:connector-curvature="0" /></g><g
         id="leg1_t2"
         serif:id="leg1_t"
         transform="matrix(-0.999936,-0.01135,-0.00837412,0.73776,1222.25,243.521)"><path
           d="m 519.515,1005.69 c 0,-18.354 15.309,-33.253 34.165,-33.253 18.857,0 34.166,14.899 34.166,33.253 v 203 c 0,18.36 -15.309,33.25 -34.166,33.25 -18.856,0 -34.165,-14.89 -34.165,-33.25 z"
           style="fill:#304e80"
           id="path879"
           inkscape:connector-curvature="0" /></g><g
         transform="matrix(4.73929,0,0,4.73929,-1882.66,-5580.43)"
         id="g884"><path
           d="m 543.774,1378.91 v 2.18 c 0.933,9.91 -6.983,14.61 -16.539,14.69 -9.625,0.08 -17.277,-4.78 -16.538,-14.69 v -2.18 z"
           style="fill:#304e7f"
           id="path882"
           inkscape:connector-curvature="0" /></g></g></g><g
     id="g897"
     transform="matrix(0.66797933,0,0,0.66797933,80.241758,-58.45258)"><g
       transform="matrix(1,0,0,1.11102,595.67,85.7908)"
       id="g891"><path
         d="m 354.955,432.314 c -1.538,-3.423 -2.386,-7.169 -2.386,-11.093 0,-16.226 14.498,-29.4 32.355,-29.4 1.038,0 2.065,0.045 3.078,0.132 5.179,-9.971 16.347,-16.877 29.276,-16.877 12.93,0 24.098,6.906 29.277,16.877 1.013,-0.087 2.04,-0.132 3.078,-0.132 11.21,0 21.096,5.192 26.903,13.071 1.772,-0.274 3.594,-0.416 5.451,-0.416 17.281,0 31.415,12.336 32.31,27.838 z"
         style="fill:#ffffff"
         id="path889"
         inkscape:connector-curvature="0" /></g><g
       transform="translate(-306.308,113.195)"
       id="g895"><path
         d="m 819.848,293.619 c -1.126,-9.939 5.63,-19.207 15.615,-21.049 1.044,-0.192 2.085,-0.296 3.113,-0.317 2.423,-5.788 7.627,-10.28 14.253,-11.502 3.258,-0.601 6.478,-0.34 9.424,0.62 2.409,-1.948 5.324,-3.34 8.583,-3.941 3.628,-0.669 7.208,-0.27 10.415,0.974 2.552,-2.306 5.754,-3.956 9.383,-4.625 10.432,-1.924 20.464,4.984 22.388,15.416 0.558,3.024 0.374,6.015 -0.424,8.784 0.64,-0.177 1.294,-0.327 1.961,-0.45 10.927,-2.015 21.228,4.101 22.989,13.65 0.15,0.816 0.234,1.63 0.253,2.44 z"
         style="fill:#ffffff"
         id="path893"
         inkscape:connector-curvature="0" /></g></g></svg>
