<?xml version="1.0" encoding="UTF-8" standalone="no"?>
<svg
   xmlns:dc="http://purl.org/dc/elements/1.1/"
   xmlns:cc="http://creativecommons.org/ns#"
   xmlns:rdf="http://www.w3.org/1999/02/22-rdf-syntax-ns#"
   xmlns:svg="http://www.w3.org/2000/svg"
   xmlns="http://www.w3.org/2000/svg"
   xmlns:sodipodi="http://sodipodi.sourceforge.net/DTD/sodipodi-0.dtd"
   xmlns:inkscape="http://www.inkscape.org/namespaces/inkscape"
   inkscape:version="1.0 (1.0+r73+1)"
   sodipodi:docname="train_crossing.svg"
   viewBox="0 0 801.33331 801.33331"
   height="801.33331"
   width="801.33331"
   xml:space="preserve"
   id="svg2"
   version="1.1"><metadata
     id="metadata8"><rdf:RDF><cc:Work
         rdf:about=""><dc:format>image/svg+xml</dc:format><dc:type
           rdf:resource="http://purl.org/dc/dcmitype/StillImage" /><dc:title></dc:title></cc:Work></rdf:RDF></metadata><defs
     id="defs6"><linearGradient
       inkscape:collect="always"
       x1="20.757"
       y1="12.897"
       gradientTransform="matrix(8.7023185,0,0,4.7876542,-171.49582,-50.105099)"
       x2="24.649"
       gradientUnits="userSpaceOnUse"
       y2="25.563999"
       id="linearGradient2977"><stop
         offset="0"
         style="stop-color:white"
         id="stop2973" /><stop
         offset="1"
         style="stop-color:white;stop-opacity:0"
         id="stop2975" /></linearGradient><linearGradient
       inkscape:collect="always"
       x1="35.332001"
       y1="6.3339"
       gradientTransform="matrix(8.7023185,0,0,4.7876542,-171.49582,-50.105099)"
       x2="37.011002"
       gradientUnits="userSpaceOnUse"
       y2="29.837999"
       id="linearGradient2959"><stop
         offset="0"
         style="stop-color:#646464;stop-opacity:.69677"
         id="stop2963" /><stop
         offset="1"
         style="stop-color:white;stop-opacity:0"
         id="stop2965" /></linearGradient><linearGradient
       id="linearGradient4951"
       x1="11.304"
       gradientUnits="userSpaceOnUse"
       y1="238.68"
       gradientTransform="matrix(0.49495501,0,0,0.28467751,479.7883,236.46662)"
       x2="83.562"
       y2="237.41"><stop
         id="stop3166"
         stop-color="#fff"
         offset="0" /><stop
         id="stop3168"
         stop-color="#b8b8b8"
         offset=".74887" /><stop
         id="stop3170"
         stop-color="#6e6e6e"
         offset="1" /></linearGradient><linearGradient
       id="linearGradient4953"
       x1="70.932"
       gradientUnits="userSpaceOnUse"
       y1="208.9"
       gradientTransform="matrix(0.50794501,0,0,0.50794501,478.70282,172.07162)"
       x2="77.487"
       y2="208.9"><stop
         id="stop3196"
         stop-color="#bfdce8"
         offset="0" /><stop
         id="stop3198"
         stop-color="#d90000"
         offset=".74887" /><stop
         id="stop3200"
         stop-color="#5f0000"
         offset="1" /></linearGradient><linearGradient
       id="linearGradient4972"
       x1="4.4587"
       gradientUnits="userSpaceOnUse"
       y1="361.39"
       gradientTransform="matrix(0.50794501,0,0,0.50794501,478.84712,-385.37987)"
       x2="13.333"
       y2="361.39"><stop
         id="stop4968"
         stop-color="#c9cac7"
         offset="0" /><stop
         id="stop4974"
         stop-color="#8b8b88"
         offset=".5" /><stop
         id="stop4970"
         stop-color="#e3e3e2"
         offset="1" /></linearGradient><filter
       id="filter6403"
       y="-.13163"
       width="1.2135"
       x="-.10673"
       height="1.2633"><feGaussianBlur
         id="feGaussianBlur6405"
         stdDeviation="8.8590134" /></filter><linearGradient
       id="linearGradient3174"
       x1="11.304"
       gradientUnits="userSpaceOnUse"
       y1="238.68"
       gradientTransform="matrix(0.49494001,0,0,0.29105251,479.78845,206.94662)"
       x2="83.562"
       y2="237.41"><stop
         id="stop3180"
         stop-color="#f00"
         offset="0" /><stop
         id="stop3182"
         stop-color="#d00000"
         offset=".74887" /><stop
         id="stop3184"
         stop-color="#640000"
         offset="1" /></linearGradient><linearGradient
       id="linearGradient3270"
       x1="102.43"
       gradientUnits="userSpaceOnUse"
       y1="200.67"
       gradientTransform="matrix(0.50794501,0,0,0.23372251,478.70282,236.28662)"
       x2="112.86"
       y2="200.67"><stop
         id="stop3312"
         stop-color="#717171"
         offset="0" /><stop
         id="stop3314"
         stop-color="#c0c0c0"
         offset=".37443" /><stop
         id="stop3316"
         stop-color="#6c6c6c"
         offset=".74887" /><stop
         id="stop3318"
         stop-color="#323232"
         offset="1" /></linearGradient><linearGradient
       id="linearGradient3272"
       x1="108.26"
       gradientUnits="userSpaceOnUse"
       y1="219.37"
       gradientTransform="matrix(0.50794501,0,0,0.25159501,478.70282,235.23662)"
       x2="57.665"
       y2="219.37"><stop
         id="stop3282"
         stop-color="#2c2c2c"
         stop-opacity=".44314"
         offset="0" /><stop
         id="stop3284"
         stop-color="#8b8b8b"
         offset="0" /><stop
         id="stop3286"
         stop-color="#fff"
         offset=".12588" /><stop
         id="stop3288"
         stop-color="#939393"
         offset=".39162" /><stop
         id="stop3290"
         stop-color="#222"
         offset=".48939" /><stop
         id="stop3292"
         stop-color="#222"
         offset="1" /></linearGradient><linearGradient
       id="linearGradient3334"
       x1="108.26"
       gradientUnits="userSpaceOnUse"
       y1="219.37"
       gradientTransform="matrix(0.50794501,0,0,0.25159501,478.70282,211.23662)"
       x2="57.665"
       y2="219.37"><stop
         id="stop3322"
         stop-color="#fdfdfd"
         offset="0" /><stop
         id="stop3324"
         stop-color="#9c0101"
         offset="0" /><stop
         id="stop3326"
         stop-color="#ff0505"
         offset=".1049" /><stop
         id="stop3328"
         stop-color="#a70000"
         offset=".39162" /><stop
         id="stop3330"
         stop-color="#400"
         offset=".48939" /><stop
         id="stop3332"
         stop-color="#690000"
         offset="1" /></linearGradient><linearGradient
       id="linearGradient3340"
       x1="102.43"
       gradientUnits="userSpaceOnUse"
       y1="200.67"
       gradientTransform="matrix(0.50794501,0,0,0.23372251,478.70282,212.28662)"
       x2="112.86"
       y2="200.67"><stop
         id="stop3232"
         stop-color="#be0000"
         offset="0" /><stop
         id="stop3248"
         stop-color="#eb9595"
         offset=".37443" /><stop
         id="stop3234"
         stop-color="#d90000"
         offset=".74887" /><stop
         id="stop3236"
         stop-color="#640000"
         offset="1" /></linearGradient><linearGradient
       id="linearGradient3342"
       x1="183.22"
       gradientUnits="userSpaceOnUse"
       y1="212.75"
       gradientTransform="matrix(0.37524751,0,0,0.23770501,492.55247,211.57412)"
       x2="-10.995"
       y2="216.74"><stop
         id="stop3222"
         stop-color="#fff"
         offset="0" /><stop
         id="stop3278"
         stop-color="#fd1919"
         offset="0" /><stop
         id="stop3224"
         stop-color="#ff0505"
         offset=".14621" /><stop
         id="stop3226"
         stop-color="#a70000"
         offset=".39162" /><stop
         id="stop3276"
         stop-color="#400"
         offset=".48939" /><stop
         id="stop3228"
         stop-color="#400"
         offset="1" /></linearGradient><linearGradient
       gradientTransform="matrix(0.75000002,0,0,-0.75000002,475.11947,324.84662)"
       id="linearGradient3358"
       y2="103.9"
       gradientUnits="userSpaceOnUse"
       y1="103.9"
       x2="75.873"
       x1="74.468"><stop
         id="stop3375"
         stop-color="#640000"
         offset="0" /><stop
         id="stop3377"
         stop-color="#a80000"
         offset="1" /></linearGradient><linearGradient
       gradientTransform="matrix(0.75000002,0,0,-0.75000002,475.11947,324.84662)"
       id="linearGradient4359"
       y2="67.706"
       gradientUnits="userSpaceOnUse"
       y1="68.706"
       x2="-17.75"
       x1="114.25"><stop
         id="stop4363"
         stop-color="#fff"
         offset="0" /><stop
         id="stop4365"
         stop-color="#e0e0e0"
         offset="0" /><stop
         id="stop4367"
         stop-color="#d8d8d8"
         offset=".1049" /><stop
         id="stop4369"
         stop-color="#535353"
         offset=".39162" /><stop
         id="stop4371"
         stop-color="#222"
         offset=".48939" /><stop
         id="stop4373"
         stop-color="#343434"
         offset="1" /></linearGradient></defs><sodipodi:namedview
     inkscape:current-layer="g10"
     inkscape:window-maximized="1"
     inkscape:window-y="0"
     inkscape:window-x="0"
     inkscape:cy="689.96329"
     inkscape:cx="400.66666"
     inkscape:zoom="1.7255553"
     showgrid="false"
     id="namedview4"
     inkscape:window-height="1027"
     inkscape:window-width="1920"
     inkscape:pageshadow="2"
     inkscape:pageopacity="0"
     guidetolerance="10"
     gridtolerance="10"
     objecttolerance="10"
     borderopacity="1"
     bordercolor="#666666"
     pagecolor="#ffffff" /><g
     transform="matrix(1.3333333,0,0,-1.3333333,0,801.33333)"
     inkscape:label="ink_ext_XXXXXX"
     inkscape:groupmode="layer"
     id="g10"><path
       d="M 0,0 H 600.998 V 601 H 0 V 0"
       style="fill:#e0f1fb;fill-opacity:1;fill-rule:evenodd;stroke:none;stroke-width:0.1"
       id="path14" /><path
       d="M 0,0 H 600.998 V 288.829 H 0 V 0"
       style="fill:#adda1a;fill-opacity:1;fill-rule:evenodd;stroke:none;stroke-width:0.1"
       id="path16" /><g
       class="change-fill-instead"
       data-question="What simple machine is used to move the train?"
       data-machinetype="wheel_and_axle"
       id="g1704"><path
         id="path18"
         style="fill:#2f2825;fill-opacity:1;fill-rule:evenodd;stroke:none;stroke-width:0.1"
         d="m 159.983,278.389 c 16.65,0 30.147,-13.497 30.147,-30.147 0,-16.65 -13.497,-30.148 -30.147,-30.148 -16.65,0 -30.147,13.498 -30.147,30.148 0,16.65 13.497,30.147 30.147,30.147 z m 136.149,0 c 16.65,0 30.147,-13.497 30.147,-30.147 0,-16.65 -13.497,-30.148 -30.147,-30.148 -16.65,0 -30.147,13.498 -30.147,30.148 0,16.65 13.497,30.147 30.147,30.147 v 0" /><path
         id="path20"
         style="fill:#2f2825;fill-opacity:1;fill-rule:evenodd;stroke:none;stroke-width:0.1"
         d="m 157.187,239.489 h 141.74 v 26.743 h -141.74 v -26.743" /></g><path
       d="M 0,69.0449 H 600.998 V 194.497 H 0 V 69.0449"
       style="fill:#adda1a;fill-opacity:1;fill-rule:evenodd;stroke:none;stroke-width:0.1"
       id="path22" /><path
       d="m 0,169.585 h 600.998 v 34.524 H 0 v -34.524"
       style="fill:#d0e678;fill-opacity:1;fill-rule:evenodd;stroke:none;stroke-width:0.1"
       id="path24" /><path
       d="m 0,204.109 h 600.998 v 17.505 H 0 v -17.505"
       style="fill:#2f2825;fill-opacity:1;fill-rule:evenodd;stroke:none;stroke-width:0.1"
       id="path26" /><path
       d="m 549.335,210.43 h 35.256 v -20.422 h -35.256 z m -76.13,0 c 11.75,0 23.501,0 35.252,0 0,-6.807 0,-13.615 0,-20.422 -11.751,0 -23.502,0 -35.252,0 0,6.807 0,13.615 0,20.422 z m -76.133,0 c 11.751,0 23.502,0 35.253,0 0,-6.807 0,-13.615 0,-20.422 -11.751,0 -23.502,0 -35.253,0 0,6.807 0,13.615 0,20.422 z m -76.133,0 c 11.751,0 23.502,0 35.253,0 0,-6.807 0,-13.615 0,-20.422 -11.751,0 -23.502,0 -35.253,0 0,6.807 0,13.615 0,20.422 z m -76.132,0 c 11.752,0 23.503,0 35.254,0 0,-6.807 0,-13.615 0,-20.422 -11.751,0 -23.502,0 -35.254,0 0,6.807 0,13.615 0,20.422 z m -76.132,0 c 11.751,0 23.502,0 35.253,0 0,-6.807 0,-13.615 0,-20.422 -11.751,0 -23.502,0 -35.253,0 0,6.807 0,13.615 0,20.422 z m -152.2648,0 H 51.6637 V 190.008 H 16.4102 Z m 76.1324,0 c 11.7514,0 23.5024,0 35.2534,0 0,-6.807 0,-13.615 0,-20.422 -11.751,0 -23.502,0 -35.2534,0 0,6.807 0,13.615 0,20.422 v 0"
       style="fill:#f0f7b7;fill-opacity:1;fill-rule:evenodd;stroke:none;stroke-width:0.1"
       id="path28" /><path
       d="m 0,432.81 1.09922,0.634 c 48.36018,27.921 103.71978,27.921 152.08078,0 l 31.177,-18 c 51.282,-29.608 107.153,-34.77 162.994,-15.067 69.115,24.389 143.232,17.453 209.503,-20.807 l 44.144,-25.488 V 263.917 H 0 V 432.81"
       style="fill:#c9deeb;fill-opacity:1;fill-rule:evenodd;stroke:none;stroke-width:0.1"
       id="path30" /><path
       d="m 0,449.062 h 365.057 c 20.325,0 36.954,-16.63 36.954,-36.955 V 248.242 H 0 v 200.82"
       style="fill:#b1481f;fill-opacity:1;fill-rule:evenodd;stroke:none;stroke-width:0.1"
       id="path32" /><path
       d="M 0,275.589 H 402.011 V 412.107 H 0 V 275.589"
       style="fill:#91361d;fill-opacity:1;fill-rule:evenodd;stroke:none;stroke-width:0.1"
       id="path34" /><path
       d="m 325.915,386.822 h 42.304 c 5.884,0 10.697,-4.813 10.697,-10.697 v -89.84 c 0,-5.884 -4.813,-10.697 -10.697,-10.697 h -42.304 c -5.884,0 -10.697,4.813 -10.697,10.697 v 89.84 c 0,5.884 4.813,10.697 10.697,10.697"
       style="fill:#381a14;fill-opacity:1;fill-rule:evenodd;stroke:none;stroke-width:0.1"
       id="path36" /><path
       d="m 338.578,275.588 h -12.663 c -5.884,0 -10.697,4.813 -10.697,10.697 v 72.866 l 10.846,17.376 42.149,-37.207 -29.635,-63.732"
       style="fill:#502116;fill-opacity:1;fill-rule:evenodd;stroke:none;stroke-width:0.1"
       id="path38" /><path
       d="m 0,386.822 h 70.1492 c 5.8844,0 10.6981,-4.814 10.6981,-10.697 v -44.919 c 0,-5.883 -4.8145,-10.698 -10.6981,-10.698 H 0 Z m 213.835,0 h 75.369 c 5.883,0 10.697,-4.814 10.697,-10.697 v -44.919 c 0,-5.883 -4.814,-10.698 -10.697,-10.698 h -75.369 c -5.882,0 -10.697,4.813 -10.697,10.698 v 44.919 c 0,5.884 4.813,10.697 10.697,10.697 z m -109.527,0 c 25.123,0 50.245,0 75.369,0 5.883,0 10.697,-4.814 10.697,-10.697 0,-14.973 0,-29.947 0,-44.919 0,-5.883 -4.814,-10.698 -10.697,-10.698 -25.124,0 -50.246,0 -75.369,0 -5.8826,0 -10.6975,4.813 -10.6975,10.698 0,14.972 0,29.946 0,44.919 0,5.884 4.8133,10.697 10.6975,10.697 v 0"
       style="fill:#4ba6ce;fill-opacity:1;fill-rule:evenodd;stroke:none;stroke-width:0.1"
       id="path40" /><path
       d="m 0,330.477 h 70.1492 c 0.3813,0 0.7281,0.348 0.7281,0.729 v 44.919 c 0,0.381 -0.346,0.729 -0.7281,0.729 H 0 Z m 213.835,46.377 c -0.381,0 -0.728,-0.347 -0.728,-0.729 v -44.919 c 0,-0.382 0.347,-0.729 0.728,-0.729 h 75.369 c 0.38,0 0.728,0.348 0.728,0.729 v 44.919 c 0,0.381 -0.347,0.729 -0.728,0.729 z m -109.527,0 c -0.382,0 -0.728,-0.347 -0.728,-0.729 0,-14.973 0,-29.947 0,-44.919 0,-0.382 0.347,-0.729 0.728,-0.729 25.123,0 50.245,0 75.369,0 0.38,0 0.728,0.348 0.728,0.729 0,14.972 0,29.946 0,44.919 0,0.381 -0.347,0.729 -0.728,0.729 -25.124,0 -50.246,0 -75.369,0 v 0"
       style="fill:#59bbe2;fill-opacity:1;fill-rule:evenodd;stroke:none;stroke-width:0.1"
       id="path42" /><path
       d="M 43.6504,386.822 H 61.8855 V 320.508 H 43.6504 Z m 69.2906,0 h 29.051 v -66.314 h -29.051 z m 42.304,0 h 13.371 v -66.314 h -13.371 z m 67.345,0 h 26.014 V 320.508 H 222.59 Z m 37.684,0 h 16.289 v -66.314 h -16.289 z m -252.84822,0 H 31.4949 V 320.508 H 7.42578 v 66.314 0"
       style="fill:#59bbe2;fill-opacity:1;fill-rule:evenodd;stroke:none;stroke-width:0.1"
       id="path44" /><path
       d="M 61.8855,376.854 V 330.477 H 43.6504 v 46.377 z m 186.7185,0 V 330.477 H 222.59 v 46.377 z m 27.959,0 v -46.377 h -16.289 v 46.377 z m -245.0681,0 V 330.477 H 7.42578 v 46.377 z M 155.245,330.477 h 13.371 v 46.377 h -13.371 z m -42.304,0 h 29.051 v 46.377 h -29.051 v -46.377 0"
       style="fill:#67ccf2;fill-opacity:1;fill-rule:evenodd;stroke:none;stroke-width:0.1"
       id="path46" /><path
       d="m 332.574,380.498 h 28.987 c 4.031,0 7.33,-3.299 7.33,-7.33 v -30.779 c 0,-4.032 -3.299,-7.33 -7.33,-7.33 h -28.987 c -4.031,0 -7.33,3.298 -7.33,7.33 v 30.779 c 0,4.032 3.298,7.33 7.33,7.33"
       style="fill:#67ccf2;fill-opacity:1;fill-rule:evenodd;stroke:none;stroke-width:0.1"
       id="path48" /><path
       d="m 328.771,283.129 -0.542,-0.51 c -2.447,-2.304 -4.897,-3.89 -7.999,-5.184 l -0.188,-0.08 c 1.266,-0.81 2.701,-1.415 4.421,-1.668 l 8.321,3.004 -0.728,4.133 -3.285,0.305"
       style="fill:#df8c16;fill-opacity:1;fill-rule:evenodd;stroke:none;stroke-width:0.1"
       id="path50" /><path
       d="m 351.869,275.588 h 14.406 c -2.244,2.583 -5.159,3.384 -8.376,3.374 l -4.935,0.885 -1.095,-4.259"
       style="fill:#df8c16;fill-opacity:1;fill-rule:evenodd;stroke:none;stroke-width:0.1"
       id="path52" /><path
       d="m 336.812,323.126 c 0.688,-1.167 1.629,-2.613 0.257,-3.739 -0.131,-0.557 -0.262,-1.114 -0.394,-1.671 -2.832,-0.145 -3.634,1.49 -2.494,4.83 0.877,0.194 1.753,0.387 2.631,0.58"
       style="fill:#f28f62;fill-opacity:1;fill-rule:evenodd;stroke:none;stroke-width:0.1"
       id="path56" /><path
       d="m 328.771,283.129 c 5.49,15.978 12.422,31.024 20.667,45.221 6.078,-0.729 12.156,-1.458 18.234,-2.187 -1.868,-17.902 -4.988,-32.381 -9.773,-47.201 -1.848,-0.617 -4.243,-1.906 -6.03,-3.374 -0.742,11.502 0.153,23.004 1.683,34.506 -5.893,-11.339 -12.768,-21.848 -20.768,-31.403 -0.851,2.027 -2.127,3.749 -4.013,4.438"
       style="fill:#fbca07;fill-opacity:1;fill-rule:evenodd;stroke:none;stroke-width:0.1"
       id="path58" /><path
       d="m 365.908,359.163 6.517,-12.012 6.491,10.211 v -3.89 l -2.954,-13.632 c -0.319,-1.477 -2.267,-2.45 -3.436,-1.486 l -6.347,5.229 1.493,-17.42 c -6.64,-1.239 -12.567,0.02 -18.234,2.187 l -3.894,15.72 -5.859,-7.342 -2.211,-13.623 c -0.188,-1.158 -3.719,-1.176 -3.585,-0.009 l 1.082,9.407 c 0.419,3.643 0.633,5.649 2.046,9.034 l 4.363,10.448 c 0.936,2.245 2.369,3.911 4.448,5.175 l 7.631,4.64 8.531,-0.232 c 1.688,-0.047 3.114,-0.921 3.918,-2.405"
       style="fill:#ffffff;fill-opacity:1;fill-rule:evenodd;stroke:none;stroke-width:0.1"
       id="path60" /><path
       d="m 359.749,361.629 -0.965,0.026 c -1.261,0.034 -2.262,1.083 -2.239,2.343 l 0.05,2.725 h -4.619 l -0.071,-2.209 c -0.077,-2.399 -1.259,-4.425 -3.31,-5.672 l -0.212,-0.129 c 1.213,-0.727 2.799,-1.168 4.534,-1.168 3.485,0 6.365,1.777 6.832,4.084"
       style="fill:#faba9c;fill-opacity:1;fill-rule:evenodd;stroke:none;stroke-width:0.1"
       id="path62" /><path
       d="m 359.181,368.031 c 1.137,0 2.066,1.358 2.066,3.023 0,1.666 -0.929,3.024 -2.066,3.024 -1.139,0 -2.067,-1.358 -2.067,-3.024 0,-1.665 0.928,-3.023 2.067,-3.023"
       style="fill:#2d2b2e;fill-opacity:1;fill-rule:evenodd;stroke:none;stroke-width:0.1"
       id="path64" /><path
       d="m 357.354,362.205 c -0.506,0.432 -0.823,1.079 -0.809,1.793 l 0.05,2.725 h -4.588 c 0.704,-2.613 2.692,-4.544 4.906,-4.544 0.15,0 0.296,0.008 0.441,0.026"
       style="fill:#d48966;fill-opacity:1;fill-rule:evenodd;stroke:none;stroke-width:0.1"
       id="path66" /><path
       d="m 355.461,375.796 c 2.624,0 4.934,-2.714 5.158,-6.064 0.225,-3.349 -1.721,-6.064 -4.345,-6.064 -2.624,0 -4.933,2.715 -5.158,6.064 -0.225,3.35 1.72,6.064 4.345,6.064"
       style="fill:#faba9c;fill-opacity:1;fill-rule:evenodd;stroke:none;stroke-width:0.1"
       id="path68" /><path
       d="m 356.142,371.282 c 2.845,0 5.166,1.344 5.166,2.993 0,1.649 -2.321,2.994 -5.166,2.994 -2.847,0 -5.167,-1.345 -5.167,-2.994 0,-1.649 2.32,-2.993 5.167,-2.993"
       style="fill:#2d2b2e;fill-opacity:1;fill-rule:evenodd;stroke:none;stroke-width:0.1"
       id="path70" /><path
       d="m 352.039,367.666 c 1.322,0 2.4,1.529 2.4,3.403 0,1.875 -1.078,3.405 -2.4,3.405 -1.323,0 -2.401,-1.53 -2.401,-3.405 0,-1.874 1.078,-3.403 2.401,-3.403"
       style="fill:#2d2b2e;fill-opacity:1;fill-rule:evenodd;stroke:none;stroke-width:0.1"
       id="path72" /><path
       d="m 352.54,367.012 c 0.703,0 1.276,0.812 1.276,1.809 0,0.995 -0.573,1.808 -1.276,1.808 -0.703,0 -1.276,-0.813 -1.276,-1.808 0,-0.997 0.573,-1.809 1.276,-1.809"
       style="fill:#faba9c;fill-opacity:1;fill-rule:evenodd;stroke:none;stroke-width:0.1"
       id="path74" /><path
       d="M 0,0 H 600.998 V 66.3121 H 0 V 0"
       style="fill:#9ac421;fill-opacity:1;fill-rule:evenodd;stroke:none;stroke-width:0.1"
       id="path76" /><path
       sodipodi:nodetypes="ccccc"
       d="M 166.79744,-169.84486 H 424.17079 L 481.16478,-0.3517114 112.60014,-0.21693597 Z"
       transform="scale(1,-1)"
       style="fill:#c8c8c8;fill-opacity:1;stroke-width:5.10236"
       id="rect1124" /><g
       data-question="What simple machine is used to raise and lower this gate?"
       data-machinetype="lever"
       id="g1682"><g
         transform="matrix(0.63672861,0,0,0.63672861,-72.631103,94.902839)"
         inkscape:label="1. réteg"
         id="layer1"><g
           inkscape:transform-center-y="-4.4569595"
           inkscape:transform-center-x="-255.74609"
           id="g4420"
           transform="matrix(0.99999368,0.00355575,0.00355575,-0.99999368,604.26558,379.03591)"><path
             sodipodi:nodetypes="ccccc"
             d="m -270.97378,40.860331 v 23.938272 h 491.0823 V 40.860331 Z"
             style="fill:#ffffff"
             id="path2918"
             inkscape:connector-curvature="0" /><path
             sodipodi:nodetypes="ccccc"
             d="M -262.30627,31.285023 H 211.4236 l 8.68492,9.575308 h -491.0997 z"
             style="fill:#ffffff;fill-rule:evenodd"
             id="path2920"
             inkscape:connector-curvature="0" /><path
             sodipodi:nodetypes="ccccc"
             d="m -270.97378,40.860331 v 23.938272 h 491.0823 V 40.860331 Z"
             style="fill:url(#linearGradient2959);fill-rule:evenodd"
             id="path2951"
             inkscape:connector-curvature="0" /><path
             d="M 19.95519,64.798603 V 40.860331 l -8.702319,-9.575308 h 17.404637 l 8.702319,9.575308 v 23.938272 z"
             style="fill:#ef2929;fill-rule:evenodd"
             sodipodi:nodetypes="ccccccc"
             id="path2937"
             inkscape:connector-curvature="0" /><path
             d="M 63.466782,64.798603 V 40.860331 l -8.702318,-9.575308 h 17.404637 l 8.702318,9.575308 v 23.938272 z"
             style="fill:#ef2929;fill-rule:evenodd"
             sodipodi:nodetypes="ccccccc"
             id="path2939"
             inkscape:connector-curvature="0" /><path
             d="M 106.97838,64.798603 V 40.860331 l -8.702323,-9.575308 h 17.404633 l 8.70232,9.575308 v 23.938272 z"
             style="fill:#ef2929;fill-rule:evenodd"
             sodipodi:nodetypes="ccccccc"
             id="path2943"
             inkscape:connector-curvature="0" /><path
             d="M 150.48997,64.798603 V 40.860331 l -8.70232,-9.575308 h 17.40464 l 8.70231,9.575308 v 23.938272 z"
             style="fill:#ef2929;fill-rule:evenodd"
             sodipodi:nodetypes="ccccccc"
             id="path2945"
             inkscape:connector-curvature="0" /><path
             d="M 194.00156,64.798603 V 40.860331 l -8.70232,-9.575308 h 17.40464 l 8.70232,9.575308 v 23.938272 z"
             style="fill:#ef2929;fill-rule:evenodd"
             sodipodi:nodetypes="ccccccc"
             id="path2947"
             inkscape:connector-curvature="0" /><path
             sodipodi:nodetypes="ccccc"
             d="M -262.30627,31.285023 H 211.4236 l 8.68492,9.575308 h -491.0997 z"
             style="fill:url(#linearGradient2977);fill-rule:evenodd"
             id="path2969"
             inkscape:connector-curvature="0" /></g><g
           id="g4387"
           transform="matrix(1,0,0,-1,625.63401,344.91607)"><path
             style="fill:#babdb6"
             d="m 167.34766,788.08789 c -0.35108,1.00128 -0.56484,2.11114 -0.57032,3.30859 V 1014.7793 H 269.87695 V 791.2832 c 0.004,-1.11477 -0.23231,-2.19305 -0.58203,-3.1875 L 252.76367,757.08008 183.95605,757 Z"
             transform="translate(-519.48177,-787.56176)"
             id="rect1872"
             inkscape:connector-curvature="0"
             sodipodi:nodetypes="ccccccccc" /><path
             d="m -347.16334,1.9694212 c -0.94766,1.3574848 -1.47519,2.9813116 -1.48378,4.931622 V 223.16212 h 94.98957 V 6.9010432 c 0,-1.4090348 -0.59283,-2.7063779 -0.86776,-3.5054038 -14.71754,-29.5725484 -14.9667,-29.7615654 -14.9667,-29.7615654 h -63.44695 c -0.69936,0.713109 -3.66006,6.469532 -14.22438,28.3353472 z"
             style="fill:none;stroke:#eeeeec;stroke-width:8.11054;stroke-linecap:round;stroke-linejoin:round"
             sodipodi:nodetypes="csccscccc"
             id="path2916"
             inkscape:connector-curvature="0" /><rect
             x="-344.11246"
             y="175.66722"
             width="85.916763"
             height="42.958382"
             style="fill:#2e3436"
             id="rect2979" /><path
             d="m -326.92908,218.62571 25.8008,-42.95838 h 17.18335 l -25.8008,42.95838 z"
             style="fill:#edd400;fill-rule:evenodd"
             sodipodi:nodetypes="ccccc"
             id="path2983"
             inkscape:connector-curvature="0" /><path
             d="m -292.56238,218.62571 25.8008,-42.95838 9.31338,-0.32648 -0.12028,13.63499 -17.81055,29.64987 z"
             style="fill:#edd400;fill-rule:evenodd"
             sodipodi:nodetypes="cccccc"
             id="path2987"
             inkscape:connector-curvature="0" /><path
             d="m -335.52076,175.66733 -8.59168,14.38247 -0.25946,28.68761 26.03449,-43.07008 z"
             style="fill:#edd400;fill-rule:evenodd"
             sodipodi:nodetypes="ccccc"
             id="path2989"
             inkscape:connector-curvature="0" /></g></g></g><g
       data-question="What simple machine is used to raise and lower this flag?"
       data-machinetype="pulley"
       id="g1662"><g
         id="g1640"
         transform="translate(29.823178,31.167856)"><path
           d="m 531.84647,270.56537 c -0.624,0.17325 -0.873,0.3195 -0.873,0.4455 v 23.3715 c 0,0.49275 3.8805,0.687 4.66725,1.11075 v 0.321 c 0.081,-0.0487 0.12975,-0.0952 0.1425,-0.13875 v -23.37225 c 0.12225,-0.4095 -2.52,-0.61275 -3.93675,-0.91275 z"
           fill="url(#linearGradient3270)"
           fill-rule="evenodd"
           id="path3264"
           style="fill:url(#linearGradient3270);stroke-width:0.75" /><path
           d="m 558.23447,245.52662 c -6.2925,0.0525 -6.9975,0.8475 -13.55775,0.8775 -4.6815,0.0225 -11.52375,-0.48 -12.864,0.03 v 23.772 c 1.34025,-0.51375 8.1825,-0.007 12.864,-0.03 7.49775,-0.0353 7.34025,-1.06875 16.62525,-0.84675 v -23.77275 c -1.155,-0.0225 -2.1675,-0.0375 -3.0675,-0.03 z"
           fill="url(#linearGradient3342)"
           fill-rule="evenodd"
           id="path4793"
           style="fill:url(#linearGradient3342);stroke-width:0.75" /><path
           d="m 558.22697,268.84262 c -6.2925,0.0503 -6.9975,0.8595 -13.5525,0.89175 -4.68225,0.0225 -11.5245,-0.492 -12.864,0.03 v 24.17625 c 1.3395,-0.522 8.18175,-0.007 12.864,-0.03 7.4925,-0.036 7.3425,-1.0875 16.6275,-0.861 v -24.177 c -1.1625,-0.0285 -2.175,-0.0375 -3.075,-0.03 z"
           fill="url(#linearGradient4359)"
           id="path3262"
           style="fill:url(#linearGradient4359);stroke-width:0.75" /><path
           d="m 531.84647,246.56162 c -0.624,0.18 -0.873,0.3225 -0.873,0.45 v 23.37075 c 0,0.49275 3.8805,0.687 4.66725,1.11075 v 0.321 c 0.081,-0.0487 0.12975,-0.0952 0.1425,-0.13875 v -23.37375 c 0.12225,-0.405 -2.52,-0.615 -3.93675,-0.9075 z"
           fill="url(#linearGradient3340)"
           fill-rule="evenodd"
           id="path4797"
           style="fill:url(#linearGradient3340);stroke-width:0.75" /><path
           d="m 522.19547,249.67412 c -3.54225,-0.0225 -7.1535,0.237 -7.2225,0.645 v 25.1595 c 0.1095,-0.65325 9.279,-0.92625 12.747,-0.252 3.50625,0.6825 6.78825,0.8175 7.92075,0.0863 v -25.1588 c -1.1325,0.7305 -4.4145,0.5955 -7.92075,-0.0862 -1.3005,-0.25125 -3.399,-0.37875 -5.5245,-0.39375 z"
           fill="url(#linearGradient3334)"
           fill-rule="evenodd"
           id="path4803"
           style="fill:url(#linearGradient3334);stroke-width:0.75" /><path
           d="m 514.97522,250.98587 c 0,2.61375 6.174,1.87425 6.174,3.59475 v 50.7945 c 0,-1.7205 -6.174,-0.981 -6.174,-3.59475 z"
           fill="url(#linearGradient4953)"
           fill-rule="evenodd"
           id="path4807"
           style="fill:url(#linearGradient4953);stroke-width:0.75" /><path
           d="m 522.19547,273.67487 c -3.54225,-0.0255 -7.1535,0.23625 -7.2225,0.64425 v 25.1595 c 0.1095,-0.65325 9.279,-0.92625 12.747,-0.252 3.50625,0.6825 6.78825,0.8175 7.92075,0.0863 v -25.1588 c -1.1325,0.7305 -4.4145,0.5955 -7.92075,-0.0863 -1.3005,-0.2535 -3.399,-0.378 -5.5245,-0.393 z"
           fill="url(#linearGradient3272)"
           fill-rule="evenodd"
           id="path3266"
           style="fill:url(#linearGradient3272);stroke-width:0.75" /><path
           d="m 521.14772,282.70637 c 0,0.8085 -0.39825,1.266 -8.27475,1.43175 -0.234,0.005 -19.293,0.22275 -27.2535,0.22275 v 28.467 c 7.9605,0 27.0195,-0.2175 27.2535,-0.222 7.8765,-0.1665 8.27475,-0.62325 8.27475,-1.4325 z"
           fill="url(#linearGradient4951)"
           fill-rule="evenodd"
           id="path4809"
           style="fill:url(#linearGradient4951);stroke-width:0.75" /><rect
           transform="scale(1,-1)"
           fill="url(#linearGradient4972)"
           x="479.52438"
           y="-312.87964"
           width="6.0950999"
           height="229.58249"
           id="rect4964"
           style="fill:url(#linearGradient4972);stroke-width:0.75" /><path
           d="m 521.14697,254.22512 c 0,0.82725 -0.399,1.2945 -8.27475,1.464 -0.23475,0.005 -19.29225,0.228 -27.25275,0.228 v 29.10525 c 7.9605,0 27.018,-0.22275 27.25275,-0.22725 7.87575,-0.17025 8.27475,-0.6375 8.27475,-1.46475 z"
           fill="url(#linearGradient3174)"
           fill-rule="evenodd"
           style="fill:url(#linearGradient3174);stroke-width:0.75;enable-background:new"
           id="path3172" /><path
           d="m 530.97122,246.98912 c 0.0113,0.015 0.66825,0.405 0.9165,0.3975 0.249,-0.007 0.2205,-1.0125 -0.0645,-0.9525 -0.19725,0.045 -0.47475,0.1725 -0.65625,0.2925 -0.1755,0.12 -0.19575,0.2625 -0.19575,0.2625 z"
           fill="url(#linearGradient3358)"
           id="rect3346"
           style="fill:url(#linearGradient3358);stroke-width:0.75" /></g><path
         id="path1642"
         style="fill:none;stroke:#000000;stroke-width:0.75px;stroke-linecap:butt;stroke-linejoin:miter;stroke-opacity:1"
         d="m 509.34757,344.04749 c -6.05454,-35.36603 -0.69404,-72.23067 -5.46917,-114.18702 -3.18841,-33.12471 0.99878,-75.0972 0.35843,-108.24071 0.47702,-3.6645 0.0117,-7.39261 -1.1976,-10.85973"
         sodipodi:nodetypes="cccc" /></g></g></svg>
