<?xml version="1.0"?>
<svg xmlns:rdf="http://www.w3.org/1999/02/22-rdf-syntax-ns#" xmlns="http://www.w3.org/2000/svg" xmlns:cc="http://web.resource.org/cc/" xmlns:xlink="http://www.w3.org/1999/xlink" xmlns:dc="http://purl.org/dc/elements/1.1/" xmlns:svg="http://www.w3.org/2000/svg" id="svg2095" viewBox="0 0 419.41 209.6" version="1.0">
  <defs id="defs3">
    <linearGradient id="linearGradient2955" y2="469.85" gradientUnits="userSpaceOnUse" y1="484.7" gradientTransform="scale(.98248 1.0178)" x2="367.03" x1="369.65">
      <stop id="stop2949" stop-color="#050600" offset="0"/>
      <stop id="stop2951" stop-color="#050600" stop-opacity="0" offset="1"/>
    </linearGradient>
    <linearGradient id="linearGradient3721" y2="577.03" gradientUnits="userSpaceOnUse" y1="731.45" gradientTransform="scale(1.3316 .75098)" x2="449.33" x1="323.15">
      <stop id="stop3717" stop-color="#133695" offset="0"/>
      <stop id="stop3719" stop-color="#133695" stop-opacity="0" offset="1"/>
    </linearGradient>
    <linearGradient id="linearGradient3729" y2="530.19" gradientUnits="userSpaceOnUse" y1="567.08" gradientTransform="scale(1.3365 .74822)" x2="537.73" x1="321.22">
      <stop id="stop3725" stop-color="#1b3f95" offset="0"/>
      <stop id="stop3727" stop-color="#1b3f95" stop-opacity="0" offset="1"/>
    </linearGradient>
  </defs>
  <g id="layer1" transform="translate(-168.5 -384.15)">
    <g id="g3731" fill-rule="evenodd">
      <path id="path2923" d="m433.36 538.7l7.57-25.76-10.1-8.08-9.6-8.59-11.11-8.08-11.61-5.05-34.86-12.12-34.34-6.57-22.22-4.04-51.52-8.08-44.45-5.55-30.3-4.04-2.02 6.06 9.59 4.54 35.36 9.6 26.77 7.07 21.72 5.56 37.88 10.1 38.38 9.09 25.26 8.08 13.63 5.05 15.16 9.09 18.18 11.62 12.63 10.1z" stroke="#000" stroke-width=".5" fill="#babfbb"/>
      <path id="path2159" d="m436.89 428.59l8.08 26.27-8.08 4.04-5.05 5.05-9.09 8.58-14.14 9.1-17.18 10.1-20.2 6.56s-19.19 5.56-22.22 6.06c-3.03 0.51-38.39 6.57-38.39 6.57l-47.98 8.59-77.28 12.12-14.64 1.51-2.02-6.06 21.71-6.06 42.43-12.12 58.08-16.16 44.96-13.13 20.7-6.57 22.23-7.07 14.64-6.57 13.14-8.08 20.7-13.13 9.6-9.6z" stroke="#000" stroke-width=".4" fill="#9ea095"/>
      <path id="path2921" stroke-linejoin="round" d="m369.72 485.16a6.8185 7.0711 0 1 1 -13.64 0 6.8185 7.0711 0 1 1 13.64 0z" stroke="#f2f2f2" stroke-width=".4" fill="url(#linearGradient2955)"/>
      <path id="path2925" d="m441.44 505.36l-4.55 5.56s-6.57 24.75-6.06 26.77 4.55 9.6 4.55 9.6l16.66 13.13 26.77 15.66 30.81 11.61 24.25 5.56s20.2-0.51 22.22-0.51 16.16-7.07 16.16-7.07l11.62-12.63 3.53-17.17-4.54-15.15-16.16-13.64-19.7-6.06-4.04-2.52-5.56-1.01-4.54 1.01-27.28-5.56-30.3-7.07-13.14 2.53-12.12-1.52-8.58-1.52z" stroke="#000" stroke-width="1px" fill="url(#linearGradient3721)"/>
      <path id="path2927" d="m490.93 527.59l17.68 2.52 19.7 3.54 20.2 4.54 11.11 3.03 7.58 4.05 4.04 8.58 0.51 9.09-4.55 10.1-9.09 5.06-8.59 1.51-7.57-1.01-10.1-0.5-8.09-2.53-10.1-2.02-12.12-4.55-11.11-4.54-9.6-6.57-3.03-4.04-2.02-5.55 1.52-8.59 7.57-9.09 6.06-3.03z" stroke="#000" stroke-width="1px" fill="#fff"/>
      <path id="path2931" d="m429.82 432.13l4.55 13.13 4.54 17.68 9.09 1.01 18.69-0.51 15.66-2.52 17.17-4.55 17.68-3.03 11.11-0.5 8.59-1.52 5.05-3.53s10.6-3.03 12.62-3.54c2.02-0.5 8.59-5.56 8.59-5.56l5.56-6.56 3.53-12.12-2.52-10.61-3.03-7.58-6.57-6.56-7.58-6.06-11.11-3.03-8.58-1.52-14.65 1.52-16.67 2.02-12.12 5.05-15.66 7.07s-12.12 5.55-14.14 6.56-23.23 15.16-23.23 15.16l-6.57 10.1z" stroke="#000" stroke-width="1px" fill="url(#linearGradient3729)"/>
      <path id="path2929" d="m471.74 422.53v5.56l2.02 6.06 3.54 4.04 4.04 4.04 7.57 1.01 10.61-1.01 15.15-3.03 14.65-3.03 17.17-4.55 9.6-4.04 2.02-6.06-2.02-7.07-4.55-7.58-11.11-5.05-11.11-2.52-21.21 2.02-13.14 4.54-13.63 7.08-8.59 4.04-1.01 5.55z" stroke="#000" stroke-width="1px" fill="#fff"/>
    </g>
  </g>
  <metadata>
    <rdf:RDF>
      <cc:Work>
        <dc:format>image/svg+xml</dc:format>
        <dc:type rdf:resource="http://purl.org/dc/dcmitype/StillImage"/>
        <cc:license rdf:resource="http://creativecommons.org/licenses/publicdomain/"/>
        <dc:publisher>
          <cc:Agent rdf:about="http://openclipart.org/">
            <dc:title>Openclipart</dc:title>
          </cc:Agent>
        </dc:publisher>
        <dc:title>Scissors</dc:title>
        <dc:date>2006-12-31T03:03:26</dc:date>
        <dc:description>clip art, clipart, cut, household, image, media, office, png, public domain, scissors, sewing, shool, svg, tool, </dc:description>
        <dc:source>http://openclipart.org/detail/2582/scissors-by-machovka</dc:source>
        <dc:creator>
          <cc:Agent>
            <dc:title>Machovka</dc:title>
          </cc:Agent>
        </dc:creator>
        <dc:subject>
          <rdf:Bag>
            <rdf:li>clip art</rdf:li>
            <rdf:li>clipart</rdf:li>
            <rdf:li>cut</rdf:li>
            <rdf:li>household</rdf:li>
            <rdf:li>image</rdf:li>
            <rdf:li>media</rdf:li>
            <rdf:li>office</rdf:li>
            <rdf:li>png</rdf:li>
            <rdf:li>public domain</rdf:li>
            <rdf:li>scissors</rdf:li>
            <rdf:li>sewing</rdf:li>
            <rdf:li>shool</rdf:li>
            <rdf:li>svg</rdf:li>
            <rdf:li>tool</rdf:li>
          </rdf:Bag>
        </dc:subject>
      </cc:Work>
      <cc:License rdf:about="http://creativecommons.org/licenses/publicdomain/">
        <cc:permits rdf:resource="http://creativecommons.org/ns#Reproduction"/>
        <cc:permits rdf:resource="http://creativecommons.org/ns#Distribution"/>
        <cc:permits rdf:resource="http://creativecommons.org/ns#DerivativeWorks"/>
      </cc:License>
    </rdf:RDF>
  </metadata>
</svg>
